{
.appVersion = "1098";
DisplayStrings = (
H
);
copyright = "Copyright (c) 2011-2018, Eduardo Tunni (http://www.tipo.net.ar), with Reserved Font Name \"Arapey\"";
customParameters = (
{
name = fsType;
value = (
);
},
{
name = "Use Typo Metrics";
value = 1;
},
{
name = "Disable Last Change";
value = 1;
},
{
name = licenseURL;
value = "http://scripts.sil.org/OFL";
},
{
name = description;
value = "Arapey (Ah-ra-pay) is a contemporary modern typeface with some features of a Bodoni, but the structures, soft lines, and finishes leave a calm and distinguished feeling. The first sketches were made during a vacation in Arapey, a small town the north of Uruguay. The italics are gentle, rhythmic, and bring a special glamour to both text use and titles.";
},
{
name = trademark;
value = "Arapey is a trademark of Eduardo Rodriguez Tunni.";
},
{
name = license;
value = "This Font Software is licensed under the SIL Open Font License, Version 1.1. This license is available with a FAQ at: http://scripts.sil.org/OFL";
},
{
name = openTypeOS2VendorID;
value = TIPO;
},
{
name = vendorID;
value = TIPO;
}
);
date = "2017-11-17 13:52:31 +0000";
designer = "Eduardo Rodriguez Tunni";
designerURL = "http://www.tipo.net.ar";
disablesNiceNames = 1;
familyName = Arapey;
featurePrefixes = (
{
automatic = 1;
code = "languagesystem DFLT dflt;\012languagesystem latn dflt;\012languagesystem latn CAT;\012languagesystem latn ROM;\012languagesystem latn MOL;\012languagesystem latn KAZ;\012languagesystem latn TAT;\012languagesystem latn TRK;\012languagesystem latn CRT;\012languagesystem latn AZE;\012";
name = Languagesystems;
}
);
features = (
{
automatic = 1;
code = "feature ccmp;\012feature locl;\012feature sinf;\012feature sups;\012feature numr;\012feature dnom;\012feature frac;\012feature ordn;\012feature pnum;\012feature tnum;\012feature case;\012";
name = aalt;
},
{
automatic = 1;

glyphs = (
{
glyphname = A;
layers = (
{
anchors = (
{
name = bottom;
position = "{283, 0}";
},
{
name = ogonek;
position = "{576, 0}";
},
{
name = top;
position = "{283, 630}";
}
);
hints = (
{
horizontal = 1;
origin = "{0, 16}";
target = "{0, 15}";
},
{
horizontal = 1;
origin = "{1, 2}";
target = "{1, 1}";
},
{
horizontal = 1;
origin = "{0, 10}";
target = down;
type = TopGhost;
}
);
layerId = UUID0;
paths = (
{
closed = 1;
nodes = (
"436 18 LINE",
"371 18 LINE",
"371 0 LINE",
"576 0 LINE",
"576 18 LINE",
"539 18 LINE SMOOTH",
"528 18 OFFCURVE",
"523 24 OFFCURVE",
"520 32 CURVE SMOOTH",
"300 630 LINE",
"266 630 LINE",
"46 32 LINE SMOOTH",
"43 24 OFFCURVE",
"38 18 OFFCURVE",
"27 18 CURVE SMOOTH",
"-10 18 LINE",
"-10 0 LINE",
"141 0 LINE",
"141 18 LINE",
"76 18 LINE",
"257 512 LINE"
);
},
{
closed = 1;
nodes = (
"363 239 LINE",
"149 239 LINE",
"138 211 LINE",
"373 211 LINE"
);
}
);
width = 566;
}
);
leftKerningGroup = A;
rightKerningGroup = A;
unicode = 0041;
},
{
glyphname = AE;
layers = (
{
anchors = (
{
name = bottom;
position = "{530, 0}";
},
{
name = top;
position = "{530, 630}";
}
);
hints = (
{
place = "{399, 82}";
},
{
horizontal = 1;
place = "{0, 28}";
},
{
horizontal = 1;
place = "{276, 28}";
},
{
horizontal = 1;
place = "{602, 28}";
},
{
horizontal = 1;
place = "{-9, 21}";
target = up;
type = BottomGhost;
}
);
layerId = UUID0;
paths = (
{
closed = 1;
nodes = (
"338 0 LINE",
"669 0 LINE SMOOTH",
"725 0 OFFCURVE",
"762 -4 OFFCURVE",
"780 -9 CURVE",
"776 9 OFFCURVE",
"771 65 OFFCURVE",
"771 120 CURVE SMOOTH",
"771 167 LINE",
"748 167 LINE",
"733 50 LINE SMOOTH",
"731 32 OFFCURVE",
"721 28 OFFCURVE",
"705 28 CURVE SMOOTH",
"481 28 LINE",
"481 276 LINE",
"682 276 LINE SMOOTH",
"690 276 OFFCURVE",
"695 270 OFFCURVE",
"696 262 CURVE SMOOTH",
"701 200 LINE",
"719 200 LINE",
"719 380 LINE",
"701 380 LINE",
"696 318 LINE SMOOTH",
"695 310 OFFCURVE",
"690 304 OFFCURVE",
"682 304 CURVE SMOOTH",
"481 304 LINE",
"481 602 LINE",
"691 602 LINE SMOOTH",
"707 602 OFFCURVE",
"717 598 OFFCURVE",
"719 580 CURVE SMOOTH",
"734 463 LINE",
"757 463 LINE",
"757 510 LINE SMOOTH",
"757 565 OFFCURVE",
"762 621 OFFCURVE",
"766 639 CURVE",
"748 634 OFFCURVE",
"711 630 OFFCURVE",
"655 630 CURVE SMOOTH",
"293 630 LINE",
"293 612 LINE",
"327 612 LINE SMOOTH",
"334 612 OFFCURVE",
"337 608 OFFCURVE",
"337 604 CURVE SMOOTH",
"337 599 OFFCURVE",
"335 595 OFFCURVE",
"333 591 CURVE SMOOTH",
"32 32 LINE SMOOTH",
"28 24 OFFCURVE",
"24 18 OFFCURVE",
"13 18 CURVE SMOOTH",
"-24 18 LINE",
"-24 0 LINE",
"127 0 LINE",
"127 18 LINE",
"62 18 LINE",
"199 276 LINE",
"399 276 LINE",
"399 32 LINE SMOOTH",
"399 24 OFFCURVE",
"393 18 OFFCURVE",
"385 18 CURVE SMOOTH",
"338 18 LINE"
);
},
{
closed = 1;
nodes = (
"373 602 LINE",
"399 602 LINE",
"399 304 LINE",
"214 304 LINE"
);
}
);
width = 820;
}
);
leftKerningGroup = AE;
rightKerningGroup = E;
rightMetricsKey = E;
unicode = 00C6;
},
{
glyphname = B;
layers = (
{
anchors = (
{
name = bottom;
position = "{256, 0}";
},
{
name = top;
position = "{256, 630}";
}
);
hints = (
{
place = "{96, 82}";
},
{
place = "{371, 80}";
},
{
place = "{416, 35}";
},
{
place = "{416, 80}";
},
{
horizontal = 1;
place = "{0, 28}";
},
{
horizontal = 1;
place = "{321, 25}";
},
{
horizontal = 1;
place = "{602, 28}";
}
);
layerId = UUID0;
paths = (
{
closed = 1;
nodes = (
"35 0 LINE",
"294 0 LINE SMOOTH",
"402 0 OFFCURVE",
"496 66 OFFCURVE",
"496 175 CURVE SMOOTH",
"496 264 OFFCURVE",
"434 321 OFFCURVE",
"354 339 CURVE",
"411 364 OFFCURVE",
"451 414 OFFCURVE",
"451 483 CURVE SMOOTH",
"451 572 OFFCURVE",
"366 630 OFFCURVE",
"269 630 CURVE SMOOTH",
"35 630 LINE",
"35 612 LINE",
"82 612 LINE SMOOTH",
"89 612 OFFCURVE",
"96 607 OFFCURVE",
"96 600 CURVE SMOOTH",
"96 30 LINE SMOOTH",
"96 23 OFFCURVE",
"89 18 OFFCURVE",
"82 18 CURVE SMOOTH",
"35 18 LINE"
);
},
{
closed = 1;
nodes = (
"289 321 LINE SMOOTH",
"373 321 OFFCURVE",
"416 248 OFFCURVE",
"416 175 CURVE SMOOTH",
"416 102 OFFCURVE",
"373 28 OFFCURVE",
"289 28 CURVE SMOOTH",
"178 28 LINE",
"178 321 LINE"
);
},
{
closed = 1;
nodes = (
"248 602 LINE SMOOTH",
"338 602 OFFCURVE",
"371 542 OFFCURVE",
"371 483 CURVE SMOOTH",
"371 416 OFFCURVE",
"339 346 OFFCURVE",
"254 346 CURVE SMOOTH",
"178 346 LINE",
"178 602 LINE"
);
}
);
width = 511;
}
);
leftKerningGroup = H;
rightKerningGroup = B;
unicode = 0042;
},
{
glyphname = C;
layers = (
{
anchors = (
{
name = bottom;
position = "{322, 0}";
},
{
name = top;
position = "{312, 630}";
}
);
hints = (
{
place = "{35, 85}";
},
{
place = "{500, 18}";
},
{
horizontal = 1;
place = "{-12, 29}";
},
{
horizontal = 1;
place = "{613, 29}";
},
{
horizontal = 1;
place = "{0, 21}";
target = up;
type = BottomGhost;
}
);
layerId = UUID0;
paths = (
{
closed = 1;
nodes = (
"499 0 LINE",
"518 0 LINE",
"518 167 LINE",
"500 167 LINE",
"487 58 OFFCURVE",
"410 17 OFFCURVE",
"322 17 CURVE SMOOTH",
"205 17 OFFCURVE",
"120 125 OFFCURVE",
"120 314 CURVE SMOOTH",
"120 502 OFFCURVE",
"202 613 OFFCURVE",
"322 613 CURVE SMOOTH",
"410 613 OFFCURVE",
"487 572 OFFCURVE",
"500 463 CURVE",
"518 463 LINE",
"518 636 LINE",
"499 636 LINE",
"498 619 LINE SMOOTH",
"497 604 OFFCURVE",
"491 598 OFFCURVE",
"482 598 CURVE SMOOTH",
"456 598 OFFCURVE",
"414 642 OFFCURVE",
"322 642 CURVE SMOOTH",
"155 642 OFFCURVE",
"35 522 OFFCURVE",
"35 314 CURVE SMOOTH",
"35 107 OFFCURVE",
"158 -12 OFFCURVE",
"322 -12 CURVE SMOOTH",
"416 -12 OFFCURVE",
"458 35 OFFCURVE",
"482 35 CURVE SMOOTH",
"491 35 OFFCURVE",
"497 29 OFFCURVE",
"498 14 CURVE SMOOTH"
);
}
);
width = 563;
}
);
leftKerningGroup = O;
leftMetricsKey = O;
rightKerningGroup = C;
unicode = 0043;
},
{
glyphname = D;
layers = (
{
anchors = (
{
name = bottom;
position = "{306, 0}";
},
{
name = center;
position = "{178, 320}";
},
{
name = top;
position = "{286, 630}";
}
);
hints = (
{
place = "{96, 82}";
},
{
place = "{491, 85}";
},
{
horizontal = 1;
place = "{0, 28}";
},
{
horizontal = 1;
place = "{602, 28}";
}
);
layerId = UUID0;
paths = (
{
closed = 1;
nodes = (
"35 612 LINE",
"82 612 LINE SMOOTH",
"90 612 OFFCURVE",
"96 607 OFFCURVE",
"96 600 CURVE SMOOTH",
"96 30 LINE SMOOTH",
"96 24 OFFCURVE",
"90 18 OFFCURVE",
"82 18 CURVE SMOOTH",
"35 18 LINE",
"35 0 LINE",
"289 0 LINE SMOOTH",
"463 0 OFFCURVE",
"576 124 OFFCURVE",
"576 315 CURVE SMOOTH",
"576 506 OFFCURVE",
"463 630 OFFCURVE",
"289 630 CURVE SMOOTH",
"35 630 LINE"
);
},
{
closed = 1;
nodes = (
"289 602 LINE SMOOTH",
"408 602 OFFCURVE",
"491 485 OFFCURVE",
"491 315 CURVE SMOOTH",
"491 145 OFFCURVE",
"408 28 OFFCURVE",
"289 28 CURVE SMOOTH",
"178 28 LINE",
"178 602 LINE"
);
}
);
width = 611;
}
);
leftKerningGroup = H;
leftMetricsKey = H;
rightKerningGroup = O;
rightMetricsKey = O;
unicode = 0044;
},
{
glyphname = E;
layers = (
{
anchors = (
{
name = bottom;
position = "{269, 0}";
},
{
name = ogonek;
position = "{465, 0}";
},
{
name = top;
position = "{269, 630}";
},
{
name = topleft;
position = "{20, 630}";
}
);
hints = (
{
horizontal = 1;
origin = "{0, 0}";
target = "{0, 53}";
},
{
horizontal = 1;
origin = "{0, 15}";
target = "{0, 28}";
},
{
horizontal = 1;
origin = "{0, 43}";
target = "{0, 29}";
},
{
horizontal = 1;
origin = "{0, 0}";
target = "{0, 14}";
},
{
horizontal = 1;
origin = "{0, 39}";
target = down;
type = TopGhost;
},
{
horizontal = 1;
origin = "{0, 43}";
target = "{0, 44}";
},
{
origin = "{0, 49}";
target = "{0, 14}";
},
{
place = "{395.5, 20.5}";
},
{
origin = "{0, 9}";
target = "{0, 7}";
},
{
origin = "{0, 34}";
target = "{0, 35}";
}
);
layerId = UUID0;
paths = (
{
closed = 1;
nodes = (
"35 0 LINE",
"366 0 LINE SMOOTH",
"422 0 OFFCURVE",
"459 -4 OFFCURVE",
"477 -9 CURVE",
"473 9 OFFCURVE",
"468 65 OFFCURVE",
"468 120 CURVE SMOOTH",
"468 167 LINE",
"445 167 LINE",
"430 50 LINE SMOOTH",
"428 32 OFFCURVE",
"418 28 OFFCURVE",
"402 28 CURVE SMOOTH",
"178 28 LINE",
"178 301 LINE",
"379 301 LINE SMOOTH",
"387 301 OFFCURVE",
"392 295 OFFCURVE",
"393 287 CURVE SMOOTH",
"398 225 LINE",
"416 225 LINE",
"416 405 LINE",
"398 405 LINE",
"393 343 LINE SMOOTH",
"392 335 OFFCURVE",
"387 329 OFFCURVE",
"379 329 CURVE SMOOTH",
"178 329 LINE",
"178 602 LINE",
"388 602 LINE SMOOTH",
"404 602 OFFCURVE",
"414 598 OFFCURVE",
"416 580 CURVE SMOOTH",
"431 478 LINE",
"454 478 LINE",
"454 525 LINE SMOOTH",
"454 580 OFFCURVE",
"459 621 OFFCURVE",
"463 639 CURVE",
"445 634 OFFCURVE",
"408 630 OFFCURVE",
"352 630 CURVE SMOOTH",
"35 630 LINE",
"35 612 LINE",
"82 612 LINE SMOOTH",
"89 612 OFFCURVE",
"96 607 OFFCURVE",
"96 600 CURVE SMOOTH",
"96 32 LINE SMOOTH",
"96 23 OFFCURVE",
"89 18 OFFCURVE",
"82 18 CURVE SMOOTH",
"35 18 LINE"
);
}
);
width = 517;
}
);
leftKerningGroup = H;
rightKerningGroup = E;
unicode = 0045;
},
{
glyphname = F;
layers = (
{
anchors = (
{
name = bottom;
position = "{234, 0}";
},
{
name = top;
position = "{234, 630}";
}
);
hints = (
{
place = "{96, 82}";
},
{
place = "{425, 23}";
},
{
place = "{410, -18}";
},
{
horizontal = 1;
place = "{0, 18}";
},
{
horizontal = 1;
place = "{301, 28}";
},
{
horizontal = 1;
place = "{602, 28}";
}
);
layerId = UUID0;
paths = (
{
closed = 1;
nodes = (
"35 612 LINE",
"82 612 LINE SMOOTH",
"89 612 OFFCURVE",
"96 607 OFFCURVE",
"96 600 CURVE SMOOTH",
"96 32 LINE SMOOTH",
"96 24 OFFCURVE",
"90 18 OFFCURVE",
"82 18 CURVE SMOOTH",
"35 18 LINE",
"35 0 LINE",
"279 0 LINE",
"279 18 LINE",
"192 18 LINE SMOOTH",
"184 18 OFFCURVE",
"178 24 OFFCURVE",
"178 32 CURVE SMOOTH",
"178 301 LINE",
"375 301 LINE",
"381 301 OFFCURVE",
"386 294 OFFCURVE",
"387 287 CURVE SMOOTH",
"392 225 LINE",
"410 225 LINE",
"410 405 LINE",
"392 405 LINE",
"387 343 LINE SMOOTH",
"386 336 OFFCURVE",
"381 329 OFFCURVE",
"375 329 CURVE",
"178 329 LINE",
"178 602 LINE",
"382 602 LINE SMOOTH",
"398 602 OFFCURVE",
"407 598 OFFCURVE",
"410 580 CURVE SMOOTH",
"425 478 LINE",
"448 478 LINE",
"448 525 LINE SMOOTH",
"448 580 OFFCURVE",
"453 621 OFFCURVE",
"457 639 CURVE",
"439 634 OFFCURVE",
"402 630 OFFCURVE",
"346 630 CURVE SMOOTH",
"35 630 LINE"
);
}
);
width = 467;
}
);
leftKerningGroup = H;
rightKerningGroup = F;
unicode = 0046;
},
{
glyphname = G;
layers = (
{
anchors = (
{
name = bottom;
position = "{322, 0}";
},
{
name = top;
position = "{306, 630}";
}
);
hints = (
{
place = "{35, 85}";
},
{
place = "{468, 82}";
},
{
place = "{500, 18}";
},
{
horizontal = 1;
place = "{-12, 29}";
},
{
horizontal = 1;
place = "{240, 18}";
},
{
horizontal = 1;
place = "{613, 29}";
}
);
layerId = UUID0;
paths = (
{
closed = 1;
nodes = (
"424 613 OFFCURVE",
"489 559 OFFCURVE",
"500 463 CURVE",
"518 463 LINE",
"518 636 LINE",
"499 636 LINE",
"498 619 LINE SMOOTH",
"497 605 OFFCURVE",
"492 598 OFFCURVE",
"482 598 CURVE SMOOTH",
"456 598 OFFCURVE",
"414 642 OFFCURVE",
"322 642 CURVE SMOOTH",
"155 642 OFFCURVE",
"35 522 OFFCURVE",
"35 314 CURVE SMOOTH",
"35 107 OFFCURVE",
"158 -12 OFFCURVE",
"322 -12 CURVE SMOOTH",
"455 -12 OFFCURVE",
"550 73 OFFCURVE",
"550 192 CURVE SMOOTH",
"550 228 LINE SMOOTH",
"550 235 OFFCURVE",
"557 240 OFFCURVE",
"564 240 CURVE SMOOTH",
"591 240 LINE",
"591 258 LINE",
"387 258 LINE",
"387 240 LINE",
"454 240 LINE SMOOTH",
"461 240 OFFCURVE",
"468 235 OFFCURVE",
"468 228 CURVE SMOOTH",
"468 188 LINE SMOOTH",
"468 83 OFFCURVE",
"432 17 OFFCURVE",
"322 17 CURVE SMOOTH",
"205 17 OFFCURVE",
"120 125 OFFCURVE",
"120 314 CURVE SMOOTH",
"120 502 OFFCURVE",
"202 613 OFFCURVE",
"322 613 CURVE SMOOTH"
);
}
);
width = 591;
}
);
leftKerningGroup = O;
leftMetricsKey = O;
rightKerningGroup = G;
unicode = 0047;
},
{
glyphname = H;
layers = (
{
anchors = (
{
name = bottom;
position = "{324, 0}";
},
{
name = center;
position = "{324, 466}";
},
{
name = top;
position = "{324, 630}";
},
{
name = topleft;
position = "{20, 630}";
}
);
hints = (
{
place = "{96, 82}";
},
{
place = "{470, 82}";
},
{
horizontal = 1;
place = "{0, 18}";
},
{
horizontal = 1;
place = "{301, 28}";
},
{
horizontal = 1;
place = "{612, 18}";
}
);
layerId = UUID0;
paths = (
{
closed = 1;
nodes = (
"239 0 LINE",
"239 18 LINE",
"192 18 LINE SMOOTH",
"184 18 OFFCURVE",
"178 24 OFFCURVE",
"178 32 CURVE SMOOTH",
"178 301 LINE",
"470 301 LINE",
"470 32 LINE SMOOTH",
"470 24 OFFCURVE",
"464 18 OFFCURVE",
"456 18 CURVE SMOOTH",
"409 18 LINE",
"409 0 LINE",
"613 0 LINE",
"613 18 LINE",
"566 18 LINE SMOOTH",
"558 18 OFFCURVE",
"552 24 OFFCURVE",
"552 32 CURVE SMOOTH",
"552 600 LINE SMOOTH",
"552 607 OFFCURVE",
"559 612 OFFCURVE",
"566 612 CURVE SMOOTH",
"613 612 LINE",
"613 630 LINE",
"409 630 LINE",
"409 612 LINE",
"456 612 LINE SMOOTH",
"464 612 OFFCURVE",
"470 606 OFFCURVE",
"470 598 CURVE SMOOTH",
"470 329 LINE",
"178 329 LINE",
"178 598 LINE SMOOTH",
"178 606 OFFCURVE",
"184 612 OFFCURVE",
"192 612 CURVE SMOOTH",
"239 612 LINE",
"239 630 LINE",
"35 630 LINE",
"35 612 LINE",
"82 612 LINE SMOOTH",
"89 612 OFFCURVE",
"96 607 OFFCURVE",
"96 600 CURVE SMOOTH",
"96 32 LINE SMOOTH",
"96 24 OFFCURVE",
"90 18 OFFCURVE",
"82 18 CURVE SMOOTH",
"35 18 LINE",
"35 0 LINE"
);
}
);
width = 648;
}
);
leftKerningGroup = H;
rightKerningGroup = H;
unicode = 0048;
},
{
glyphname = I;
layers = (
{
anchors = (
{
name = bottom;
position = "{137, 0}";
},
{
name = ogonek;
position = "{239, 0}";
},
{
name = top;
position = "{137, 630}";
},
{
name = topleft;
position = "{20, 630}";
}
);
hints = (
{
place = "{96, 82}";
},
{
horizontal = 1;
place = "{0, 18}";
},
{
horizontal = 1;
place = "{612, 18}";
}
);
layerId = UUID0;
paths = (
{
closed = 1;
nodes = (
"96 32 LINE SMOOTH",
"96 24 OFFCURVE",
"90 18 OFFCURVE",
"82 18 CURVE SMOOTH",
"35 18 LINE",
"35 0 LINE",
"239 0 LINE",
"239 18 LINE",
"192 18 LINE SMOOTH",
"184 18 OFFCURVE",
"178 24 OFFCURVE",
"178 32 CURVE SMOOTH",
"178 600 LINE SMOOTH",
"178 607 OFFCURVE",
"185 612 OFFCURVE",
"192 612 CURVE SMOOTH",
"239 612 LINE",
"239 630 LINE",
"35 630 LINE",
"35 612 LINE",
"82 612 LINE SMOOTH",
"89 612 OFFCURVE",
"96 607 OFFCURVE",
"96 600 CURVE SMOOTH"
);
}
);
width = 274;
}
);
leftKerningGroup = H;
rightKerningGroup = H;
unicode = 0049;
},
{
glyphname = J;
layers = (
{
anchors = (
{
name = bottom;
position = "{135, 0}";
},
{
name = top;
position = "{135, 630}";
}
);
hints = (
{
place = "{-75, 70}";
},
{
place = "{96, 82}";
},
{
horizontal = 1;
place = "{-159, 24}";
},
{
horizontal = 1;
place = "{612, 18}";
},
{
horizontal = 1;
place = "{-12, 21}";
target = up;
type = BottomGhost;
}
);
layerId = UUID0;
paths = (
{
closed = 1;
nodes = (
"178 598 LINE SMOOTH",
"178 606 OFFCURVE",
"184 612 OFFCURVE",
"192 612 CURVE SMOOTH",
"239 612 LINE",
"239 630 LINE",
"35 630 LINE",
"35 612 LINE",
"82 612 LINE SMOOTH",
"89 612 OFFCURVE",
"96 607 OFFCURVE",
"96 600 CURVE SMOOTH",
"96 -45 LINE SMOOTH",
"96 -110 OFFCURVE",
"72 -135 OFFCURVE",
"39 -135 CURVE SMOOTH",
"9 -135 OFFCURVE",
"-5 -113 OFFCURVE",
"-5 -89 CURVE SMOOTH",
"-5 -69 OFFCURVE",
"0 -46 OFFCURVE",
"11 -27 CURVE",
"-1 -17 OFFCURVE",
"-20 -12 OFFCURVE",
"-38 -12 CURVE SMOOTH",
"-63 -12 OFFCURVE",
"-75 -38 OFFCURVE",
"-75 -68 CURVE SMOOTH",
"-75 -109 OFFCURVE",
"-50 -159 OFFCURVE",
"30 -159 CURVE SMOOTH",
"127 -159 OFFCURVE",
"178 -61 OFFCURVE",
"178 127 CURVE SMOOTH"
);
}
);
width = 269;
}
);
leftKerningGroup = J;
rightKerningGroup = J;
rightMetricsKey = "=H*.85";
unicode = 004A;
},
{
glyphname = K;
layers = (
{
anchors = (
{
name = bottom;
position = "{270, 0}";
},
{
name = top;
position = "{270, 630}";
}
);
hints = (
{
place = "{96, 82}";
},
{
horizontal = 1;
place = "{-12, 30}";
},
{
horizontal = 1;
place = "{0, 18}";
},
{
horizontal = 1;
place = "{303, 24}";
},
{
horizontal = 1;
place = "{612, 18}";
}
);
layerId = UUID0;
paths = (
{
closed = 1;
nodes = (
"96 32 LINE SMOOTH",
"96 24 OFFCURVE",
"90 18 OFFCURVE",
"82 18 CURVE SMOOTH",
"35 18 LINE",
"35 0 LINE",
"239 0 LINE",
"239 18 LINE",
"192 18 LINE SMOOTH",
"184 18 OFFCURVE",
"178 24 OFFCURVE",
"178 32 CURVE SMOOTH",
"178 600 LINE",
"178 607 OFFCURVE",
"185 612 OFFCURVE",
"192 612 CURVE SMOOTH",
"239 612 LINE",
"239 630 LINE",
"35 630 LINE",
"35 612 LINE",
"82 612 LINE SMOOTH",
"89 612 OFFCURVE",
"96 607 OFFCURVE",
"96 600 CURVE"
);
},
{
closed = 1;
nodes = (
"412 175 LINE SMOOTH",
"392 254 OFFCURVE",
"352 325 OFFCURVE",
"240 327 CURVE",
"464 598 LINE SMOOTH",
"474 610 OFFCURVE",
"477 612 OFFCURVE",
"492 612 CURVE SMOOTH",
"519 612 LINE",
"519 630 LINE",
"383 630 LINE",
"383 612 LINE",
"433 612 LINE",
"197 325 LINE",
"197 303 LINE",
"269 303 OFFCURVE",
"306 275 OFFCURVE",
"329 187 CURVE SMOOTH",
"352 95 LINE SMOOTH",
"371 18 OFFCURVE",
"413 -12 OFFCURVE",
"462 -12 CURVE SMOOTH",
"507 -12 OFFCURVE",
"539 17 OFFCURVE",
"539 66 CURVE SMOOTH",
"539 77 OFFCURVE",
"538 88 OFFCURVE",
"535 99 CURVE",
"516 96 LINE",
"518 86 OFFCURVE",
"519 77 OFFCURVE",
"519 68 CURVE SMOOTH",
"519 39 OFFCURVE",
"505 21 OFFCURVE",
"483 21 CURVE SMOOTH",
"459 21 OFFCURVE",
"445 42 OFFCURVE",
"435 83 CURVE SMOOTH"
);
}
);
width = 539;
}
);
leftKerningGroup = H;
rightKerningGroup = K;
unicode = 004B;
},
{
glyphname = L;
layers = (
{
anchors = (
{
name = bottom;
position = "{256, 0}";
},
{
name = center;
position = "{137, 354}";
},
{
name = top;
position = "{136, 630}";
},
{
name = topright;
position = "{432, 639}";
}
);
hints = (
{
place = "{96, 82}";
},
{
place = "{420, 23}";
},
{
horizontal = 1;
place = "{0, 28}";
},
{
horizontal = 1;
place = "{612, 18}";
},
{
horizontal = 1;
place = "{-9, 21}";
target = up;
type = BottomGhost;
}
);
layerId = UUID0;
paths = (
{
closed = 1;
nodes = (
"35 0 LINE",
"341 0 LINE SMOOTH",
"397 0 OFFCURVE",
"434 -4 OFFCURVE",
"452 -9 CURVE",
"448 9 OFFCURVE",
"443 65 OFFCURVE",
"443 120 CURVE SMOOTH",
"443 167 LINE",
"420 167 LINE",
"405 50 LINE SMOOTH",
"403 32 OFFCURVE",
"393 28 OFFCURVE",
"377 28 CURVE SMOOTH",
"178 28 LINE",
"178 600 LINE SMOOTH",
"178 607 OFFCURVE",
"185 612 OFFCURVE",
"192 612 CURVE SMOOTH",
"239 612 LINE",
"239 630 LINE",
"35 630 LINE",
"35 612 LINE",
"82 612 LINE SMOOTH",
"89 612 OFFCURVE",
"96 607 OFFCURVE",
"96 600 CURVE SMOOTH",
"96 32 LINE SMOOTH",
"96 23 OFFCURVE",
"89 18 OFFCURVE",
"82 18 CURVE SMOOTH",
"35 18 LINE"
);
}
);
width = 452;
}
);
leftKerningGroup = H;
leftMetricsKey = H;
rightKerningGroup = L;
rightMetricsKey = L;
unicode = 004C;
},
{
glyphname = M;
layers = (
{
anchors = (
{
name = bottom;
position = "{380, 0}";
},
{
name = top;
position = "{380, 630}";
}
);
hints = (
{
place = "{96, 34}";
},
{
place = "{582, 82}";
},
{
horizontal = 1;
place = "{0, 18}";
},
{
horizontal = 1;
place = "{612, 18}";
}
);
layerId = UUID0;
paths = (
{
closed = 1;
nodes = (
"521 0 LINE",
"725 0 LINE",
"725 18 LINE",
"678 18 LINE SMOOTH",
"671 18 OFFCURVE",
"664 23 OFFCURVE",
"664 30 CURVE SMOOTH",
"664 598 LINE SMOOTH",
"664 606 OFFCURVE",
"670 612 OFFCURVE",
"678 612 CURVE SMOOTH",
"725 612 LINE",
"725 630 LINE",
"582 630 LINE",
"382 113 LINE",
"178 630 LINE",
"35 630 LINE",
"35 612 LINE",
"82 612 LINE SMOOTH",
"89 612 OFFCURVE",
"96 607 OFFCURVE",
"96 600 CURVE SMOOTH",
"96 32 LINE SMOOTH",
"96 24 OFFCURVE",
"90 18 OFFCURVE",
"82 18 CURVE SMOOTH",
"35 18 LINE",
"35 0 LINE",
"191 0 LINE",
"191 18 LINE",
"144 18 LINE SMOOTH",
"136 18 OFFCURVE",
"130 24 OFFCURVE",
"130 32 CURVE SMOOTH",
"130 526 LINE",
"339 0 LINE",
"373 0 LINE",
"582 541 LINE",
"582 30 LINE SMOOTH",
"582 23 OFFCURVE",
"575 18 OFFCURVE",
"568 18 CURVE SMOOTH",
"521 18 LINE"
);
}
);
width = 760;
}
);
leftKerningGroup = M;
leftMetricsKey = H;
rightKerningGroup = M;
rightMetricsKey = H;
unicode = 004D;
},
{
glyphname = N;
layers = (
{
anchors = (
{
name = bottom;
position = "{315, 0}";
},
{
name = top;
position = "{315, 630}";
}
);
hints = (
{
place = "{96, 34}";
},
{
place = "{504, 34}";
},
{
horizontal = 1;
place = "{0, 18}";
},
{
horizontal = 1;
place = "{612, 18}";
}
);
layerId = UUID0;
paths = (
{
closed = 1;
nodes = (
"506 0 LINE",
"538 0 LINE",
"538 600 LINE",
"538 607 OFFCURVE",
"545 612 OFFCURVE",
"552 612 CURVE SMOOTH",
"599 612 LINE",
"599 630 LINE",
"443 630 LINE",
"443 612 LINE",
"490 612 LINE SMOOTH",
"498 612 OFFCURVE",
"504 606 OFFCURVE",
"504 598 CURVE SMOOTH",
"504 154 LINE",
"182 630 LINE",
"35 630 LINE",
"35 612 LINE",
"82 612 LINE SMOOTH",
"89 612 OFFCURVE",
"96 607 OFFCURVE",
"96 600 CURVE",
"96 32 LINE SMOOTH",
"96 24 OFFCURVE",
"90 18 OFFCURVE",
"82 18 CURVE SMOOTH",
"35 18 LINE",
"35 0 LINE",
"191 0 LINE",
"191 18 LINE",
"144 18 LINE SMOOTH",
"136 18 OFFCURVE",
"130 24 OFFCURVE",
"130 32 CURVE SMOOTH",
"130 558 LINE"
);
}
);
width = 629;
}
);
leftKerningGroup = H;
leftMetricsKey = H;
rightKerningGroup = N;
rightMetricsKey = "=H*.85";
unicode = 004E;
},
{
glyphname = Eng;
layers = (
{
components = (
{
name = N;
}
);
hints = (
{
place = "{303, 67}";
},
{
horizontal = 1;
place = "{-228, 23}";
},
{
horizontal = 1;
place = "{105, -20}";
target = down;
type = TopGhost;
}
);
layerId = UUID0;
paths = (
{
closed = 1;
nodes = (
"466 105 LINE",
"466 -120 LINE SMOOTH",
"466 -179 OFFCURVE",
"443 -205 OFFCURVE",
"411 -205 CURVE SMOOTH",
"383 -205 OFFCURVE",
"370 -184 OFFCURVE",
"370 -162 CURVE SMOOTH",
"370 -143 OFFCURVE",
"376 -121 OFFCURVE",
"385 -103 CURVE",
"373 -93 OFFCURVE",
"355 -88 OFFCURVE",
"338 -88 CURVE SMOOTH",
"314 -88 OFFCURVE",
"303 -113 OFFCURVE",
"303 -142 CURVE SMOOTH",
"303 -181 OFFCURVE",
"327 -228 OFFCURVE",
"403 -228 CURVE SMOOTH",
"476 -228 OFFCURVE",
"538 -153 OFFCURVE",
"538 0 CURVE"
);
}
);
width = 629;
}
);
leftKerningGroup = Eng;
rightKerningGroup = N;
unicode = 014A;
},
{
glyphname = O;
layers = (
{
anchors = (
{
name = bottom;
position = "{322, 0}";
},
{
name = center;
position = "{322, 320}";
},
{
name = ogonek;
position = "{389, 0}";
},
{
name = top;
position = "{322, 630}";
},
{
name = topleft;
position = "{20, 630}";
},
{
name = topright;
position = "{443, 616}";
}
);
hints = (
{
place = "{35, 85}";
},
{
place = "{523, 85}";
},
{
horizontal = 1;
place = "{-12, 26}";
},
{
horizontal = 1;
place = "{616, 26}";
}
);
layerId = UUID0;
paths = (
{
closed = 1;
nodes = (
"35 107 OFFCURVE",
"156 -12 OFFCURVE",
"321 -12 CURVE SMOOTH",
"487 -12 OFFCURVE",
"608 107 OFFCURVE",
"608 315 CURVE SMOOTH",
"608 523 OFFCURVE",
"487 642 OFFCURVE",
"321 642 CURVE SMOOTH",
"156 642 OFFCURVE",
"35 523 OFFCURVE",
"35 315 CURVE SMOOTH"
);
},
{
closed = 1;
nodes = (
"120 507 OFFCURVE",
"211 616 OFFCURVE",
"321 616 CURVE SMOOTH",
"431 616 OFFCURVE",
"523 507 OFFCURVE",
"523 315 CURVE SMOOTH",
"523 123 OFFCURVE",
"431 14 OFFCURVE",
"321 14 CURVE SMOOTH",
"211 14 OFFCURVE",
"120 123 OFFCURVE",
"120 315 CURVE SMOOTH"
);
}
);
width = 643;
}
);
leftKerningGroup = O;
rightKerningGroup = O;
unicode = 004F;
},
{
glyphname = OE;
layers = (
{
hints = (
{
place = "{35, 85}";
},
{
place = "{378, 82}";
},
{
horizontal = 1;
place = "{0, 28}";
},
{
horizontal = 1;
place = "{301, 28}";
},
{
horizontal = 1;
place = "{602, 28}";
},
{
horizontal = 1;
place = "{639, -20}";
target = down;
type = TopGhost;
},
{
horizontal = 1;
place = "{-9, 21}";
target = up;
type = BottomGhost;
}
);
layerId = UUID0;
paths = (
{
closed = 1;
nodes = (
"661 301 LINE SMOOTH",
"669 301 OFFCURVE",
"674 295 OFFCURVE",
"675 287 CURVE SMOOTH",
"680 225 LINE",
"698 225 LINE",
"698 405 LINE",
"680 405 LINE",
"675 343 LINE SMOOTH",
"674 336 OFFCURVE",
"669 330 OFFCURVE",
"663 329 CURVE",
"460 329 LINE",
"460 602 LINE",
"670 602 LINE SMOOTH",
"686 602 OFFCURVE",
"696 598 OFFCURVE",
"698 580 CURVE SMOOTH",
"713 463 LINE",
"736 463 LINE",
"736 510 LINE SMOOTH",
"736 565 OFFCURVE",
"741 621 OFFCURVE",
"745 639 CURVE",
"727 634 OFFCURVE",
"690 630 OFFCURVE",
"634 630 CURVE SMOOTH",
"321 630 LINE SMOOTH",
"156 630 OFFCURVE",
"35 515 OFFCURVE",
"35 315 CURVE SMOOTH",
"35 115 OFFCURVE",
"156 0 OFFCURVE",
"321 0 CURVE SMOOTH",
"648 0 LINE SMOOTH",
"704 0 OFFCURVE",
"741 -4 OFFCURVE",
"759 -9 CURVE",
"755 9 OFFCURVE",
"750 65 OFFCURVE",
"750 120 CURVE SMOOTH",
"750 167 LINE",
"727 167 LINE",
"712 50 LINE SMOOTH",
"710 32 OFFCURVE",
"700 28 OFFCURVE",
"684 28 CURVE SMOOTH",
"460 28 LINE",
"460 301 LINE"
);
},
{
closed = 1;
nodes = (
"321 28 LINE SMOOTH",
"211 28 OFFCURVE",
"120 131 OFFCURVE",
"120 315 CURVE SMOOTH",
"120 499 OFFCURVE",
"211 602 OFFCURVE",
"321 602 CURVE SMOOTH",
"378 602 LINE",
"378 28 LINE"
);
}
);
width = 799;
}
);
leftKerningGroup = O;
rightKerningGroup = E;
unicode = 0152;
},
{
glyphname = P;
layers = (
{
anchors = (
{
name = bottom;
position = "{243, 0}";
},
{
name = top;
position = "{243, 630}";
}
);
hints = (
{
place = "{96, 82}";
},
{
place = "{401, 80}";
},
{
horizontal = 1;
place = "{0, 18}";
},
{
horizontal = 1;
place = "{250, 28}";
},
{
horizontal = 1;
place = "{602, 28}";
}
);
layerId = UUID0;
paths = (
{
closed = 1;
nodes = (
"35 612 LINE",
"82 612 LINE SMOOTH",
"89 612 OFFCURVE",
"96 607 OFFCURVE",
"96 600 CURVE SMOOTH",
"96 32 LINE SMOOTH",
"96 24 OFFCURVE",
"90 18 OFFCURVE",
"82 18 CURVE SMOOTH",
"35 18 LINE",
"35 0 LINE",
"259 0 LINE",
"259 18 LINE",
"192 18 LINE SMOOTH",
"184 18 OFFCURVE",
"178 24 OFFCURVE",
"178 32 CURVE SMOOTH",
"178 250 LINE",
"279 250 LINE SMOOTH",
"387 250 OFFCURVE",
"481 319 OFFCURVE",
"481 440 CURVE SMOOTH",
"481 561 OFFCURVE",
"387 630 OFFCURVE",
"279 630 CURVE SMOOTH",
"35 630 LINE"
);
},
{
closed = 1;
nodes = (
"274 602 LINE SMOOTH",
"358 602 OFFCURVE",
"401 520 OFFCURVE",
"401 440 CURVE SMOOTH",
"401 360 OFFCURVE",
"358 278 OFFCURVE",
"274 278 CURVE SMOOTH",
"178 278 LINE",
"178 602 LINE"
);
}
);
width = 486;
}
);
leftKerningGroup = H;
rightKerningGroup = P;
unicode = 0050;
},
{
glyphname = Thorn;
layers = (
{
components = (
{
name = I;
}
);
hints = (
{
place = "{391, 80}";
},
{
horizontal = 1;
place = "{125, 28}";
},
{
horizontal = 1;
place = "{476, 28}";
}
);
layerId = UUID0;
paths = (
{
closed = 1;
nodes = (
"123 153 LINE",
"123 125 LINE",
"269 125 LINE SMOOTH",
"377 125 OFFCURVE",
"471 194 OFFCURVE",
"471 315 CURVE SMOOTH",
"471 436 OFFCURVE",
"377 504 OFFCURVE",
"269 504 CURVE SMOOTH",
"123 504 LINE",
"123 476 LINE",
"264 476 LINE SMOOTH",
"348 476 OFFCURVE",
"391 395 OFFCURVE",
"391 315 CURVE SMOOTH",
"391 235 OFFCURVE",
"348 153 OFFCURVE",
"264 153 CURVE SMOOTH"
);
}
);
width = 486;
}
);
leftKerningGroup = H;
rightKerningGroup = Thorn;
unicode = 00DE;
},
{
glyphname = Q;
layers = (
{
anchors = (
{
name = bottom;
position = "{322, 0}";
},
{
name = top;
position = "{322, 630}";
}
);
hints = (
{
place = "{35, 85}";
},
{
place = "{523, 85}";
},
{
place = "{292, 72}";
},
{
horizontal = 1;
place = "{616, 26}";
},
{
horizontal = 1;
place = "{-191, 21}";
target = up;
type = BottomGhost;
},
{
horizontal = 1;
place = "{14, -24}";
}
);
layerId = UUID0;
paths = (
{
closed = 1;
nodes = (
"35 121 OFFCURVE",
"139 5 OFFCURVE",
"287 -10 CURVE",
"292 -59 LINE SMOOTH",
"300 -140 OFFCURVE",
"328 -178 OFFCURVE",
"447 -191 CURVE",
"451 -167 LINE",
"383 -154 OFFCURVE",
"368 -120 OFFCURVE",
"364 -77 CURVE SMOOTH",
"358 -10 LINE",
"505 7 OFFCURVE",
"608 123 OFFCURVE",
"608 315 CURVE SMOOTH",
"608 523 OFFCURVE",
"487 642 OFFCURVE",
"321 642 CURVE SMOOTH",
"156 642 OFFCURVE",
"35 523 OFFCURVE",
"35 315 CURVE SMOOTH"
);
},
{
closed = 1;
nodes = (
"120 507 OFFCURVE",
"211 616 OFFCURVE",
"321 616 CURVE SMOOTH",
"431 616 OFFCURVE",
"523 507 OFFCURVE",
"523 315 CURVE SMOOTH",
"523 123 OFFCURVE",
"431 14 OFFCURVE",
"321 14 CURVE SMOOTH",
"211 14 OFFCURVE",
"120 123 OFFCURVE",
"120 315 CURVE SMOOTH"
);
}
);
width = 643;
}
);
leftKerningGroup = O;
leftMetricsKey = O;
rightKerningGroup = O;
rightMetricsKey = O;
unicode = 0051;
},
{
glyphname = R;
layers = (
{
anchors = (
{
name = bottom;
position = "{265, 0}";
},
{
name = top;
position = "{265, 630}";
}
);
hints = (
{
place = "{96, 82}";
},
{
place = "{375, 76}";
},
{
place = "{406, 80}";
},
{
horizontal = 1;
place = "{-12, 30}";
},
{
horizontal = 1;
place = "{0, 18}";
},
{
horizontal = 1;
place = "{291, 29}";
},
{
horizontal = 1;
place = "{602, 28}";
}
);
layerId = UUID0;
paths = (
{
closed = 1;
nodes = (
"451 176 OFFCURVE",
"445 264 OFFCURVE",
"346 298 CURVE",
"426 318 OFFCURVE",
"486 375 OFFCURVE",
"486 461 CURVE SMOOTH",
"486 567 OFFCURVE",
"392 630 OFFCURVE",
"284 630 CURVE SMOOTH",
"35 630 LINE",
"35 612 LINE",
"82 612 LINE SMOOTH",
"89 612 OFFCURVE",
"96 607 OFFCURVE",
"96 600 CURVE",
"96 32 LINE SMOOTH",
"96 24 OFFCURVE",
"90 18 OFFCURVE",
"82 18 CURVE SMOOTH",
"35 18 LINE",
"35 0 LINE",
"259 0 LINE",
"259 18 LINE",
"192 18 LINE SMOOTH",
"184 18 OFFCURVE",
"178 24 OFFCURVE",
"178 32 CURVE SMOOTH",
"178 291 LINE",
"243 291 LINE SMOOTH",
"357 291 OFFCURVE",
"375 214 OFFCURVE",
"375 91 CURVE SMOOTH",
"375 12 OFFCURVE",
"415 -12 OFFCURVE",
"460 -12 CURVE SMOOTH",
"505 -12 OFFCURVE",
"537 17 OFFCURVE",
"537 66 CURVE SMOOTH",
"537 77 OFFCURVE",
"536 88 OFFCURVE",
"533 99 CURVE",
"514 96 LINE",
"516 86 OFFCURVE",
"517 77 OFFCURVE",
"517 68 CURVE SMOOTH",
"517 39 OFFCURVE",
"503 21 OFFCURVE",
"483 21 CURVE SMOOTH",
"463 21 OFFCURVE",
"451 42 OFFCURVE",
"451 91 CURVE SMOOTH"
);
},
{
closed = 1;
nodes = (
"279 602 LINE SMOOTH",
"363 602 OFFCURVE",
"406 532 OFFCURVE",
"406 461 CURVE SMOOTH",
"406 391 OFFCURVE",
"363 320 OFFCURVE",
"279 320 CURVE SMOOTH",
"178 320 LINE",
"178 602 LINE"
);
}
);
width = 530;
}
);
leftKerningGroup = H;
rightKerningGroup = R;
unicode = 0052;
},
{
glyphname = S;
layers = (
{
anchors = (
{
name = bottom;
position = "{249, 0}";
},
{
name = top;
position = "{249, 630}";
}
);
hints = (
{
horizontal = 1;
origin = "{0, 51}";
target = "{0, 38}";
},
{
horizontal = 1;
origin = "{0, 25}";
target = "{0, 12}";
},
{
horizontal = 1;
origin = "{0, 18}";
target = down;
type = TopGhost;
},
{
place = "{400.5, 19.5}";
},
{
origin = "{0, 28}";
target = "{0, 9}";
},
{
origin = "{0, 35}";
target = "{0, 2}";
}
);
layerId = UUID0;
paths = (
{
closed = 1;
nodes = (
"380 -12 OFFCURVE",
"457 74 OFFCURVE",
"457 163 CURVE SMOOTH",
"457 226 OFFCURVE",
"419 290 OFFCURVE",
"336 327 CURVE SMOOTH",
"216 380 LINE SMOOTH",
"155 407 OFFCURVE",
"127 455 OFFCURVE",
"127 503 CURVE SMOOTH",
"127 559 OFFCURVE",
"169 613 OFFCURVE",
"249 613 CURVE SMOOTH",
"325 613 OFFCURVE",
"391 572 OFFCURVE",
"402 463 CURVE",
"420 463 LINE",
"420 636 LINE",
"401 636 LINE",
"400 616 LINE SMOOTH",
"399 601 OFFCURVE",
"394 595 OFFCURVE",
"386 595 CURVE SMOOTH",
"366 595 OFFCURVE",
"325 642 OFFCURVE",
"249 642 CURVE SMOOTH",
"119 642 OFFCURVE",
"59 553 OFFCURVE",
"59 464 CURVE SMOOTH",
"59 403 OFFCURVE",
"92 342 OFFCURVE",
"167 309 CURVE SMOOTH",
"286 256 LINE SMOOTH",
"349 228 OFFCURVE",
"376 182 OFFCURVE",
"376 138 CURVE SMOOTH",
"376 77 OFFCURVE",
"332 17 OFFCURVE",
"246 17 CURVE SMOOTH",
"158 17 OFFCURVE",
"81 58 OFFCURVE",
"68 167 CURVE",
"50 167 LINE",
"50 0 LINE",
"69 0 LINE",
"70 14 LINE SMOOTH",
"71 29 OFFCURVE",
"77 35 OFFCURVE",
"86 35 CURVE SMOOTH",
"110 35 OFFCURVE",
"154 -12 OFFCURVE",
"248 -12 CURVE SMOOTH"
);
}
);
width = 497;
}
);
leftKerningGroup = S;
leftMetricsKey = "=H*1.43";
rightKerningGroup = S;
rightMetricsKey = "=H*1.15";
unicode = 0053;
},
{
glyphname = Germandbls;
layers = (
{
hints = (
{
horizontal = 1;
origin = "{0, 14}";
target = "{0, 60}";
},
{
horizontal = 1;
origin = "{0, 30}";
target = "{0, 44}";
},
{
horizontal = 1;
origin = "{0, 39}";
target = "{0, 38}";
},
{
origin = "{0, 33}";
target = "{0, 40}";
},
{
origin = "{0, 11}";
target = "{0, 2}";
},
{
origin = "{0, 57}";
target = "{0, 17}";
},
{
origin = "{0, 50}";
target = "{0, 24}";
},
{
origin = "{0, 47}";
target = "{0, 27}";
}
);
layerId = UUID0;
paths = (
{
closed = 1;
nodes = (
"334 12 OFFCURVE",
"307 38 OFFCURVE",
"307 80 CURVE SMOOTH",
"307 97 OFFCURVE",
"312 119 OFFCURVE",
"321 139 CURVE",
"312 148 OFFCURVE",
"295 154 OFFCURVE",
"280 154 CURVE SMOOTH",
"255 154 OFFCURVE",
"241 135 OFFCURVE",
"241 100 CURVE SMOOTH",
"241 32 OFFCURVE",
"295 -12 OFFCURVE",
"378 -12 CURVE SMOOTH",
"467 -12 OFFCURVE",
"536 49 OFFCURVE",
"536 127 CURVE SMOOTH",
"536 171 OFFCURVE",
"512 207 OFFCURVE",
"460 241 CURVE SMOOTH",
"397 283 LINE SMOOTH",
"362 306 OFFCURVE",
"344 329 OFFCURVE",
"344 349 CURVE SMOOTH",
"344 408 OFFCURVE",
"474 436 OFFCURVE",
"474 529 CURVE SMOOTH",
"474 600 OFFCURVE",
"399 642 OFFCURVE",
"315 642 CURVE SMOOTH",
"213 642 OFFCURVE",
"97 575 OFFCURVE",
"97 414 CURVE SMOOTH",
"96 32 LINE SMOOTH",
"96 24 OFFCURVE",
"89 18 OFFCURVE",
"82 18 CURVE SMOOTH",
"35 18 LINE",
"35 0 LINE",
"178 0 LINE",
"178 477 LINE SMOOTH",
"178 571 OFFCURVE",
"240 618 OFFCURVE",
"302 618 CURVE SMOOTH",
"351 618 OFFCURVE",
"403 588 OFFCURVE",
"403 518 CURVE SMOOTH",
"403 414 OFFCURVE",
"286 400 OFFCURVE",
"286 310 CURVE SMOOTH",
"286 270 OFFCURVE",
"309 250 OFFCURVE",
"339 230 CURVE SMOOTH",
"420 176 LINE SMOOTH",
"446 159 OFFCURVE",
"477 137 OFFCURVE",
"477 99 CURVE SMOOTH",
"477 55 OFFCURVE",
"436 12 OFFCURVE",
"377 12 CURVE SMOOTH"
);
}
);
width = 561;
}
);
leftKerningGroup = Germandbls;
leftMetricsKey = H;
rightKerningGroup = Germandbls;
rightMetricsKey = "=H*.7";
unicode = 1E9E;
},
{
glyphname = Schwa;
layers = (
{
hints = (
{
horizontal = 1;
origin = "{0, 18}";
target = "{0, 2}";
},
{
horizontal = 1;
origin = "{0, 9}";
target = "{0, 12}";
},
{
horizontal = 1;
origin = "{0, 24}";
target = "{0, 31}";
},
{
origin = "{0, 15}";
target = "{0, 5}";
},
{
origin = "{0, 34}";
target = "{0, 21}";
}
);
layerId = UUID0;
paths = (
{
closed = 1;
nodes = (
"469 130 OFFCURVE",
"395 14 OFFCURVE",
"274 14 CURVE SMOOTH",
"171 14 OFFCURVE",
"113 93 OFFCURVE",
"113 235 CURVE SMOOTH",
"113 255 OFFCURVE",
"115 277 OFFCURVE",
"119 300 CURVE",
"103 281 LINE",
"500 281 LINE",
"500 309 LINE",
"38 309 LINE",
"36 291 OFFCURVE",
"35 278 OFFCURVE",
"35 266 CURVE SMOOTH",
"35 90 OFFCURVE",
"120 -12 OFFCURVE",
"271 -12 CURVE SMOOTH",
"437 -12 OFFCURVE",
"554 123 OFFCURVE",
"554 316 CURVE SMOOTH",
"554 508 OFFCURVE",
"437 642 OFFCURVE",
"272 642 CURVE SMOOTH",
"151 642 OFFCURVE",
"64 559 OFFCURVE",
"39 416 CURVE",
"58 412 LINE",
"82 535 OFFCURVE",
"162 616 OFFCURVE",
"262 616 CURVE SMOOTH",
"392 616 OFFCURVE",
"469 505 OFFCURVE",
"469 314 CURVE SMOOTH"
);
}
);
width = 589;
}
);
leftKerningGroup = O;
leftMetricsKey = O;
rightKerningGroup = O;
rightMetricsKey = O;
unicode = 018F;
},
{
glyphname = T;
layers = (
{
anchors = (
{
name = bottom;
position = "{250, 0}";
},
{
name = center;
position = "{250, 320}";
},
{
name = top;
position = "{250, 630}";
}
);
hints = (
{
place = "{209, 82}";
},
{
place = "{14, 23}";
},
{
place = "{463, 23}";
},
{
horizontal = 1;
place = "{0, 18}";
},
{
horizontal = 1;
place = "{602, 28}";
},
{
horizontal = 1;
place = "{639, -20}";
target = down;
type = TopGhost;
}
);
layerId = UUID0;
paths = (
{
closed = 1;
nodes = (
"291 602 LINE",
"420 602 LINE SMOOTH",
"436 602 OFFCURVE",
"446 598 OFFCURVE",
"448 580 CURVE SMOOTH",
"463 463 LINE",
"486 463 LINE",
"486 510 LINE SMOOTH",
"486 565 OFFCURVE",
"491 621 OFFCURVE",
"495 639 CURVE",
"477 634 OFFCURVE",
"440 630 OFFCURVE",
"384 630 CURVE SMOOTH",
"116 630 LINE SMOOTH",
"60 630 OFFCURVE",
"23 634 OFFCURVE",
"5 639 CURVE",
"9 621 OFFCURVE",
"14 565 OFFCURVE",
"14 510 CURVE SMOOTH",
"14 463 LINE",
"37 463 LINE",
"52 580 LINE SMOOTH",
"54 598 OFFCURVE",
"64 602 OFFCURVE",
"80 602 CURVE SMOOTH",
"209 602 LINE",
"209 30 LINE SMOOTH",
"209 23 OFFCURVE",
"202 18 OFFCURVE",
"195 18 CURVE SMOOTH",
"108 18 LINE",
"108 0 LINE",
"392 0 LINE",
"392 18 LINE",
"305 18 LINE SMOOTH",
"298 18 OFFCURVE",
"291 23 OFFCURVE",
"291 30 CURVE SMOOTH"
);
}
);
width = 500;
}
);
leftKerningGroup = T;
rightKerningGroup = T;
unicode = 0054;
},
{
glyphname = U;
layers = (
{
anchors = (
{
name = bottom;
position = "{332, 0}";
},
{
name = ogonek;
position = "{389, 0}";
},
{
name = top;
position = "{322, 630}";
},
{
name = topright;
position = "{589, 612}";
}
);
hints = (
{
place = "{86, 82}";
},
{
place = "{494, 34}";
},
{
horizontal = 1;
place = "{-12, 35}";
},
{
horizontal = 1;
place = "{612, 18}";
}
);
layerId = UUID0;
paths = (
{
closed = 1;
nodes = (
"589 630 LINE",
"433 630 LINE",
"433 612 LINE",
"480 612 LINE SMOOTH",
"487 612 OFFCURVE",
"494 607 OFFCURVE",
"494 600 CURVE SMOOTH",
"494 195 LINE SMOOTH",
"494 64 OFFCURVE",
"407 23 OFFCURVE",
"317 23 CURVE SMOOTH",
"235 23 OFFCURVE",
"168 70 OFFCURVE",
"168 188 CURVE SMOOTH",
"168 600 LINE SMOOTH",
"168 607 OFFCURVE",
"175 612 OFFCURVE",
"182 612 CURVE SMOOTH",
"229 612 LINE",
"229 630 LINE",
"25 630 LINE",
"25 612 LINE",
"72 612 LINE SMOOTH",
"79 612 OFFCURVE",
"86 607 OFFCURVE",
"86 600 CURVE SMOOTH",
"86 195 LINE SMOOTH",
"86 51 OFFCURVE",
"179 -12 OFFCURVE",
"307 -12 CURVE SMOOTH",
"435 -12 OFFCURVE",
"528 51 OFFCURVE",
"528 195 CURVE SMOOTH",
"528 600 LINE SMOOTH",
"528 607 OFFCURVE",
"535 612 OFFCURVE",
"542 612 CURVE SMOOTH",
"589 612 LINE"
);
}
);
width = 610;
}
);
leftKerningGroup = U;
leftMetricsKey = "=H*.71";
rightKerningGroup = U;
rightMetricsKey = "=H*.6";
unicode = 0055;
},
{
glyphname = V;
layers = (
{
anchors = (
{
name = bottom;
position = "{283, 0}";
},
{
name = top;
position = "{283, 630}";
}
);
hints = (
{
horizontal = 1;
place = "{612, 18}";
},
{
horizontal = 1;
place = "{0, 21}";
target = up;
type = BottomGhost;
}
);
layerId = UUID0;
paths = (
{
closed = 1;
nodes = (
"5 630 LINE",
"5 612 LINE",
"42 612 LINE SMOOTH",
"53 612 OFFCURVE",
"58 606 OFFCURVE",
"61 598 CURVE SMOOTH",
"266 0 LINE",
"300 0 LINE",
"505 598 LINE SMOOTH",
"508 606 OFFCURVE",
"513 612 OFFCURVE",
"524 612 CURVE SMOOTH",
"561 612 LINE",
"561 630 LINE",
"425 630 LINE",
"425 612 LINE",
"475 612 LINE",
"308 124 LINE",
"145 612 LINE",
"195 612 LINE",
"195 630 LINE"
);
}
);
width = 566;
}
);
leftKerningGroup = V;
rightKerningGroup = V;
unicode = 0056;
},
{
glyphname = W;
layers = (
{
anchors = (
{
name = bottom;
position = "{443, 0}";
},
{
name = top;
position = "{443, 630}";
}
);
hints = (
{
horizontal = 1;
place = "{612, 18}";
},
{
horizontal = 1;
place = "{0, 21}";
target = up;
type = BottomGhost;
}
);
layerId = UUID0;
paths = (
{
closed = 1;
nodes = (
"744 630 LINE",
"744 612 LINE",
"794 612 LINE",
"645 132 LINE",
"494 612 LINE",
"544 612 LINE",
"544 630 LINE",
"354 630 LINE",
"354 612 LINE",
"391 612 LINE",
"402 612 OFFCURVE",
"407 606 OFFCURVE",
"410 598 CURVE SMOOTH",
"425 551 LINE",
"288 129 LINE",
"145 612 LINE",
"195 612 LINE",
"195 630 LINE",
"5 630 LINE",
"5 612 LINE",
"42 612 LINE SMOOTH",
"53 612 OFFCURVE",
"58 606 OFFCURVE",
"61 598 CURVE SMOOTH",
"246 0 LINE",
"280 0 LINE",
"442 498 LINE",
"605 0 LINE",
"639 0 LINE",
"824 598 LINE SMOOTH",
"827 606 OFFCURVE",
"832 612 OFFCURVE",
"843 612 CURVE SMOOTH",
"880 612 LINE",
"880 630 LINE"
);
}
);
width = 885;
}
);
leftKerningGroup = V;
rightKerningGroup = V;
unicode = 0057;
},
{
glyphname = X;
layers = (
{
anchors = (
{
name = bottom;
position = "{268, 0}";
},
{
name = top;
position = "{268, 630}";
}
);
hints = (
{
horizontal = 1;
place = "{0, 18}";
},
{
horizontal = 1;
place = "{612, 18}";
}
);
layerId = UUID0;
paths = (
{
closed = 1;
nodes = (
"154 612 LINE",
"204 612 LINE",
"204 630 LINE",
"10 630 LINE",
"10 612 LINE",
"47 612 LINE SMOOTH",
"56 612 OFFCURVE",
"61 608 OFFCURVE",
"66 598 CURVE SMOOTH",
"231 303 LINE",
"56 32 LINE SMOOTH",
"48 20 OFFCURVE",
"43 18 OFFCURVE",
"34 18 CURVE SMOOTH",
"0 18 LINE",
"0 0 LINE",
"137 0 LINE",
"137 18 LINE",
"87 18 LINE",
"249 271 LINE",
"391 18 LINE",
"341 18 LINE",
"341 0 LINE",
"535 0 LINE",
"535 18 LINE",
"498 18 LINE SMOOTH",
"489 18 OFFCURVE",
"484 22 OFFCURVE",
"479 32 CURVE SMOOTH",
"305 342 LINE",
"470 598 LINE SMOOTH",
"478 610 OFFCURVE",
"483 612 OFFCURVE",
"492 612 CURVE SMOOTH",
"526 612 LINE",
"526 630 LINE",
"389 630 LINE",
"389 612 LINE",
"439 612 LINE",
"287 374 LINE"
);
}
);
width = 535;
}
);
leftKerningGroup = X;
rightKerningGroup = X;
unicode = 0058;
},
{
glyphname = Y;
layers = (
{
anchors = (
{
name = bottom;
position = "{272, 0}";
},
{
name = top;
position = "{284, 630}";
},
{
name = topleft;
position = "{20, 630}";
}
);
hints = (
{
place = "{231, 82}";
},
{
horizontal = 1;
place = "{0, 18}";
},
{
horizontal = 1;
place = "{612, 18}";
}
);
layerId = UUID0;
paths = (
{
closed = 1;
nodes = (
"386 630 LINE",
"386 612 LINE",
"436 612 LINE",
"299 280 LINE",
"146 612 LINE",
"196 612 LINE",
"196 630 LINE",
"5 630 LINE",
"5 612 LINE",
"42 612 LINE SMOOTH",
"51 612 OFFCURVE",
"56 608 OFFCURVE",
"61 598 CURVE SMOOTH",
"231 230 LINE",
"231 32 LINE SMOOTH",
"231 24 OFFCURVE",
"225 18 OFFCURVE",
"217 18 CURVE SMOOTH",
"145 18 LINE",
"145 0 LINE",
"399 0 LINE",
"399 18 LINE",
"327 18 LINE SMOOTH",
"319 18 OFFCURVE",
"313 24 OFFCURVE",
"313 32 CURVE SMOOTH",
"313 229 LINE",
"466 598 LINE SMOOTH",
"470 608 OFFCURVE",
"476 612 OFFCURVE",
"485 612 CURVE SMOOTH",
"522 612 LINE",
"522 630 LINE"
);
}
);
width = 527;
}
);
leftKerningGroup = V;
rightKerningGroup = V;
unicode = 0059;
},
{
glyphname = Z;
layers = (
{
anchors = (
{
name = bottom;
position = "{258, 0}";
},
{
name = top;
position = "{273, 630}";
}
);
hints = (
{
place = "{60, 23}";
},
{
place = "{453, 23}";
},
{
horizontal = 1;
place = "{0, 28}";
},
{
horizontal = 1;
place = "{602, 28}";
},
{
horizontal = 1;
place = "{-9, 21}";
target = up;
type = BottomGhost;
},
{
horizontal = 1;
place = "{639, -20}";
target = down;
type = TopGhost;
}
);
layerId = UUID0;
paths = (
{
closed = 1;
nodes = (
"30 0 LINE",
"374 0 LINE SMOOTH",
"430 0 OFFCURVE",
"467 -4 OFFCURVE",
"485 -9 CURVE",
"481 9 OFFCURVE",
"476 65 OFFCURVE",
"476 120 CURVE SMOOTH",
"476 167 LINE",
"453 167 LINE",
"438 50 LINE SMOOTH",
"436 32 OFFCURVE",
"426 28 OFFCURVE",
"410 28 CURVE SMOOTH",
"126 28 LINE",
"485 602 LINE",
"485 630 LINE",
"162 630 LINE SMOOTH",
"106 630 OFFCURVE",
"69 634 OFFCURVE",
"51 639 CURVE",
"55 621 OFFCURVE",
"60 565 OFFCURVE",
"60 510 CURVE SMOOTH",
"60 463 LINE",
"83 463 LINE",
"98 580 LINE SMOOTH",
"100 598 OFFCURVE",
"110 602 OFFCURVE",
"126 602 CURVE SMOOTH",
"388 602 LINE",
"30 28 LINE"
);
}
);
width = 515;
}
);
leftKerningGroup = Z;
rightKerningGroup = Z;
unicode = 005A;
},
{
glyphname = U.horn;
layers = (
{
anchors = (
{
name = bottom;
position = "{332, 0}";
},
{
name = ogonek;
position = "{389, 0}";
},
{
name = top;
position = "{322, 630}";
},
{
name = topright;
position = "{528, 612}";
}
);
hints = (
{
place = "{86, 82}";
},
{
place = "{494, 34}";
},
{
horizontal = 1;
place = "{-12, 35}";
},
{
horizontal = 1;
place = "{612, 18}";
}
);
layerId = UUID0;
paths = (
{
closed = 1;
nodes = (
"433 630 LINE",
"433 612 LINE",
"480 612 LINE SMOOTH",
"487 612 OFFCURVE",
"494 607 OFFCURVE",
"494 600 CURVE SMOOTH",
"494 195 LINE SMOOTH",
"494 64 OFFCURVE",
"407 23 OFFCURVE",
"317 23 CURVE SMOOTH",
"235 23 OFFCURVE",
"168 70 OFFCURVE",
"168 188 CURVE SMOOTH",
"168 600 LINE SMOOTH",
"168 607 OFFCURVE",
"175 612 OFFCURVE",
"182 612 CURVE SMOOTH",
"229 612 LINE",
"229 630 LINE",
"25 630 LINE",
"25 612 LINE",
"72 612 LINE SMOOTH",
"79 612 OFFCURVE",
"86 607 OFFCURVE",
"86 600 CURVE SMOOTH",
"86 195 LINE SMOOTH",
"86 51 OFFCURVE",
"179 -12 OFFCURVE",
"307 -12 CURVE SMOOTH",
"435 -12 OFFCURVE",
"528 51 OFFCURVE",
"528 195 CURVE SMOOTH",
"528 630 LINE"
);
}
);
width = 604;
}
);
leftKerningGroup = U;
rightKerningGroup = U;
},
{
glyphname = a;
layers = (
{
anchors = (
{
name = bottom;
position = "{230, 0}";
},
{
name = ogonek;
position = "{394, -8}";
},
{
name = top;
position = "{225, 432}";
}
);
background = {
paths = (
{
closed = 1;
nodes = (
"270 420 OFFCURVE",
"287 371 OFFCURVE",
"287 303 CURVE SMOOTH",
"287 245 OFFCURVE",
"287 241 OFFCURVE",
"286 224 CURVE",
"277 226 OFFCURVE",
"253 229 OFFCURVE",
"222 229 CURVE SMOOTH",
"97 229 OFFCURVE",
"40 161 OFFCURVE",
"40 97 CURVE SMOOTH",
"40 35 OFFCURVE",
"79 -12 OFFCURVE",
"153 -12 CURVE SMOOTH",
"204 -12 OFFCURVE",
"263 22 OFFCURVE",
"287 120 CURVE",
"287 102 LINE SMOOTH",
"287 22 OFFCURVE",
"321 -12 OFFCURVE",
"367 -12 CURVE SMOOTH",
"411 -12 OFFCURVE",
"444 17 OFFCURVE",
"444 66 CURVE SMOOTH",
"444 77 OFFCURVE",
"443 88 OFFCURVE",
"440 99 CURVE",
"421 96 LINE",
"423 86 OFFCURVE",
"424 77 OFFCURVE",
"424 68 CURVE SMOOTH",
"424 39 OFFCURVE",
"406 21 OFFCURVE",
"389 21 CURVE SMOOTH",
"374 21 OFFCURVE",
"359 30 OFFCURVE",
"359 75 CURVE SMOOTH",
"359 280 LINE SMOOTH",
"359 382 OFFCURVE",
"316 444 OFFCURVE",
"220 444 CURVE SMOOTH",
"122 444 OFFCURVE",
"72 391 OFFCURVE",
"72 321 CURVE SMOOTH",
"72 297 OFFCURVE",
"82 278 OFFCURVE",
"103 278 CURVE SMOOTH",
"111 278 OFFCURVE",
"120 279 OFFCURVE",
"128 282 CURVE SMOOTH",
"136 284 OFFCURVE",
"143 288 OFFCURVE",
"149 293 CURVE",
"144 307 OFFCURVE",
"141 322 OFFCURVE",
"141 338 CURVE SMOOTH",
"141 387 OFFCURVE",
"166 420 OFFCURVE",
"211 420 CURVE SMOOTH"
);
},
{
closed = 1;
nodes = (
"132 26 OFFCURVE",
"108 59 OFFCURVE",
"108 97 CURVE SMOOTH",
"108 151 OFFCURVE",
"141 208 OFFCURVE",
"270 208 CURVE SMOOTH",
"273 208 OFFCURVE",
"275 208 OFFCURVE",
"285 207 CURVE",
"276 87 OFFCURVE",
"223 26 OFFCURVE",
"170 26 CURVE SMOOTH"
);
},
{
closed = 1;
nodes = (
"270 420 OFFCURVE",
"287 371 OFFCURVE",
"287 303 CURVE SMOOTH",
"287 245 OFFCURVE",
"287 241 OFFCURVE",
"286 224 CURVE",
"277 226 OFFCURVE",
"253 229 OFFCURVE",
"222 229 CURVE SMOOTH",
"97 229 OFFCURVE",
"40 161 OFFCURVE",
"40 97 CURVE SMOOTH",
"40 35 OFFCURVE",
"79 -12 OFFCURVE",
"153 -12 CURVE SMOOTH",
"204 -12 OFFCURVE",
"258 22 OFFCURVE",
"282 102 CURVE",
"287 102 LINE",
"287 22 OFFCURVE",
"321 -12 OFFCURVE",
"367 -12 CURVE SMOOTH",
"411 -12 OFFCURVE",
"444 17 OFFCURVE",
"444 66 CURVE SMOOTH",
"444 77 OFFCURVE",
"443 88 OFFCURVE",
"440 99 CURVE",
"421 96 LINE",
"423 86 OFFCURVE",
"424 77 OFFCURVE",
"424 68 CURVE SMOOTH",
"424 39 OFFCURVE",
"406 21 OFFCURVE",
"389 21 CURVE SMOOTH",
"374 21 OFFCURVE",
"359 30 OFFCURVE",
"359 75 CURVE SMOOTH",
"359 280 LINE SMOOTH",
"359 382 OFFCURVE",
"316 444 OFFCURVE",
"220 444 CURVE SMOOTH",
"122 444 OFFCURVE",
"72 391 OFFCURVE",
"72 321 CURVE SMOOTH",
"72 297 OFFCURVE",
"82 278 OFFCURVE",
"103 278 CURVE SMOOTH",
"111 278 OFFCURVE",
"120 279 OFFCURVE",
"128 282 CURVE SMOOTH",
"136 284 OFFCURVE",
"143 288 OFFCURVE",
"149 293 CURVE",
"144 307 OFFCURVE",
"141 322 OFFCURVE",
"141 338 CURVE SMOOTH",
"141 387 OFFCURVE",
"166 420 OFFCURVE",
"211 420 CURVE SMOOTH"
);
},
{
closed = 1;
nodes = (
"132 26 OFFCURVE",
"108 59 OFFCURVE",
"108 97 CURVE SMOOTH",
"108 151 OFFCURVE",
"141 208 OFFCURVE",
"270 208 CURVE SMOOTH",
"273 208 OFFCURVE",
"275 208 OFFCURVE",
"285 207 CURVE",
"276 87 OFFCURVE",
"223 26 OFFCURVE",
"170 26 CURVE SMOOTH"
);
}
);
};
hints = (
{
place = "{40, 68}";
},
{
place = "{72, 69}";
},
{
place = "{287, 72}";
},
{
horizontal = 1;
place = "{-12, 33}";
},
{
horizontal = 1;
place = "{208, 21}";
},
{
horizontal = 1;
place = "{420, 24}";
}
);
layerId = UUID0;
paths = (
{
closed = 1;
nodes = (
"262 420 OFFCURVE",
"287 381 OFFCURVE",
"287 303 CURVE SMOOTH",
"287 241 OFFCURVE",
"287 240 OFFCURVE",
"286 224 CURVE",
"275 227 OFFCURVE",
"246 229 OFFCURVE",
"222 229 CURVE SMOOTH",
"107 229 OFFCURVE",
"40 181 OFFCURVE",
"40 97 CURVE SMOOTH",
"40 31 OFFCURVE",
"82 -12 OFFCURVE",
"148 -12 CURVE SMOOTH",
"212 -12 OFFCURVE",
"260 29 OFFCURVE",
"282 102 CURVE",
"287 102 LINE",
"287 27 OFFCURVE",
"315 -12 OFFCURVE",
"367 -12 CURVE SMOOTH",
"414 -12 OFFCURVE",
"444 19 OFFCURVE",
"444 66 CURVE SMOOTH",
"444 76 OFFCURVE",
"442 89 OFFCURVE",
"440 99 CURVE",
"421 96 LINE",
"423 88 OFFCURVE",
"424 76 OFFCURVE",
"424 68 CURVE SMOOTH",
"424 41 OFFCURVE",
"409 21 OFFCURVE",
"389 21 CURVE SMOOTH",
"370 21 OFFCURVE",
"359 40 OFFCURVE",
"359 75 CURVE SMOOTH",
"359 280 LINE SMOOTH",
"359 389 OFFCURVE",
"313 444 OFFCURVE",
"220 444 CURVE SMOOTH",
"134 444 OFFCURVE",
"72 393 OFFCURVE",
"72 321 CURVE SMOOTH",
"72 292 OFFCURVE",
"84 278 OFFCURVE",
"108 278 CURVE SMOOTH",
"122 278 OFFCURVE",
"135 283 OFFCURVE",
"149 293 CURVE",
"143 309 OFFCURVE",
"141 323 OFFCURVE",
"141 338 CURVE SMOOTH",
"141 390 OFFCURVE",
"167 420 OFFCURVE",
"211 420 CURVE SMOOTH"
);
},
{
closed = 1;
nodes = (
"129 26 OFFCURVE",
"108 50 OFFCURVE",
"108 97 CURVE SMOOTH",
"108 168 OFFCURVE",
"166 208 OFFCURVE",
"270 208 CURVE SMOOTH",
"275 208 OFFCURVE",
"282 207 OFFCURVE",
"285 206 CURVE",
"276 89 OFFCURVE",
"236 26 OFFCURVE",
"170 26 CURVE SMOOTH"
);
}
);
width = 459;
}
);
leftKerningGroup = a;
rightKerningGroup = n;
unicode = 0061;
},
{
glyphname = ae;
layers = (
{
anchors = (
{
name = bottom;
position = "{342, 0}";
},
{
name = top;
position = "{342, 438}";
}
);
background = {
paths = (
{
closed = 1;
nodes = (
"97 225 OFFCURVE",
"40 161 OFFCURVE",
"40 97 CURVE SMOOTH",
"40 35 OFFCURVE",
"79 -12 OFFCURVE",
"153 -12 CURVE SMOOTH",
"206 -12 OFFCURVE",
"275 25 OFFCURVE",
"297 135 CURVE",
"323 40 OFFCURVE",
"396 -12 OFFCURVE",
"485 -12 CURVE SMOOTH",
"556 -12 OFFCURVE",
"622 31 OFFCURVE",
"639 116 CURVE",
"620 120 LINE",
"603 50 OFFCURVE",
"554 12 OFFCURVE",
"484 12 CURVE SMOOTH",
"413 12 OFFCURVE",
"359 86 OFFCURVE",
"359 211 CURVE",
"632 223 LINE",
"633 234 OFFCURVE",
"634 250 OFFCURVE",
"634 263 CURVE SMOOTH",
"634 385 OFFCURVE",
"574 444 OFFCURVE",
"485 444 CURVE SMOOTH",
"427 444 OFFCURVE",
"375 421 OFFCURVE",
"339 379 CURVE",
"318 420 OFFCURVE",
"279 444 OFFCURVE",
"220 444 CURVE SMOOTH",
"122 444 OFFCURVE",
"72 391 OFFCURVE",
"72 321 CURVE SMOOTH",
"72 297 OFFCURVE",
"82 278 OFFCURVE",
"103 278 CURVE SMOOTH",
"120 278 OFFCURVE",
"138 283 OFFCURVE",
"149 293 CURVE",
"144 307 OFFCURVE",
"141 322 OFFCURVE",
"141 338 CURVE SMOOTH",
"141 387 OFFCURVE",
"166 420 OFFCURVE",
"211 420 CURVE SMOOTH",
"226 420 OFFCURVE",
"238 417 OFFCURVE",
"248 411 CURVE SMOOTH",
"278 394 OFFCURVE",
"287 354 OFFCURVE",
"287 303 CURVE SMOOTH",
"287 231 LINE",
"265 230 OFFCURVE",
"244 230 OFFCURVE",
"222 229 CURVE SMOOTH"
);
},
{
closed = 1;
nodes = (
"359 233 LINE",
"363 343 OFFCURVE",
"409 420 OFFCURVE",
"478 420 CURVE SMOOTH",
"534 420 OFFCURVE",
"565 375 OFFCURVE",
"565 297 CURVE SMOOTH",
"565 280 OFFCURVE",
"563 257 OFFCURVE",
"560 240 CURVE"
);
},
{
closed = 1;
nodes = (
"132 26 OFFCURVE",
"108 59 OFFCURVE",
"108 97 CURVE SMOOTH",
"108 149 OFFCURVE",
"147 208 OFFCURVE",
"285 208 CURVE",
"276 88 OFFCURVE",
"223 26 OFFCURVE",
"170 26 CURVE SMOOTH"
);
}
);
};
hints = (
{
place = "{40, 68}";
},
{
place = "{72, 69}";
},
{
place = "{287, 72}";
},
{
place = "{565, 69}";
},
{
horizontal = 1;
place = "{-12, 24}";
},
{
horizontal = 1;
place = "{216, 15}";
},
{
horizontal = 1;
place = "{420, 24}";
},
{
horizontal = 1;
place = "{-12, 38}";
}
);
layerId = UUID0;
paths = (
{
closed = 1;
nodes = (
"427 444 OFFCURVE",
"375 421 OFFCURVE",
"339 379 CURVE",
"317 422 OFFCURVE",
"277 444 OFFCURVE",
"220 444 CURVE SMOOTH",
"129 444 OFFCURVE",
"72 397 OFFCURVE",
"72 321 CURVE SMOOTH",
"72 294 OFFCURVE",
"84 278 OFFCURVE",
"103 278 CURVE SMOOTH",
"121 278 OFFCURVE",
"139 284 OFFCURVE",
"149 293 CURVE",
"144 309 OFFCURVE",
"141 324 OFFCURVE",
"141 338 CURVE SMOOTH",
"141 389 OFFCURVE",
"168 420 OFFCURVE",
"211 420 CURVE SMOOTH",
"264 420 OFFCURVE",
"287 384 OFFCURVE",
"287 303 CURVE SMOOTH",
"287 231 LINE",
"114 223 OFFCURVE",
"40 183 OFFCURVE",
"40 97 CURVE SMOOTH",
"40 30 OFFCURVE",
"84 -12 OFFCURVE",
"153 -12 CURVE SMOOTH",
"222 -12 OFFCURVE",
"279 46 OFFCURVE",
"297 135 CURVE",
"322 43 OFFCURVE",
"393 -12 OFFCURVE",
"485 -12 CURVE SMOOTH",
"563 -12 OFFCURVE",
"623 38 OFFCURVE",
"639 116 CURVE",
"620 120 LINE",
"603 50 OFFCURVE",
"554 12 OFFCURVE",
"484 12 CURVE SMOOTH",
"409 12 OFFCURVE",
"359 92 OFFCURVE",
"359 211 CURVE",
"632 222 LINE",
"633 238 OFFCURVE",
"634 254 OFFCURVE",
"634 263 CURVE SMOOTH",
"634 378 OFFCURVE",
"580 444 OFFCURVE",
"485 444 CURVE SMOOTH"
);
},
{
closed = 1;
nodes = (
"277 100 OFFCURVE",
"230 26 OFFCURVE",
"170 26 CURVE SMOOTH",
"134 26 OFFCURVE",
"108 56 OFFCURVE",
"108 97 CURVE SMOOTH",
"108 161 OFFCURVE",
"170 200 OFFCURVE",
"285 208 CURVE"
);
},
{
closed = 1;
nodes = (
"534 420 OFFCURVE",
"565 376 OFFCURVE",
"565 297 CURVE SMOOTH",
"565 283 OFFCURVE",
"563 264 OFFCURVE",
"560 245 CURVE",
"359 234 LINE",
"363 346 OFFCURVE",
"411 420 OFFCURVE",
"478 420 CURVE SMOOTH"
);
}
);
width = 684;
}
);
leftKerningGroup = a;
rightKerningGroup = e;
unicode = 00E6;
},
{
glyphname = b;
layers = (
{
anchors = (
{
name = bottom;
position = "{248, 0}";
},
{
name = top;
position = "{248, 432}";
}
);
hints = (
{
place = "{86, 72}";
},
{
place = "{379, 76}";
},
{
horizontal = 1;
place = "{-12, 25}";
},
{
horizontal = 1;
place = "{406, 38}";
},
{
horizontal = 1;
place = "{630, 18}";
},
{
horizontal = 1;
place = "{-8, 21}";
target = up;
type = BottomGhost;
}
);
layerId = UUID0;
paths = (
{
closed = 1;
nodes = (
"377 -12 OFFCURVE",
"455 79 OFFCURVE",
"455 216 CURVE SMOOTH",
"455 347 OFFCURVE",
"388 444 OFFCURVE",
"296 444 CURVE SMOOTH",
"228 444 OFFCURVE",
"179 390 OFFCURVE",
"163 298 CURVE",
"158 298 LINE",
"158 654 LINE",
"145 651 OFFCURVE",
"107 648 OFFCURVE",
"74 648 CURVE SMOOTH",
"25 648 LINE",
"25 630 LINE",
"72 630 LINE SMOOTH",
"80 630 OFFCURVE",
"86 624 OFFCURVE",
"86 616 CURVE SMOOTH",
"86 -8 LINE",
"103 -8 LINE",
"111 54 LINE",
"150 10 OFFCURVE",
"200 -12 OFFCURVE",
"258 -12 CURVE SMOOTH"
);
},
{
closed = 1;
nodes = (
"340 406 OFFCURVE",
"379 330 OFFCURVE",
"379 216 CURVE SMOOTH",
"379 87 OFFCURVE",
"332 13 OFFCURVE",
"250 13 CURVE SMOOTH",
"219 13 OFFCURVE",
"184 23 OFFCURVE",
"158 41 CURVE",
"158 165 LINE SMOOTH",
"158 303 OFFCURVE",
"210 406 OFFCURVE",
"281 406 CURVE SMOOTH"
);
}
);
width = 495;
}
);
leftKerningGroup = h;
rightKerningGroup = o;
rightMetricsKey = o;
unicode = 0062;
},
{
glyphname = c;
layers = (
{
anchors = (
{
name = bottom;
position = "{211, 0}";
},
{
name = top;
position = "{231, 432}";
}
);
hints = (
{
place = "{40, 76}";
},
{
place = "{309, 71}";
},
{
horizontal = 1;
place = "{-12, 24}";
},
{
horizontal = 1;
place = "{420, 24}";
}
);
layerId = UUID0;
paths = (
{
closed = 1;
nodes = (
"289 420 OFFCURVE",
"309 385 OFFCURVE",
"309 344 CURVE SMOOTH",
"309 324 OFFCURVE",
"304 301 OFFCURVE",
"295 282 CURVE",
"306 272 OFFCURVE",
"325 266 OFFCURVE",
"343 266 CURVE SMOOTH",
"374 266 OFFCURVE",
"380 302 OFFCURVE",
"380 332 CURVE SMOOTH",
"380 396 OFFCURVE",
"338 444 OFFCURVE",
"244 444 CURVE SMOOTH",
"131 444 OFFCURVE",
"40 361 OFFCURVE",
"40 216 CURVE SMOOTH",
"40 71 OFFCURVE",
"130 -12 OFFCURVE",
"242 -12 CURVE SMOOTH",
"313 -12 OFFCURVE",
"379 31 OFFCURVE",
"396 116 CURVE",
"377 120 LINE",
"360 50 OFFCURVE",
"311 12 OFFCURVE",
"241 12 CURVE SMOOTH",
"168 12 OFFCURVE",
"116 87 OFFCURVE",
"116 216 CURVE SMOOTH",
"116 345 OFFCURVE",
"169 420 OFFCURVE",
"244 420 CURVE SMOOTH"
);
}
);
width = 421;
}
);
leftKerningGroup = o;
rightKerningGroup = c;
unicode = 0063;
},
{
glyphname = d;
layers = (
{
anchors = (
{
name = bottom;
position = "{250, 0}";
},
{
name = center;
position = "{337, 550}";
},
{
name = top;
position = "{373, 432}";
},
{
name = topright;
position = "{469, 432}";
}
);
hints = (
{
place = "{40, 76}";
},
{
place = "{337, 72}";
},
{
horizontal = 1;
place = "{-12, 38}";
},
{
horizontal = 1;
place = "{0, 26}";
},
{
horizontal = 1;
place = "{414, 30}";
},
{
horizontal = 1;
place = "{630, 18}";
}
);
layerId = UUID0;
paths = (
{
closed = 1;
nodes = (
"337 -6 LINE",
"350 -3 OFFCURVE",
"388 0 OFFCURVE",
"421 0 CURVE SMOOTH",
"470 0 LINE",
"470 18 LINE",
"423 18 LINE SMOOTH",
"415 18 OFFCURVE",
"409 24 OFFCURVE",
"409 32 CURVE SMOOTH",
"409 654 LINE",
"396 651 OFFCURVE",
"358 648 OFFCURVE",
"325 648 CURVE SMOOTH",
"276 648 LINE",
"276 630 LINE",
"323 630 LINE SMOOTH",
"331 630 OFFCURVE",
"337 624 OFFCURVE",
"337 616 CURVE SMOOTH",
"337 417 LINE",
"307 435 OFFCURVE",
"273 444 OFFCURVE",
"237 444 CURVE SMOOTH",
"113 444 OFFCURVE",
"40 359 OFFCURVE",
"40 216 CURVE SMOOTH",
"40 78 OFFCURVE",
"97 -12 OFFCURVE",
"185 -12 CURVE SMOOTH",
"245 -12 OFFCURVE",
"285 13 OFFCURVE",
"332 80 CURVE",
"337 80 LINE"
);
},
{
closed = 1;
nodes = (
"116 342 OFFCURVE",
"163 414 OFFCURVE",
"245 414 CURVE SMOOTH",
"274 414 OFFCURVE",
"307 404 OFFCURVE",
"337 386 CURVE",
"337 117 LINE",
"303 58 OFFCURVE",
"262 26 OFFCURVE",
"220 26 CURVE SMOOTH",
"156 26 OFFCURVE",
"116 99 OFFCURVE",
"116 216 CURVE SMOOTH"
);
}
);
width = 500;
}
);
leftKerningGroup = o;
leftMetricsKey = o;
rightKerningGroup = l;
rightMetricsKey = l;
unicode = 0064;
},
{
glyphname = eth;
layers = (
{
background = {
paths = (
{
closed = 1;
nodes = (
"351 373 LINE",
"319 414 OFFCURVE",
"275 437 OFFCURVE",
"226 437 CURVE SMOOTH",
"120 437 OFFCURVE",
"40 339 OFFCURVE",
"40 210 CURVE SMOOTH",
"40 76 OFFCURVE",
"121 -12 OFFCURVE",
"244 -12 CURVE SMOOTH",
"369 -12 OFFCURVE",
"447 83 OFFCURVE",
"447 235 CURVE SMOOTH",
"447 424 OFFCURVE",
"323 592 OFFCURVE",
"132 660 CURVE",
"121 637 LINE",
"238 587 OFFCURVE",
"313 503 OFFCURVE",
"354 375 CURVE"
);
},
{
closed = 1;
nodes = (
"116 331 OFFCURVE",
"167 409 OFFCURVE",
"244 409 CURVE SMOOTH",
"322 409 OFFCURVE",
"374 330 OFFCURVE",
"374 213 CURVE SMOOTH",
"374 93 OFFCURVE",
"321 10 OFFCURVE",
"244 10 CURVE SMOOTH",
"168 10 OFFCURVE",
"116 93 OFFCURVE",
"116 213 CURVE SMOOTH"
);
},
{
closed = 1;
nodes = (
"388 598 LINE",
"370 633 LINE",
"151 521 LINE",
"169 486 LINE"
);
}
);
};
components = (
{
alignment = 1;
name = strokeshortcomb;
transform = "{0.86603, 0.5, -0.5, 0.86603, 304, 206}";
}
);
hints = (
{
place = "{40, 76}";
},
{
place = "{374, 73}";
},
{
horizontal = 1;
place = "{-12, 22}";
},
{
horizontal = 1;
place = "{409, 28}";
},
{
horizontal = 1;
place = "{660, -20}";
target = down;
type = TopGhost;
}
);
layerId = UUID0;
paths = (
{
closed = 1;
nodes = (
"351 373 LINE",
"319 414 OFFCURVE",
"275 437 OFFCURVE",
"226 437 CURVE SMOOTH",
"120 437 OFFCURVE",
"40 339 OFFCURVE",
"40 210 CURVE SMOOTH",
"40 76 OFFCURVE",
"121 -12 OFFCURVE",
"244 -12 CURVE SMOOTH",
"369 -12 OFFCURVE",
"447 83 OFFCURVE",
"447 235 CURVE SMOOTH",
"447 424 OFFCURVE",
"323 592 OFFCURVE",
"132 660 CURVE",
"121 637 LINE",
"238 587 OFFCURVE",
"313 503 OFFCURVE",
"354 375 CURVE"
);
},
{
closed = 1;
nodes = (
"116 331 OFFCURVE",
"167 409 OFFCURVE",
"244 409 CURVE SMOOTH",
"322 409 OFFCURVE",
"374 330 OFFCURVE",
"374 213 CURVE SMOOTH",
"374 93 OFFCURVE",
"321 10 OFFCURVE",
"244 10 CURVE SMOOTH",
"168 10 OFFCURVE",
"116 93 OFFCURVE",
"116 213 CURVE SMOOTH"
);
}
);
width = 485;
}
);
leftKerningGroup = c;
rightKerningGroup = eth;
unicode = 00F0;
},
{
glyphname = e;
layers = (
{
anchors = (
{
name = bottom;
position = "{221, 0}";
},
{
name = ogonek;
position = "{304, 0}";
},
{
name = top;
position = "{231, 432}";
}
);
background = {
paths = (
{
closed = 1;
nodes = (
"117 236 LINE",
"118 344 OFFCURVE",
"168 420 OFFCURVE",
"235 420 CURVE SMOOTH",
"291 420 OFFCURVE",
"322 376 OFFCURVE",
"322 297 CURVE SMOOTH",
"322 279 OFFCURVE",
"320 251 OFFCURVE",
"313 213 CURVE",
"350 243 LINE",
"112 243 LINE",
"111 223 LINE",
"389 223 LINE",
"390 236 OFFCURVE",
"391 252 OFFCURVE",
"391 263 CURVE SMOOTH",
"391 378 OFFCURVE",
"337 444 OFFCURVE",
"242 444 CURVE SMOOTH",
"122 444 OFFCURVE",
"40 351 OFFCURVE",
"40 216 CURVE SMOOTH",
"40 80 OFFCURVE",
"122 -12 OFFCURVE",
"242 -12 CURVE SMOOTH",
"320 -12 OFFCURVE",
"380 38 OFFCURVE",
"396 116 CURVE",
"377 120 LINE",
"360 51 OFFCURVE",
"312 12 OFFCURVE",
"241 12 CURVE SMOOTH",
"165 12 OFFCURVE",
"116 92 OFFCURVE",
"116 216 CURVE SMOOTH",
"116 228 LINE"
);
}
);
};
hints = (
{
place = "{40, 76}";
},
{
place = "{322, 69}";
},
{
horizontal = 1;
place = "{-12, 24}";
},
{
horizontal = 1;
place = "{223, 20}";
},
{
horizontal = 1;
place = "{420, 24}";
}
);
layerId = UUID0;
paths = (
{
closed = 1;
nodes = (
"116 342 OFFCURVE",
"162 420 OFFCURVE",
"236 420 CURVE SMOOTH",
"291 420 OFFCURVE",
"322 376 OFFCURVE",
"322 297 CURVE SMOOTH",
"322 277 OFFCURVE",
"320 255 OFFCURVE",
"316 232 CURVE",
"332 243 LINE",
"86 243 LINE",
"86 223 LINE",
"388 223 LINE",
"390 241 OFFCURVE",
"391 254 OFFCURVE",
"391 266 CURVE SMOOTH",
"391 379 OFFCURVE",
"336 444 OFFCURVE",
"239 444 CURVE SMOOTH",
"122 444 OFFCURVE",
"40 350 OFFCURVE",
"40 216 CURVE SMOOTH",
"40 82 OFFCURVE",
"122 -12 OFFCURVE",
"238 -12 CURVE SMOOTH",
"320 -12 OFFCURVE",
"379 35 OFFCURVE",
"396 116 CURVE",
"377 120 LINE",
"362 55 OFFCURVE",
"311 12 OFFCURVE",
"248 12 CURVE SMOOTH",
"165 12 OFFCURVE",
"116 88 OFFCURVE",
"116 218 CURVE SMOOTH"
);
}
);
width = 441;
}
);
leftKerningGroup = o;
leftMetricsKey = o;
rightKerningGroup = o;
rightMetricsKey = "=o*1.12";
unicode = 0065;
},
{
glyphname = f;
layers = (
{
anchors = (
{
name = bottom;
position = "{150, 0}";
},
{
name = top;
position = "{150, 432}";
}
);
hints = (
{
place = "{107, 71}";
},
{
place = "{274, 67}";
},
{
horizontal = 1;
place = "{0, 18}";
},
{
horizontal = 1;
place = "{414, 18}";
},
{
horizontal = 1;
place = "{637, 23}";
}
);
layerId = UUID0;
paths = (
{
closed = 1;
nodes = (
"178 552 LINE SMOOTH",
"178 611 OFFCURVE",
"201 637 OFFCURVE",
"233 637 CURVE SMOOTH",
"261 637 OFFCURVE",
"274 616 OFFCURVE",
"274 594 CURVE SMOOTH",
"274 575 OFFCURVE",
"268 553 OFFCURVE",
"259 535 CURVE",
"271 525 OFFCURVE",
"289 520 OFFCURVE",
"306 520 CURVE SMOOTH",
"330 520 OFFCURVE",
"341 545 OFFCURVE",
"341 574 CURVE SMOOTH",
"341 613 OFFCURVE",
"317 660 OFFCURVE",
"241 660 CURVE SMOOTH",
"176 660 OFFCURVE",
"116 596 OFFCURVE",
"107 432 CURVE",
"45 432 LINE",
"45 414 LINE",
"92 414 LINE SMOOTH",
"100 414 OFFCURVE",
"106 408 OFFCURVE",
"106 400 CURVE SMOOTH",
"106 32 LINE SMOOTH",
"106 24 OFFCURVE",
"100 18 OFFCURVE",
"92 18 CURVE SMOOTH",
"45 18 LINE",
"45 0 LINE",
"259 0 LINE",
"259 18 LINE",
"194 18 LINE SMOOTH",
"186 18 OFFCURVE",
"178 23 OFFCURVE",
"178 30 CURVE",
"178 414 LINE",
"278 414 LINE",
"278 432 LINE",
"178 432 LINE"
);
}
);
width = 299;
}
);
leftKerningGroup = f;
rightKerningGroup = f;
unicode = 0066;
},
{
glyphname = g;
layers = (
{
anchors = (
{
name = bottom;
position = "{227, -228}";
},
{
name = top;
position = "{227, 432}";
}
);
background = {
paths = (
{
closed = 1;
nodes = (
"79 163 OFFCURVE",
"40 131 OFFCURVE",
"40 73 CURVE SMOOTH",
"40 34 OFFCURVE",
"63 2 OFFCURVE",
"97 -8 CURVE",
"62 -39 OFFCURVE",
"42 -75 OFFCURVE",
"42 -111 CURVE SMOOTH",
"42 -179 OFFCURVE",
"110 -228 OFFCURVE",
"204 -228 CURVE SMOOTH",
"319 -228 OFFCURVE",
"424 -140 OFFCURVE",
"424 -43 CURVE SMOOTH",
"424 17 OFFCURVE",
"378 54 OFFCURVE",
"303 54 CURVE SMOOTH",
"136 54 LINE SMOOTH",
"106 54 OFFCURVE",
"84 74 OFFCURVE",
"84 101 CURVE SMOOTH",
"84 129 OFFCURVE",
"105 148 OFFCURVE",
"136 148 CURVE SMOOTH",
"225 148 LINE",
"225 163 LINE",
"151 163 LINE SMOOTH"
);
},
{
closed = 1;
nodes = (
"303 -12 LINE SMOOTH",
"351 -12 OFFCURVE",
"379 -33 OFFCURVE",
"379 -69 CURVE SMOOTH",
"379 -136 OFFCURVE",
"293 -204 OFFCURVE",
"208 -204 CURVE SMOOTH",
"140 -204 OFFCURVE",
"96 -163 OFFCURVE",
"96 -99 CURVE SMOOTH",
"96 -67 OFFCURVE",
"108 -35 OFFCURVE",
"128 -12 CURVE"
);
},
{
closed = 1;
nodes = (
"144 371 OFFCURVE",
"177 422 OFFCURVE",
"225 422 CURVE SMOOTH",
"274 422 OFFCURVE",
"307 371 OFFCURVE",
"307 296 CURVE SMOOTH",
"307 221 OFFCURVE",
"274 170 OFFCURVE",
"225 170 CURVE SMOOTH",
"177 170 OFFCURVE",
"144 221 OFFCURVE",
"144 296 CURVE SMOOTH"
);
},
{
closed = 1;
nodes = (
"323 396 LINE",
"325 439 OFFCURVE",
"348 473 OFFCURVE",
"375 473 CURVE SMOOTH",
"400 473 OFFCURVE",
"415 454 OFFCURVE",
"420 414 CURVE",
"425 412 OFFCURVE",
"432 410 OFFCURVE",
"437 410 CURVE SMOOTH",
"458 410 OFFCURVE",
"472 425 OFFCURVE",
"472 445 CURVE SMOOTH",
"472 478 OFFCURVE",
"435 508 OFFCURVE",
"394 508 CURVE SMOOTH",
"348 508 OFFCURVE",
"316 472 OFFCURVE",
"307 410 CURVE"
);
},
{
closed = 1;
nodes = (
"318 148 OFFCURVE",
"378 206 OFFCURVE",
"378 296 CURVE SMOOTH",
"378 385 OFFCURVE",
"317 444 OFFCURVE",
"225 444 CURVE SMOOTH",
"132 444 OFFCURVE",
"72 386 OFFCURVE",
"72 296 CURVE SMOOTH",
"72 207 OFFCURVE",
"133 148 OFFCURVE",
"225 148 CURVE SMOOTH"
);
}
);
};
hints = (
{
place = "{40, 44}";
},
{
place = "{73, 71}";
},
{
place = "{307, 71}";
},
{
place = "{379, 45}";
},
{
place = "{40, 56}";
},
{
horizontal = 1;
place = "{-228, 24}";
},
{
horizontal = 1;
place = "{148, 15}";
},
{
horizontal = 1;
place = "{422, 22}";
},
{
horizontal = 1;
place = "{483, 35}";
},
{
horizontal = 1;
place = "{-12, 21}";
target = up;
type = BottomGhost;
},
{
horizontal = 1;
place = "{54, -66}";
}
);
layerId = UUID0;
paths = (
{
closed = 1;
nodes = (
"144 371 OFFCURVE",
"177 422 OFFCURVE",
"225 422 CURVE SMOOTH",
"274 422 OFFCURVE",
"307 371 OFFCURVE",
"307 296 CURVE SMOOTH",
"307 221 OFFCURVE",
"274 170 OFFCURVE",
"225 170 CURVE SMOOTH",
"177 170 OFFCURVE",
"144 221 OFFCURVE",
"144 296 CURVE SMOOTH"
);
},
{
closed = 1;
nodes = (
"323 396 LINE",
"325 439 OFFCURVE",
"348 473 OFFCURVE",
"375 473 CURVE SMOOTH",
"400 473 OFFCURVE",
"415 454 OFFCURVE",
"420 414 CURVE",
"425 412 OFFCURVE",
"432 410 OFFCURVE",
"437 410 CURVE SMOOTH",
"458 410 OFFCURVE",
"472 425 OFFCURVE",
"472 445 CURVE SMOOTH",
"472 478 OFFCURVE",
"435 508 OFFCURVE",
"394 508 CURVE SMOOTH",
"348 508 OFFCURVE",
"316 472 OFFCURVE",
"307 410 CURVE"
);
},
{
closed = 1;
nodes = (
"318 148 OFFCURVE",
"378 206 OFFCURVE",
"378 296 CURVE SMOOTH",
"378 385 OFFCURVE",
"317 444 OFFCURVE",
"225 444 CURVE SMOOTH",
"132 444 OFFCURVE",
"72 386 OFFCURVE",
"72 296 CURVE SMOOTH",
"72 207 OFFCURVE",
"133 148 OFFCURVE",
"225 148 CURVE SMOOTH"
);
},
{
closed = 1;
nodes = (
"75 161 OFFCURVE",
"40 130 OFFCURVE",
"40 73 CURVE SMOOTH",
"40 34 OFFCURVE",
"63 2 OFFCURVE",
"97 -8 CURVE",
"62 -39 OFFCURVE",
"42 -75 OFFCURVE",
"42 -111 CURVE SMOOTH",
"42 -182.208 OFFCURVE",
"105.548 -228 OFFCURVE",
"204 -228 CURVE SMOOTH",
"327.457 -228 OFFCURVE",
"424 -147.088 OFFCURVE",
"424 -43 CURVE SMOOTH",
"424 17 OFFCURVE",
"378 54 OFFCURVE",
"303 54 CURVE SMOOTH",
"136 54 LINE SMOOTH",
"102 54 OFFCURVE",
"84 70 OFFCURVE",
"84 101 CURVE SMOOTH",
"84 132 OFFCURVE",
"106 148 OFFCURVE",
"146 148 CURVE SMOOTH",
"225 148 LINE",
"171 170 LINE",
"146 170 LINE",
"146 161 LINE",
"140 161 LINE SMOOTH"
);
},
{
closed = 1;
nodes = (
"303 -12 LINE SMOOTH",
"351 -12 OFFCURVE",
"379 -33 OFFCURVE",
"379 -69 CURVE SMOOTH",
"379 -140.264 OFFCURVE",
"298.393 -204 OFFCURVE",
"208 -204 CURVE SMOOTH",
"135.74 -204 OFFCURVE",
"96 -166.969 OFFCURVE",
"96 -99 CURVE SMOOTH",
"96 -67 OFFCURVE",
"108 -35 OFFCURVE",
"128 -12 CURVE"
);
}
);
width = 454;
}
);
leftKerningGroup = o;
rightKerningGroup = g;
unicode = 0067;
},
{
glyphname = h;
layers = (
{
anchors = (
{
name = bottom;
position = "{264, 0}";
},
{
name = center;
position = "{163, 550}";
},
{
name = top;
position = "{122, 630}";
}
);
background = {
paths = (
{
closed = 1;
nodes = (
"437 292 LINE SMOOTH",
"437 403 OFFCURVE",
"374 444 OFFCURVE",
"313 444 CURVE SMOOTH",
"253 444 OFFCURVE",
"190 415 OFFCURVE",
"163 302 CURVE",
"163 302 OFFCURVE",
"163 302 OFFCURVE",
"163 302 CURVE",
"163 654 LINE",
"151 651 OFFCURVE",
"115 648 OFFCURVE",
"79 648 CURVE SMOOTH",
"30 648 LINE",
"30 630 LINE",
"77 630 LINE SMOOTH",
"85 630 OFFCURVE",
"91 624 OFFCURVE",
"91 616 CURVE SMOOTH",
"91 30 LINE SMOOTH",
"91 23 OFFCURVE",
"84 18 OFFCURVE",
"77 18 CURVE SMOOTH",
"30 18 LINE",
"30 0 LINE",
"210 0 LINE",
"210 18 LINE",
"177 18 LINE SMOOTH",
"169 18 OFFCURVE",
"163 24 OFFCURVE",
"163 32 CURVE SMOOTH",
"163 167 LINE SMOOTH",
"163 327 OFFCURVE",
"217 405 OFFCURVE",
"283 405 CURVE SMOOTH",
"330 405 OFFCURVE",
"365 376 OFFCURVE",
"365 305 CURVE SMOOTH",
"365 30 LINE SMOOTH",
"365 23 OFFCURVE",
"358 18 OFFCURVE",
"351 18 CURVE SMOOTH",
"318 18 LINE",
"318 0 LINE",
"498 0 LINE",
"498 18 LINE",
"451 18 LINE SMOOTH",
"444 18 OFFCURVE",
"437 23 OFFCURVE",
"437 30 CURVE SMOOTH"
);
}
);
};
hints = (
{
place = "{91, 72}";
},
{
place = "{365, 72}";
},
{
horizontal = 1;
place = "{0, 18}";
},
{
horizontal = 1;
place = "{405, 39}";
},
{
horizontal = 1;
place = "{630, 18}";
}
);
layerId = UUID0;
paths = (
{
closed = 1;
nodes = (
"163 319 LINE",
"163 654 LINE",
"150 651 OFFCURVE",
"112 648 OFFCURVE",
"79 648 CURVE SMOOTH",
"30 648 LINE",
"30 630 LINE",
"77 630 LINE SMOOTH",
"85 630 OFFCURVE",
"91 624 OFFCURVE",
"91 616 CURVE SMOOTH",
"91 30 LINE SMOOTH",
"91 23 OFFCURVE",
"85 18 OFFCURVE",
"77 18 CURVE SMOOTH",
"30 18 LINE",
"30 0 LINE",
"210 0 LINE",
"210 18 LINE",
"177 18 LINE SMOOTH",
"169 18 OFFCURVE",
"163 24 OFFCURVE",
"163 32 CURVE SMOOTH",
"163 167 LINE SMOOTH",
"163 312 OFFCURVE",
"210 405 OFFCURVE",
"283 405 CURVE SMOOTH",
"336 405 OFFCURVE",
"365 369 OFFCURVE",
"365 305 CURVE SMOOTH",
"365 30 LINE SMOOTH",
"365 23 OFFCURVE",
"359 18 OFFCURVE",
"351 18 CURVE SMOOTH",
"318 18 LINE",
"318 0 LINE",
"498 0 LINE",
"498 18 LINE",
"451 18 LINE SMOOTH",
"443 18 OFFCURVE",
"437 23 OFFCURVE",
"437 30 CURVE SMOOTH",
"437 292 LINE SMOOTH",
"437 385 OFFCURVE",
"389 444 OFFCURVE",
"313 444 CURVE SMOOTH",
"242 444 OFFCURVE",
"191 400 OFFCURVE",
"168 319 CURVE"
);
}
);
width = 533;
}
);
leftKerningGroup = h;
leftMetricsKey = l;
rightKerningGroup = n;
rightMetricsKey = n;
unicode = 0068;
},
{
glyphname = idotless;
layers = (
{
anchors = (
{
name = bottom;
position = "{135, 0}";
},
{
name = ogonek;
position = "{239, 0}";
},
{
name = top;
position = "{135, 438}";
}
);
hints = (
{
place = "{106, 72}";
},
{
horizontal = 1;
place = "{0, 18}";
},
{
horizontal = 1;
place = "{414, 18}";
},
{
horizontal = 1;
place = "{438, -20}";
target = down;
type = TopGhost;
}
);
layerId = UUID0;
paths = (
{
closed = 1;
nodes = (
"106 32 LINE SMOOTH",
"106 24 OFFCURVE",
"100 18 OFFCURVE",
"92 18 CURVE SMOOTH",
"45 18 LINE",
"45 0 LINE",
"239 0 LINE",
"239 18 LINE",
"192 18 LINE SMOOTH",
"184 18 OFFCURVE",
"178 24 OFFCURVE",
"178 32 CURVE SMOOTH",
"178 438 LINE",
"166 435 OFFCURVE",
"130 432 OFFCURVE",
"94 432 CURVE SMOOTH",
"45 432 LINE",
"45 414 LINE",
"92 414 LINE SMOOTH",
"100 414 OFFCURVE",
"106 408 OFFCURVE",
"106 400 CURVE SMOOTH"
);
}
);
width = 269;
}
);
leftKerningGroup = n;
leftMetricsKey = n;
rightKerningGroup = idotless;
rightMetricsKey = l;
unicode = 0131;
},
{
glyphname = jdotless;
layers = (
{
anchors = (
{
name = bottom;
position = "{123, -228}";
},
{
name = top;
position = "{123, 438}";
}
);
hints = (
{
place = "{-72, 67}";
},
{
place = "{91, 71}";
},
{
horizontal = 1;
place = "{-228, 23}";
},
{
horizontal = 1;
place = "{414, 18}";
}
);
layerId = UUID0;
paths = (
{
closed = 1;
nodes = (
"4 -94 OFFCURVE",
"-12 -88 OFFCURVE",
"-26 -88 CURVE SMOOTH",
"-53 -88 OFFCURVE",
"-72 -111 OFFCURVE",
"-72 -144 CURVE SMOOTH",
"-72 -192 OFFCURVE",
"-32 -228 OFFCURVE",
"22 -228 CURVE SMOOTH",
"110 -228 OFFCURVE",
"163 -130 OFFCURVE",
"163 32 CURVE SMOOTH",
"163 438 LINE",
"150 435 OFFCURVE",
"112 432 OFFCURVE",
"79 432 CURVE SMOOTH",
"30 432 LINE",
"30 414 LINE",
"77 414 LINE SMOOTH",
"85 414 OFFCURVE",
"91 408 OFFCURVE",
"91 400 CURVE SMOOTH",
"91 -120 LINE SMOOTH",
"91 -174 OFFCURVE",
"71 -205 OFFCURVE",
"36 -205 CURVE SMOOTH",
"10 -205 OFFCURVE",
"-5 -187 OFFCURVE",
"-5 -156 CURVE SMOOTH",
"-5 -137 OFFCURVE",
"1 -116 OFFCURVE",
"10 -101 CURVE"
);
}
);
width = 245;
}
);
leftKerningGroup = n;
rightKerningGroup = jdotless;
unicode = 0237;
},
{
glyphname = k;
layers = (
{
anchors = (
{
name = bottom;
position = "{226, 0}";
},
{
name = top;
position = "{127, 630}";
}
);
hints = (
{
place = "{91, 72}";
},
{
horizontal = 1;
place = "{0, 18}";
},
{
horizontal = 1;
place = "{414, 18}";
},
{
horizontal = 1;
place = "{630, 18}";
},
{
horizontal = 1;
place = "{-6, 21}";
target = up;
type = BottomGhost;
}
);
layerId = UUID0;
paths = (
{
closed = 1;
nodes = (
"91 32 LINE SMOOTH",
"91 24 OFFCURVE",
"85 18 OFFCURVE",
"77 18 CURVE SMOOTH",
"30 18 LINE",
"30 0 LINE",
"224 0 LINE",
"224 18 LINE",
"177 18 LINE SMOOTH",
"170 18 OFFCURVE",
"163 23 OFFCURVE",
"163 30 CURVE SMOOTH",
"163 654 LINE",
"151 651 OFFCURVE",
"115 648 OFFCURVE",
"79 648 CURVE SMOOTH",
"30 648 LINE",
"30 630 LINE",
"77 630 LINE SMOOTH",
"85 630 OFFCURVE",
"91 624 OFFCURVE",
"91 616 CURVE SMOOTH"
);
},
{
closed = 1;
nodes = (
"297 432 LINE",
"297 414 LINE",
"348 414 LINE",
"182 227 LINE",
"342 -6 LINE",
"354 -3 OFFCURVE",
"378 0 OFFCURVE",
"414 0 CURVE SMOOTH",
"461 0 LINE",
"461 18 LINE",
"420 18 LINE SMOOTH",
"412 18 OFFCURVE",
"409 21 OFFCURVE",
"406 26 CURVE SMOOTH",
"247 257 LINE",
"376 404 LINE SMOOTH",
"382 410 OFFCURVE",
"386 414 OFFCURVE",
"394 414 CURVE SMOOTH",
"431 414 LINE",
"431 432 LINE"
);
}
);
width = 451;
}
);
leftKerningGroup = h;
leftMetricsKey = l;
rightKerningGroup = k;
unicode = 006B;
},
{
glyphname = kgreenlandic;
layers = (
{
hints = (
{
place = "{106, 72}";
},
{
horizontal = 1;
place = "{0, 18}";
},
{
horizontal = 1;
place = "{414, 18}";
},
{
horizontal = 1;
place = "{438, -20}";
target = down;
type = TopGhost;
},
{
horizontal = 1;
place = "{-6, 21}";
target = up;
type = BottomGhost;
}
);
layerId = UUID0;
paths = (
{
closed = 1;
nodes = (
"106 32 LINE SMOOTH",
"106 24 OFFCURVE",
"100 18 OFFCURVE",
"92 18 CURVE SMOOTH",
"45 18 LINE",
"45 0 LINE",
"239 0 LINE",
"239 18 LINE",
"192 18 LINE SMOOTH",
"185 18 OFFCURVE",
"178 23 OFFCURVE",
"178 30 CURVE SMOOTH",
"178 438 LINE",
"166 435 OFFCURVE",
"130 432 OFFCURVE",
"94 432 CURVE SMOOTH",
"45 432 LINE",
"45 414 LINE",
"92 414 LINE SMOOTH",
"100 414 OFFCURVE",
"106 408 OFFCURVE",
"106 400 CURVE SMOOTH"
);
},
{
closed = 1;
nodes = (
"312 432 LINE",
"312 414 LINE",
"363 414 LINE",
"197 227 LINE",
"357 -6 LINE",
"369 -3 OFFCURVE",
"393 0 OFFCURVE",
"429 0 CURVE SMOOTH",
"476 0 LINE",
"476 18 LINE",
"435 18 LINE SMOOTH",
"427 18 OFFCURVE",
"424 21 OFFCURVE",
"421 26 CURVE SMOOTH",
"262 257 LINE",
"391 404 LINE SMOOTH",
"397 410 OFFCURVE",
"401 414 OFFCURVE",
"409 414 CURVE SMOOTH",
"446 414 LINE",
"446 432 LINE"
);
}
);
width = 466;
}
);
leftKerningGroup = n;
leftMetricsKey = n;
rightKerningGroup = k;
unicode = 0138;
},
{
glyphname = l;
layers = (
{
anchors = (
{
name = bottom;
position = "{127, 0}";
},
{
name = center;
position = "{127, 354}";
},
{
name = top;
position = "{127, 630}";
},
{
name = topright;
position = "{223, 432}";
}
);
hints = (
{
place = "{91, 72}";
},
{
horizontal = 1;
place = "{0, 18}";
},
{
horizontal = 1;
place = "{630, 18}";
}
);
layerId = UUID0;
paths = (
{
closed = 1;
nodes = (
"91 32 LINE SMOOTH",
"91 24 OFFCURVE",
"85 18 OFFCURVE",
"77 18 CURVE SMOOTH",
"30 18 LINE",
"30 0 LINE",
"224 0 LINE",
"224 18 LINE",
"177 18 LINE SMOOTH",
"169 18 OFFCURVE",
"163 24 OFFCURVE",
"163 32 CURVE SMOOTH",
"163 654 LINE",
"150 651 OFFCURVE",
"112 648 OFFCURVE",
"79 648 CURVE SMOOTH",
"30 648 LINE",
"30 630 LINE",
"77 630 LINE SMOOTH",
"85 630 OFFCURVE",
"91 624 OFFCURVE",
"91 616 CURVE SMOOTH"
);
}
);
width = 254;
}
);
leftKerningGroup = h;
rightKerningGroup = l;
unicode = 006C;
},
{
glyphname = m;
layers = (
{
anchors = (
{
name = bottom;
position = "{401, 0}";
},
{
name = top;
position = "{401, 432}";
}
);
hints = (
{
place = "{106, 72}";
},
{
place = "{370, 72}";
},
{
place = "{634, 72}";
},
{
horizontal = 1;
place = "{0, 18}";
},
{
horizontal = 1;
place = "{405, 39}";
},
{
horizontal = 1;
place = "{432, -18}";
}
);
layerId = UUID0;
paths = (
{
closed = 1;
nodes = (
"706 292 LINE SMOOTH",
"706 403 OFFCURVE",
"643 444 OFFCURVE",
"584 444 CURVE SMOOTH",
"536 444 OFFCURVE",
"488 424 OFFCURVE",
"458 352 CURVE SMOOTH",
"452 338 OFFCURVE",
"446 322 OFFCURVE",
"442 303 CURVE",
"438 388 OFFCURVE",
"395 430 OFFCURVE",
"348 441 CURVE SMOOTH",
"339 443 OFFCURVE",
"329 444 OFFCURVE",
"320 444 CURVE SMOOTH",
"264 444 OFFCURVE",
"204 415 OFFCURVE",
"178 304 CURVE",
"178 304 OFFCURVE",
"178 304 OFFCURVE",
"178 304 CURVE",
"178 438 LINE",
"166 435 OFFCURVE",
"130 432 OFFCURVE",
"94 432 CURVE SMOOTH",
"45 432 LINE",
"45 414 LINE",
"92 414 LINE SMOOTH",
"100 414 OFFCURVE",
"106 408 OFFCURVE",
"106 400 CURVE SMOOTH",
"106 30 LINE SMOOTH",
"106 23 OFFCURVE",
"99 18 OFFCURVE",
"92 18 CURVE SMOOTH",
"45 18 LINE",
"45 0 LINE",
"225 0 LINE",
"225 18 LINE",
"192 18 LINE SMOOTH",
"184 18 OFFCURVE",
"178 24 OFFCURVE",
"178 32 CURVE SMOOTH",
"178 155 LINE SMOOTH",
"178 323 OFFCURVE",
"228 405 OFFCURVE",
"292 405 CURVE SMOOTH",
"337 405 OFFCURVE",
"370 376 OFFCURVE",
"370 305 CURVE SMOOTH",
"370 30 LINE SMOOTH",
"370 23 OFFCURVE",
"363 18 OFFCURVE",
"356 18 CURVE SMOOTH",
"323 18 LINE",
"323 0 LINE",
"503 0 LINE",
"503 18 LINE",
"456 18 LINE SMOOTH",
"448 18 OFFCURVE",
"442 24 OFFCURVE",
"442 32 CURVE SMOOTH",
"442 155 LINE SMOOTH",
"442 323 OFFCURVE",
"492 405 OFFCURVE",
"556 405 CURVE SMOOTH",
"601 405 OFFCURVE",
"634 376 OFFCURVE",
"634 305 CURVE SMOOTH",
"634 30 LINE SMOOTH",
"634 23 OFFCURVE",
"627 18 OFFCURVE",
"620 18 CURVE SMOOTH",
"587 18 LINE",
"587 0 LINE",
"767 0 LINE",
"767 18 LINE",
"720 18 LINE SMOOTH",
"713 18 OFFCURVE",
"706 23 OFFCURVE",
"706 30 CURVE SMOOTH"
);
}
);
width = 802;
}
);
leftKerningGroup = n;
leftMetricsKey = n;
rightKerningGroup = n;
rightMetricsKey = n;
unicode = 006D;
},
{
glyphname = n;
layers = (
{
anchors = (
{
name = bottom;
position = "{274, 0}";
},
{
name = top;
position = "{274, 432}";
}
);
background = {
paths = (
{
closed = 1;
nodes = (
"452 292 LINE SMOOTH",
"452 403 OFFCURVE",
"389 444 OFFCURVE",
"328 444 CURVE SMOOTH",
"268 444 OFFCURVE",
"205 415 OFFCURVE",
"178 302 CURVE",
"178 302 OFFCURVE",
"178 302 OFFCURVE",
"178 302 CURVE",
"178 438 LINE",
"166 435 OFFCURVE",
"130 432 OFFCURVE",
"94 432 CURVE SMOOTH",
"45 432 LINE",
"45 414 LINE",
"92 414 LINE SMOOTH",
"100 414 OFFCURVE",
"106 408 OFFCURVE",
"106 400 CURVE SMOOTH",
"106 30 LINE SMOOTH",
"106 23 OFFCURVE",
"99 18 OFFCURVE",
"92 18 CURVE SMOOTH",
"45 18 LINE",
"45 0 LINE",
"225 0 LINE",
"225 18 LINE",
"192 18 LINE SMOOTH",
"184 18 OFFCURVE",
"178 24 OFFCURVE",
"178 32 CURVE SMOOTH",
"178 167 LINE SMOOTH",
"178 327 OFFCURVE",
"232 405 OFFCURVE",
"298 405 CURVE SMOOTH",
"345 405 OFFCURVE",
"380 376 OFFCURVE",
"380 305 CURVE SMOOTH",
"380 30 LINE SMOOTH",
"380 23 OFFCURVE",
"373 18 OFFCURVE",
"366 18 CURVE SMOOTH",
"333 18 LINE",
"333 0 LINE",
"513 0 LINE",
"513 18 LINE",
"466 18 LINE SMOOTH",
"459 18 OFFCURVE",
"452 23 OFFCURVE",
"452 30 CURVE SMOOTH"
);
}
);
};
hints = (
{
place = "{106, 72}";
},
{
place = "{380, 72}";
},
{
horizontal = 1;
place = "{0, 18}";
},
{
horizontal = 1;
place = "{405, 39}";
},
{
horizontal = 1;
place = "{432, -18}";
}
);
layerId = UUID0;
paths = (
{
closed = 1;
nodes = (
"178 319 LINE",
"178 438 LINE",
"165 435 OFFCURVE",
"127 432 OFFCURVE",
"94 432 CURVE SMOOTH",
"45 432 LINE",
"45 414 LINE",
"92 414 LINE SMOOTH",
"100 414 OFFCURVE",
"106 408 OFFCURVE",
"106 400 CURVE SMOOTH",
"106 30 LINE SMOOTH",
"106 23 OFFCURVE",
"100 18 OFFCURVE",
"92 18 CURVE SMOOTH",
"45 18 LINE",
"45 0 LINE",
"225 0 LINE",
"225 18 LINE",
"192 18 LINE SMOOTH",
"184 18 OFFCURVE",
"178 24 OFFCURVE",
"178 32 CURVE SMOOTH",
"178 167 LINE SMOOTH",
"178 312 OFFCURVE",
"225 405 OFFCURVE",
"298 405 CURVE SMOOTH",
"351 405 OFFCURVE",
"380 369 OFFCURVE",
"380 305 CURVE SMOOTH",
"380 30 LINE SMOOTH",
"380 23 OFFCURVE",
"374 18 OFFCURVE",
"366 18 CURVE SMOOTH",
"333 18 LINE",
"333 0 LINE",
"513 0 LINE",
"513 18 LINE",
"466 18 LINE SMOOTH",
"458 18 OFFCURVE",
"452 23 OFFCURVE",
"452 30 CURVE SMOOTH",
"452 292 LINE SMOOTH",
"452 385 OFFCURVE",
"404 444 OFFCURVE",
"328 444 CURVE SMOOTH",
"257 444 OFFCURVE",
"206 400 OFFCURVE",
"183 319 CURVE"
);
}
);
width = 548;
}
);
leftKerningGroup = n;
rightKerningGroup = n;
unicode = 006E;
},
{
glyphname = eng;
layers = (
{
background = {
paths = (
{
closed = 1;
nodes = (
"452 292 LINE SMOOTH",
"452 403 OFFCURVE",
"389 444 OFFCURVE",
"328 444 CURVE SMOOTH",
"274 444 OFFCURVE",
"217 420 OFFCURVE",
"187 332 CURVE SMOOTH",
"184 323 OFFCURVE",
"181 313 OFFCURVE",
"178 302 CURVE",
"178 302 LINE",
"178 438 LINE",
"166 435 OFFCURVE",
"130 432 OFFCURVE",
"94 432 CURVE SMOOTH",
"45 432 LINE",
"45 414 LINE",
"92 414 LINE SMOOTH",
"100 414 OFFCURVE",
"106 408 OFFCURVE",
"106 400 CURVE SMOOTH",
"106 30 LINE SMOOTH",
"106 23 OFFCURVE",
"99 18 OFFCURVE",
"92 18 CURVE SMOOTH",
"45 18 LINE",
"45 0 LINE",
"225 0 LINE",
"225 18 LINE",
"192 18 LINE SMOOTH",
"184 18 OFFCURVE",
"178 24 OFFCURVE",
"178 32 CURVE SMOOTH",
"178 167 LINE SMOOTH",
"178 327 OFFCURVE",
"232 405 OFFCURVE",
"298 405 CURVE SMOOTH",
"345 405 OFFCURVE",
"380 376 OFFCURVE",
"380 305 CURVE SMOOTH",
"380 30 LINE SMOOTH",
"380 23 OFFCURVE",
"373 18 OFFCURVE",
"366 18 CURVE SMOOTH",
"333 18 LINE",
"333 0 LINE",
"513 0 LINE",
"513 18 LINE",
"466 18 LINE SMOOTH",
"459 18 OFFCURVE",
"452 23 OFFCURVE",
"452 30 CURVE SMOOTH"
);
},
{
closed = 1;
nodes = (
"452 292 LINE SMOOTH",
"452 403 OFFCURVE",
"389 444 OFFCURVE",
"328 444 CURVE SMOOTH",
"274 444 OFFCURVE",
"212 419 OFFCURVE",
"183 319 CURVE",
"178 319 LINE",
"178 319 LINE",
"178 438 LINE",
"166 435 OFFCURVE",
"130 432 OFFCURVE",
"94 432 CURVE SMOOTH",
"45 432 LINE",
"45 414 LINE",
"92 414 LINE SMOOTH",
"100 414 OFFCURVE",
"106 408 OFFCURVE",
"106 400 CURVE SMOOTH",
"106 30 LINE SMOOTH",
"106 23 OFFCURVE",
"99 18 OFFCURVE",
"92 18 CURVE SMOOTH",
"45 18 LINE",
"45 0 LINE",
"225 0 LINE",
"225 18 LINE",
"192 18 LINE SMOOTH",
"184 18 OFFCURVE",
"178 24 OFFCURVE",
"178 32 CURVE SMOOTH",
"178 167 LINE SMOOTH",
"178 327 OFFCURVE",
"232 405 OFFCURVE",
"298 405 CURVE SMOOTH",
"345 405 OFFCURVE",
"380 376 OFFCURVE",
"380 305 CURVE SMOOTH",
"380 30 LINE SMOOTH",
"380 23 OFFCURVE",
"373 18 OFFCURVE",
"366 18 CURVE SMOOTH",
"333 18 LINE",
"333 0 LINE",
"513 0 LINE",
"513 18 LINE",
"466 18 LINE SMOOTH",
"459 18 OFFCURVE",
"452 23 OFFCURVE",
"452 30 CURVE SMOOTH"
);
}
);
};
hints = (
{
horizontal = 1;
origin = "{0, 55}";
target = "{0, 40}";
},
{
horizontal = 1;
origin = "{0, 23}";
target = "{0, 22}";
},
{
horizontal = 1;
origin = "{0, 12}";
target = "{0, 13}";
},
{
horizontal = 1;
origin = "{0, 3}";
target = "{0, 33}";
},
{
horizontal = 1;
origin = "{0, 8}";
target = down;
type = TopGhost;
},
{
origin = "{0, 18}";
target = "{0, 29}";
},
{
origin = "{0, 37}";
target = "{0, 58}";
},
{
origin = "{0, 52}";
target = "{0, 43}";
}
);
layerId = UUID0;
paths = (
{
closed = 1;
nodes = (
"452 292 LINE SMOOTH",
"452 385 OFFCURVE",
"404 444 OFFCURVE",
"328 444 CURVE SMOOTH",
"257 444 OFFCURVE",
"206 400 OFFCURVE",
"183 319 CURVE",
"178 319 LINE",
"178 438 LINE",
"165 435 OFFCURVE",
"127 432 OFFCURVE",
"94 432 CURVE SMOOTH",
"45 432 LINE",
"45 414 LINE",
"92 414 LINE SMOOTH",
"100 414 OFFCURVE",
"106 408 OFFCURVE",
"106 400 CURVE SMOOTH",
"106 30 LINE SMOOTH",
"106 23 OFFCURVE",
"100 18 OFFCURVE",
"92 18 CURVE SMOOTH",
"45 18 LINE",
"45 0 LINE",
"225 0 LINE",
"225 18 LINE",
"192 18 LINE SMOOTH",
"184 18 OFFCURVE",
"178 24 OFFCURVE",
"178 32 CURVE SMOOTH",
"178 167 LINE SMOOTH",
"178 312 OFFCURVE",
"225 405 OFFCURVE",
"298 405 CURVE SMOOTH",
"351 405 OFFCURVE",
"380 369 OFFCURVE",
"380 305 CURVE SMOOTH",
"380 -120 LINE SMOOTH",
"380 -179 OFFCURVE",
"357 -205 OFFCURVE",
"325 -205 CURVE SMOOTH",
"297 -205 OFFCURVE",
"284 -184 OFFCURVE",
"284 -162 CURVE SMOOTH",
"284 -143 OFFCURVE",
"290 -121 OFFCURVE",
"299 -103 CURVE",
"287 -93 OFFCURVE",
"269 -88 OFFCURVE",
"252 -88 CURVE SMOOTH",
"228 -88 OFFCURVE",
"217 -113 OFFCURVE",
"217 -142 CURVE SMOOTH",
"217 -181 OFFCURVE",
"241 -228 OFFCURVE",
"317 -228 CURVE SMOOTH",
"390 -228 OFFCURVE",
"452 -143 OFFCURVE",
"452 32 CURVE SMOOTH"
);
}
);
width = 487;
}
);
leftKerningGroup = n;
leftMetricsKey = n;
rightKerningGroup = n;
rightMetricsKey = n;
unicode = 014B;
},
{
glyphname = o;
layers = (
{
anchors = (
{
name = bottom;
position = "{243, 0}";
},
{
name = center;
position = "{243, 219}";
},
{
name = ogonek;
position = "{299, 0}";
},
{
name = top;
position = "{243, 432}";
},
{
name = topright;
position = "{357, 414}";
}
);
hints = (
{
place = "{40, 76}";
},
{
place = "{369, 76}";
},
{
horizontal = 1;
place = "{-12, 22}";
},
{
horizontal = 1;
place = "{422, 22}";
}
);
layerId = UUID0;
paths = (
{
closed = 1;
nodes = (
"40 71 OFFCURVE",
"125 -12 OFFCURVE",
"242 -12 CURVE SMOOTH",
"359 -12 OFFCURVE",
"445 71 OFFCURVE",
"445 216 CURVE SMOOTH",
"445 361 OFFCURVE",
"359 444 OFFCURVE",
"242 444 CURVE SMOOTH",
"125 444 OFFCURVE",
"40 361 OFFCURVE",
"40 216 CURVE SMOOTH"
);
},
{
closed = 1;
nodes = (
"116 347 OFFCURVE",
"172 422 OFFCURVE",
"242 422 CURVE SMOOTH",
"312 422 OFFCURVE",
"369 347 OFFCURVE",
"369 216 CURVE SMOOTH",
"369 85 OFFCURVE",
"312 10 OFFCURVE",
"242 10 CURVE SMOOTH",
"172 10 OFFCURVE",
"116 85 OFFCURVE",
"116 216 CURVE SMOOTH"
);
}
);
width = 485;
}
);
leftKerningGroup = o;
rightKerningGroup = o;
unicode = 006F;
},
{
glyphname = p;
layers = (
{
anchors = (
{
name = bottom;
position = "{250, 0}";
},
{
name = top;
position = "{250, 432}";
}
);
hints = (
{
place = "{91, 72}";
},
{
place = "{384, 76}";
},
{
horizontal = 1;
place = "{-216, 18}";
},
{
horizontal = 1;
place = "{-12, 25}";
},
{
horizontal = 1;
place = "{406, 38}";
},
{
horizontal = 1;
place = "{432, -18}";
}
);
layerId = UUID0;
paths = (
{
closed = 1;
nodes = (
"460 347 OFFCURVE",
"393 444 OFFCURVE",
"301 444 CURVE SMOOTH",
"233 444 OFFCURVE",
"184 390 OFFCURVE",
"168 298 CURVE",
"163 298 LINE",
"163 438 LINE",
"150 435 OFFCURVE",
"112 432 OFFCURVE",
"79 432 CURVE SMOOTH",
"30 432 LINE",
"30 414 LINE",
"77 414 LINE SMOOTH",
"85 414 OFFCURVE",
"91 408 OFFCURVE",
"91 400 CURVE SMOOTH",
"91 -184 LINE SMOOTH",
"91 -192 OFFCURVE",
"85 -198 OFFCURVE",
"77 -198 CURVE SMOOTH",
"30 -198 LINE",
"30 -216 LINE",
"244 -216 LINE",
"244 -198 LINE",
"177 -198 LINE SMOOTH",
"169 -198 OFFCURVE",
"163 -192 OFFCURVE",
"163 -184 CURVE SMOOTH",
"163 15 LINE",
"193 -3 OFFCURVE",
"227 -12 OFFCURVE",
"263 -12 CURVE SMOOTH",
"383 -12 OFFCURVE",
"460 78 OFFCURVE",
"460 216 CURVE SMOOTH"
);
},
{
closed = 1;
nodes = (
"163 304 OFFCURVE",
"215 406 OFFCURVE",
"286 406 CURVE SMOOTH",
"345 406 OFFCURVE",
"384 330 OFFCURVE",
"384 216 CURVE SMOOTH",
"384 91 OFFCURVE",
"334 13 OFFCURVE",
"255 13 CURVE SMOOTH",
"224 13 OFFCURVE",
"192 23 OFFCURVE",
"163 42 CURVE",
"163 165 LINE SMOOTH"
);
}
);
width = 500;
}
);
leftKerningGroup = n;
leftMetricsKey = l;
rightKerningGroup = o;
rightMetricsKey = o;
unicode = 0070;
},
{
glyphname = thorn;
layers = (
{
hints = (
{
place = "{86, 72}";
},
{
place = "{379, 76}";
},
{
horizontal = 1;
place = "{-216, 18}";
},
{
horizontal = 1;
place = "{-12, 25}";
},
{
horizontal = 1;
place = "{406, 38}";
},
{
horizontal = 1;
place = "{630, 18}";
},
{
horizontal = 1;
place = "{654, -20}";
target = down;
type = TopGhost;
}
);
layerId = UUID0;
paths = (
{
closed = 1;
nodes = (
"91 -184 LINE SMOOTH",
"91 -192 OFFCURVE",
"85 -198 OFFCURVE",
"77 -198 CURVE SMOOTH",
"30 -198 LINE",
"30 -216 LINE",
"244 -216 LINE",
"244 -198 LINE",
"177 -198 LINE SMOOTH",
"169 -198 OFFCURVE",
"163 -192 OFFCURVE",
"163 -184 CURVE",
"163 15 LINE",
"193 -3 OFFCURVE",
"227 -12 OFFCURVE",
"263 -12 CURVE SMOOTH",
"377 -12 OFFCURVE",
"460 71 OFFCURVE",
"460 216 CURVE SMOOTH",
"460 358 OFFCURVE",
"380 444 OFFCURVE",
"301 444 CURVE SMOOTH",
"244 444 OFFCURVE",
"187 399 OFFCURVE",
"163 298 CURVE",
"163 654 LINE",
"151 651 OFFCURVE",
"115 648 OFFCURVE",
"79 648 CURVE SMOOTH",
"30 648 LINE",
"30 630 LINE",
"77 630 LINE SMOOTH",
"85 630 OFFCURVE",
"91 624 OFFCURVE",
"91 616 CURVE SMOOTH"
);
},
{
closed = 1;
nodes = (
"335 406 OFFCURVE",
"384 341 OFFCURVE",
"384 216 CURVE SMOOTH",
"384 83 OFFCURVE",
"329 13 OFFCURVE",
"255 13 CURVE SMOOTH",
"227 13 OFFCURVE",
"195 21 OFFCURVE",
"163 42 CURVE",
"163 177 LINE SMOOTH",
"163 332 OFFCURVE",
"227 406 OFFCURVE",
"286 406 CURVE SMOOTH"
);
}
);
width = 500;
}
);
leftKerningGroup = h;
leftMetricsKey = l;
rightKerningGroup = o;
rightMetricsKey = o;
unicode = 00FE;
},
{
glyphname = q;
layers = (
{
anchors = (
{
name = bottom;
position = "{248, 0}";
},
{
name = top;
position = "{248, 432}";
}
);
hints = (
{
place = "{40, 76}";
},
{
place = "{337, 72}";
},
{
horizontal = 1;
place = "{-216, 18}";
},
{
horizontal = 1;
place = "{-12, 38}";
},
{
horizontal = 1;
place = "{414, 30}";
},
{
horizontal = 1;
place = "{-222, 21}";
target = up;
type = BottomGhost;
},
{
horizontal = 1;
place = "{440, -20}";
target = down;
type = TopGhost;
}
);
layerId = UUID0;
paths = (
{
closed = 1;
nodes = (
"118 444 OFFCURVE",
"40 349 OFFCURVE",
"40 206 CURVE SMOOTH",
"40 80 OFFCURVE",
"107 -12 OFFCURVE",
"199 -12 CURVE SMOOTH",
"267 -12 OFFCURVE",
"316 42 OFFCURVE",
"332 134 CURVE",
"337 134 LINE",
"337 -222 LINE",
"351 -219 OFFCURVE",
"390 -216 OFFCURVE",
"421 -216 CURVE SMOOTH",
"470 -216 LINE",
"470 -198 LINE",
"423 -198 LINE SMOOTH",
"415 -198 OFFCURVE",
"409 -192 OFFCURVE",
"409 -184 CURVE SMOOTH",
"409 440 LINE",
"392 440 LINE",
"384 378 LINE",
"345 422 OFFCURVE",
"295 444 OFFCURVE",
"237 444 CURVE SMOOTH"
);
},
{
closed = 1;
nodes = (
"155 26 OFFCURVE",
"116 98 OFFCURVE",
"116 206 CURVE SMOOTH",
"116 341 OFFCURVE",
"163 419 OFFCURVE",
"245 419 CURVE SMOOTH",
"277 419 OFFCURVE",
"312 408 OFFCURVE",
"337 391 CURVE",
"337 267 LINE SMOOTH",
"337 128 OFFCURVE",
"285 26 OFFCURVE",
"214 26 CURVE SMOOTH"
);
}
);
width = 500;
}
);
leftKerningGroup = o;
leftMetricsKey = o;
rightKerningGroup = q;
rightMetricsKey = l;
unicode = 0071;
},
{
glyphname = r;
layers = (
{
anchors = (
{
name = bottom;
position = "{142, 0}";
},
{
name = top;
position = "{194, 432}";
}
);
hints = (
{
place = "{106, 72}";
},
{
place = "{316, 67}";
},
{
horizontal = 1;
place = "{0, 18}";
},
{
horizontal = 1;
place = "{405, 39}";
},
{
horizontal = 1;
place = "{432, -18}";
}
);
layerId = UUID0;
paths = (
{
closed = 1;
nodes = (
"383 406 OFFCURVE",
"346 444 OFFCURVE",
"293 444 CURVE SMOOTH",
"241 444 OFFCURVE",
"203 397 OFFCURVE",
"183 310 CURVE",
"178 310 LINE",
"178 438 LINE",
"165 435 OFFCURVE",
"127 432 OFFCURVE",
"94 432 CURVE SMOOTH",
"45 432 LINE",
"45 414 LINE",
"92 414 LINE SMOOTH",
"100 414 OFFCURVE",
"106 408 OFFCURVE",
"106 400 CURVE SMOOTH",
"106 32 LINE SMOOTH",
"106 24 OFFCURVE",
"100 18 OFFCURVE",
"92 18 CURVE SMOOTH",
"45 18 LINE",
"45 0 LINE",
"259 0 LINE",
"259 18 LINE",
"192 18 LINE SMOOTH",
"184 18 OFFCURVE",
"178 24 OFFCURVE",
"178 32 CURVE SMOOTH",
"178 165 LINE SMOOTH",
"178 303 OFFCURVE",
"214 395 OFFCURVE",
"272 395 CURVE SMOOTH",
"298 395 OFFCURVE",
"316 378 OFFCURVE",
"316 352 CURVE SMOOTH",
"316 335 OFFCURVE",
"312 318 OFFCURVE",
"303 303 CURVE",
"309 295 OFFCURVE",
"325 288 OFFCURVE",
"338 288 CURVE SMOOTH",
"365 288 OFFCURVE",
"383 314 OFFCURVE",
"383 352 CURVE SMOOTH"
);
}
);
width = 388;
}
);
leftKerningGroup = n;
leftMetricsKey = n;
rightKerningGroup = r;
unicode = 0072;
},
{
glyphname = s;
layers = (
{
anchors = (
{
name = bottom;
position = "{198, 0}";
},
{
name = top;
position = "{203, 432}";
}
);
hints = (
{
place = "{59, 56}";
},
{
place = "{291, 59}";
},
{
place = "{298, 18}";
},
{
place = "{61, 18}";
},
{
horizontal = 1;
place = "{-12, 24}";
},
{
horizontal = 1;
place = "{417, 27}";
}
);
layerId = UUID0;
paths = (
{
closed = 1;
nodes = (
"170 271 LINE SMOOTH",
"135 284 OFFCURVE",
"115 310 OFFCURVE",
"115 340 CURVE SMOOTH",
"115 386 OFFCURVE",
"153 420 OFFCURVE",
"204 420 CURVE SMOOTH",
"252 420 OFFCURVE",
"285 392 OFFCURVE",
"291 345 CURVE SMOOTH",
"298 293 LINE",
"316 293 LINE",
"316 333 LINE SMOOTH",
"316 366 OFFCURVE",
"319 404 OFFCURVE",
"322 417 CURVE",
"270 436 OFFCURVE",
"237 444 OFFCURVE",
"205 444 CURVE SMOOTH",
"121 444 OFFCURVE",
"59 388 OFFCURVE",
"59 311 CURVE SMOOTH",
"59 262 OFFCURVE",
"86 223 OFFCURVE",
"130 206 CURVE SMOOTH",
"234 167 LINE SMOOTH",
"270 153 OFFCURVE",
"291 128 OFFCURVE",
"291 98 CURVE SMOOTH",
"291 49 OFFCURVE",
"245 12 OFFCURVE",
"185 12 CURVE SMOOTH",
"129 12 OFFCURVE",
"93 38 OFFCURVE",
"86 87 CURVE SMOOTH",
"79 139 LINE",
"61 139 LINE",
"61 99 LINE SMOOTH",
"61 66 OFFCURVE",
"58 28 OFFCURVE",
"55 15 CURVE",
"93 -1 OFFCURVE",
"144 -12 OFFCURVE",
"183 -12 CURVE SMOOTH",
"280 -12 OFFCURVE",
"350 46 OFFCURVE",
"350 125 CURVE SMOOTH",
"350 174 OFFCURVE",
"321 214 OFFCURVE",
"274 232 CURVE SMOOTH"
);
}
);
width = 395;
}
);
leftKerningGroup = s;
leftMetricsKey = "=o*1.37";
rightKerningGroup = s;
rightMetricsKey = "=o*1.13";
unicode = 0073;
},
{
glyphname = germandbls;
layers = (
{
hints = (
{
place = "{107, 71}";
},
{
place = "{211, 66}";
},
{
place = "{256, 58}";
},
{
place = "{373, 71}";
},
{
place = "{447, 59}";
},
{
horizontal = 1;
place = "{-12, 24}";
},
{
horizontal = 1;
place = "{414, 18}";
},
{
horizontal = 1;
place = "{636, 24}";
},
{
horizontal = 1;
place = "{0, 21}";
target = up;
type = BottomGhost;
}
);
layerId = UUID0;
paths = (
{
closed = 1;
nodes = (
"303 12 OFFCURVE",
"277 39 OFFCURVE",
"277 80 CURVE SMOOTH",
"277 99 OFFCURVE",
"283 121 OFFCURVE",
"291 139 CURVE",
"281 149 OFFCURVE",
"263 154 OFFCURVE",
"246 154 CURVE SMOOTH",
"222 154 OFFCURVE",
"211 129 OFFCURVE",
"211 100 CURVE SMOOTH",
"211 23 OFFCURVE",
"277 -12 OFFCURVE",
"347 -12 CURVE SMOOTH",
"450 -12 OFFCURVE",
"506 59 OFFCURVE",
"506 126 CURVE SMOOTH",
"506 169 OFFCURVE",
"489 202 OFFCURVE",
"430 241 CURVE SMOOTH",
"367 283 LINE SMOOTH",
"336 304 OFFCURVE",
"314 323 OFFCURVE",
"314 351 CURVE SMOOTH",
"314 413 OFFCURVE",
"444 453 OFFCURVE",
"444 549 CURVE SMOOTH",
"444 618 OFFCURVE",
"378 660 OFFCURVE",
"305 660 CURVE SMOOTH",
"212 660 OFFCURVE",
"107 593 OFFCURVE",
"107 432 CURVE",
"45 432 LINE",
"45 414 LINE",
"92 414 LINE SMOOTH",
"100 414 OFFCURVE",
"106 408 OFFCURVE",
"106 400 CURVE SMOOTH",
"106 32 LINE SMOOTH",
"106 24 OFFCURVE",
"100 18 OFFCURVE",
"92 18 CURVE SMOOTH",
"45 18 LINE",
"45 0 LINE",
"178 0 LINE",
"178 495 LINE SMOOTH",
"178 589 OFFCURVE",
"236 636 OFFCURVE",
"289 636 CURVE SMOOTH",
"333 636 OFFCURVE",
"373 604 OFFCURVE",
"373 540 CURVE SMOOTH",
"373 430 OFFCURVE",
"256 406 OFFCURVE",
"256 314 CURVE SMOOTH",
"256 269 OFFCURVE",
"279 250 OFFCURVE",
"309 230 CURVE SMOOTH",
"390 176 LINE SMOOTH",
"437 145 OFFCURVE",
"447 125 OFFCURVE",
"447 99 CURVE SMOOTH",
"447 55 OFFCURVE",
"406 12 OFFCURVE",
"347 12 CURVE SMOOTH"
);
}
);
width = 531;
}
);
leftKerningGroup = h;
rightKerningGroup = germandbls;
unicode = 00DF;
},
{
glyphname = t;
layers = (
{
anchors = (
{
name = bottom;
position = "{137, 0}";
},
{
name = center;
position = "{137, 219}";
},
{
name = top;
position = "{137, 432}";
},
{
name = topright;
position = "{213, 432}";
}
);
hints = (
{
place = "{81, 72}";
},
{
horizontal = 1;
place = "{-12, 33}";
},
{
horizontal = 1;
place = "{414, 18}";
},
{
horizontal = 1;
place = "{538, -20}";
target = down;
type = TopGhost;
}
);
layerId = UUID0;
paths = (
{
closed = 1;
nodes = (
"138 538 LINE",
"120 486 OFFCURVE",
"93 432 OFFCURVE",
"69 432 CURVE SMOOTH",
"20 432 LINE",
"20 414 LINE",
"67 414 LINE SMOOTH",
"75 414 OFFCURVE",
"81 408 OFFCURVE",
"81 400 CURVE SMOOTH",
"81 102 LINE SMOOTH",
"81 22 OFFCURVE",
"115 -12 OFFCURVE",
"161 -12 CURVE SMOOTH",
"205 -12 OFFCURVE",
"238 17 OFFCURVE",
"238 66 CURVE SMOOTH",
"238 77 OFFCURVE",
"237 88 OFFCURVE",
"234 99 CURVE",
"215 96 LINE",
"217 86 OFFCURVE",
"218 77 OFFCURVE",
"218 68 CURVE SMOOTH",
"218 39 OFFCURVE",
"200 21 OFFCURVE",
"183 21 CURVE SMOOTH",
"168 21 OFFCURVE",
"153 30 OFFCURVE",
"153 75 CURVE SMOOTH",
"153 414 LINE",
"253 414 LINE",
"253 432 LINE",
"153 432 LINE",
"153 538 LINE"
);
}
);
width = 273;
}
);
leftKerningGroup = m;
rightKerningGroup = t;
unicode = 0074;
},
{
glyphname = u;
layers = (
{
anchors = (
{
name = bottom;
position = "{274, 0}";
},
{
name = ogonek;
position = "{503, 0}";
},
{
name = top;
position = "{274, 432}";
},
{
name = topright;
position = "{425, 414}";
}
);
hints = (
{
place = "{81, 72}";
},
{
place = "{355, 72}";
},
{
horizontal = 1;
place = "{-12, 39}";
},
{
horizontal = 1;
place = "{0, 18}";
},
{
horizontal = 1;
place = "{414, 18}";
}
);
layerId = UUID0;
paths = (
{
closed = 1;
nodes = (
"442 438 LINE",
"428 434 OFFCURVE",
"383 432 OFFCURVE",
"333 432 CURVE SMOOTH",
"309 432 LINE",
"309 414 LINE",
"356 414 LINE SMOOTH",
"364 414 OFFCURVE",
"370 408 OFFCURVE",
"370 400 CURVE SMOOTH",
"370 277 LINE SMOOTH",
"370 119 OFFCURVE",
"326 27 OFFCURVE",
"250 27 CURVE SMOOTH",
"199 27 OFFCURVE",
"168 65 OFFCURVE",
"168 127 CURVE SMOOTH",
"168 438 LINE",
"155 435 OFFCURVE",
"117 432 OFFCURVE",
"84 432 CURVE SMOOTH",
"35 432 LINE",
"35 414 LINE",
"82 414 LINE SMOOTH",
"90 414 OFFCURVE",
"96 408 OFFCURVE",
"96 400 CURVE SMOOTH",
"96 140 LINE SMOOTH",
"96 45 OFFCURVE",
"143 -12 OFFCURVE",
"220 -12 CURVE SMOOTH",
"292 -12 OFFCURVE",
"344 39 OFFCURVE",
"365 129 CURVE",
"370 129 LINE",
"370 -6 LINE",
"383 -3 OFFCURVE",
"421 0 OFFCURVE",
"454 0 CURVE SMOOTH",
"503 0 LINE",
"503 18 LINE",
"456 18 LINE SMOOTH",
"448 18 OFFCURVE",
"442 24 OFFCURVE",
"442 32 CURVE SMOOTH"
);
}
);
width = 533;
}
);
leftKerningGroup = u;
leftMetricsKey = "=|n";
rightKerningGroup = u;
rightMetricsKey = "=l";
unicode = 0075;
},
{
glyphname = v;
layers = (
{
anchors = (
{
name = bottom;
position = "{204, 0}";
},
{
name = top;
position = "{204, 432}";
}
);
hints = (
{
horizontal = 1;
place = "{414, 18}";
},
{
horizontal = 1;
place = "{0, 21}";
target = up;
type = BottomGhost;
}
);
layerId = UUID0;
paths = (
{
closed = 1;
nodes = (
"290 432 LINE",
"290 414 LINE",
"341 414 LINE",
"225 98 LINE",
"110 414 LINE",
"160 414 LINE",
"160 432 LINE",
"-10 432 LINE",
"-10 414 LINE",
"27 414 LINE SMOOTH",
"35 414 OFFCURVE",
"38 408 OFFCURVE",
"41 400 CURVE SMOOTH",
"190 0 LINE",
"217 0 LINE",
"366 400 LINE SMOOTH",
"369 408 OFFCURVE",
"372 414 OFFCURVE",
"380 414 CURVE SMOOTH",
"417 414 LINE",
"417 432 LINE"
);
}
);
width = 407;
}
);
leftKerningGroup = v;
rightKerningGroup = v;
unicode = 0076;
},
{
glyphname = w;
layers = (
{
anchors = (
{
name = bottom;
position = "{293, 0}";
},
{
name = top;
position = "{293, 432}";
}
);
hints = (
{
horizontal = 1;
place = "{414, 18}";
},
{
horizontal = 1;
place = "{0, 21}";
target = up;
type = BottomGhost;
}
);
layerId = UUID0;
paths = (
{
closed = 1;
nodes = (
"469 432 LINE",
"469 414 LINE",
"520 414 LINE",
"427 109 LINE",
"328 414 LINE",
"298 414 LINE",
"199 107 LINE",
"109 414 LINE",
"159 414 LINE",
"159 432 LINE",
"-10 432 LINE",
"-10 414 LINE",
"27 414 LINE SMOOTH",
"35 414 OFFCURVE",
"39 408 OFFCURVE",
"41 400 CURVE SMOOTH",
"165 0 LINE",
"192 0 LINE",
"293 309 LINE",
"394 0 LINE",
"421 0 LINE",
"545 400 LINE SMOOTH",
"548 408 OFFCURVE",
"551 414 OFFCURVE",
"559 414 CURVE SMOOTH",
"596 414 LINE",
"596 432 LINE"
);
}
);
width = 586;
}
);
leftKerningGroup = v;
leftMetricsKey = "=v";
rightKerningGroup = v;
rightMetricsKey = "=v";
unicode = 0077;
},
{
glyphname = x;
layers = (
{
anchors = (
{
name = bottom;
position = "{215, 0}";
},
{
name = top;
position = "{215, 432}";
}
);
hints = (
{
horizontal = 1;
origin = "{0, 20}";
target = "{0, 19}";
},
{
horizontal = 1;
origin = "{0, 8}";
target = "{0, 9}";
},
{
horizontal = 1;
origin = "{0, 4}";
target = down;
type = TopGhost;
},
{
horizontal = 1;
origin = "{0, 25}";
target = up;
type = BottomGhost;
}
);
layerId = UUID0;
paths = (
{
closed = 1;
nodes = (
"286 432 LINE",
"286 414 LINE",
"337 414 LINE",
"234 258 LINE",
"129 438 LINE",
"117 435 OFFCURVE",
"93 432 OFFCURVE",
"57 432 CURVE SMOOTH",
"10 432 LINE",
"10 414 LINE",
"51 414 LINE SMOOTH",
"59 414 OFFCURVE",
"62 411 OFFCURVE",
"65 406 CURVE SMOOTH",
"180 209 LINE",
"60 28 LINE SMOOTH",
"53 18 OFFCURVE",
"52 18 OFFCURVE",
"42 18 CURVE SMOOTH",
"5 18 LINE",
"5 0 LINE",
"139 0 LINE",
"139 18 LINE",
"88 18 LINE",
"196 182 LINE",
"306 -6 LINE",
"318 -3 OFFCURVE",
"342 0 OFFCURVE",
"378 0 CURVE SMOOTH",
"425 0 LINE",
"425 18 LINE",
"384 18 LINE SMOOTH",
"376 18 OFFCURVE",
"373 21 OFFCURVE",
"370 26 CURVE SMOOTH",
"250 231 LINE",
"365 404 LINE SMOOTH",
"372 414 OFFCURVE",
"373 414 OFFCURVE",
"383 414 CURVE SMOOTH",
"420 414 LINE",
"420 432 LINE"
);
}
);
width = 430;
}
);
leftKerningGroup = x;
leftMetricsKey = "=n*.1";
rightKerningGroup = x;
rightMetricsKey = "=n*.15";
unicode = 0078;
},
{
glyphname = y;
layers = (
{
anchors = (
{
name = bottom;
position = "{264, -82}";
},
{
name = top;
position = "{224, 432}";
}
);
hints = (
{
horizontal = 1;
place = "{414, 18}";
},
{
horizontal = 1;
place = "{-228, 21}";
target = up;
type = BottomGhost;
}
);
layerId = UUID0;
paths = (
{
closed = 1;
nodes = (
"290 432 LINE",
"290 414 LINE",
"341 414 LINE",
"225 98 LINE",
"110 414 LINE",
"160 414 LINE",
"160 432 LINE",
"-10 432 LINE",
"-10 414 LINE",
"27 414 LINE SMOOTH",
"35 414 OFFCURVE",
"38 408 OFFCURVE",
"41 400 CURVE SMOOTH",
"189 3 LINE",
"172 -43 LINE SMOOTH",
"147 -112 OFFCURVE",
"106 -148 OFFCURVE",
"48 -173 CURVE",
"52 -199 OFFCURVE",
"76 -228 OFFCURVE",
"97 -228 CURVE SMOOTH",
"136 -228 OFFCURVE",
"162 -145 OFFCURVE",
"193 -63 CURVE SMOOTH",
"366 400 LINE SMOOTH",
"369 408 OFFCURVE",
"372 414 OFFCURVE",
"380 414 CURVE SMOOTH",
"417 414 LINE",
"417 432 LINE"
);
}
);
width = 407;
}
);
leftKerningGroup = v;
leftMetricsKey = "=v";
rightKerningGroup = v;
rightMetricsKey = "=v";
unicode = 0079;
},
{
glyphname = z;
layers = (
{
anchors = (
{
name = bottom;
position = "{213, 0}";
},
{
name = top;
position = "{220, 432}";
}
);
hints = (
{
place = "{55, 18}";
},
{
place = "{341, 18}";
},
{
horizontal = 1;
place = "{0, 18}";
},
{
horizontal = 1;
place = "{414, 18}";
}
);
layerId = UUID0;
paths = (
{
closed = 1;
nodes = (
"121 18 LINE",
"374 414 LINE",
"374 432 LINE",
"131 432 LINE SMOOTH",
"95 432 OFFCURVE",
"71 435 OFFCURVE",
"59 438 CURVE",
"62 426 OFFCURVE",
"65 390 OFFCURVE",
"65 354 CURVE SMOOTH",
"65 304 LINE",
"83 304 LINE",
"98 400 LINE SMOOTH",
"100 411 OFFCURVE",
"106 414 OFFCURVE",
"116 414 CURVE SMOOTH",
"293 414 LINE",
"40 18 LINE",
"40 0 LINE",
"303 0 LINE SMOOTH",
"339 0 OFFCURVE",
"363 -3 OFFCURVE",
"375 -6 CURVE",
"372 6 OFFCURVE",
"369 42 OFFCURVE",
"369 78 CURVE SMOOTH",
"369 128 LINE",
"351 128 LINE",
"336 32 LINE SMOOTH",
"334 21 OFFCURVE",
"328 18 OFFCURVE",
"318 18 CURVE SMOOTH"
);
}
);
width = 415;
}
);
leftKerningGroup = n;
leftMetricsKey = o;
rightKerningGroup = n;
rightMetricsKey = o;
unicode = 007A;
},
{
glyphname = f.alt;
layers = (
{
anchors = (
{
name = bottom;
position = "{150, 0}";
}
);
background = {
paths = (
{
closed = 1;
nodes = (
"178 552 LINE SMOOTH",
"178 611 OFFCURVE",
"201 637 OFFCURVE",
"233 637 CURVE SMOOTH",
"261 637 OFFCURVE",
"274 616 OFFCURVE",
"274 594 CURVE SMOOTH",
"274 575 OFFCURVE",
"268 553 OFFCURVE",
"259 535 CURVE",
"271 525 OFFCURVE",
"289 520 OFFCURVE",
"306 520 CURVE SMOOTH",
"330 520 OFFCURVE",
"341 545 OFFCURVE",
"341 574 CURVE SMOOTH",
"341 613 OFFCURVE",
"317 660 OFFCURVE",
"241 660 CURVE SMOOTH",
"176 660 OFFCURVE",
"116 596 OFFCURVE",
"107 432 CURVE",
"45 432 LINE",
"45 414 LINE",
"92 414 LINE SMOOTH",
"100 414 OFFCURVE",
"106 408 OFFCURVE",
"106 400 CURVE SMOOTH",
"106 32 LINE SMOOTH",
"106 24 OFFCURVE",
"100 18 OFFCURVE",
"92 18 CURVE SMOOTH",
"45 18 LINE",
"45 0 LINE",
"259 0 LINE",
"259 18 LINE",
"194 18 LINE SMOOTH",
"186 18 OFFCURVE",
"178 23 OFFCURVE",
"178 30 CURVE",
"178 414 LINE",
"278 414 LINE",
"278 432 LINE",
"178 432 LINE"
);
}
);
};
hints = (
{
horizontal = 1;
origin = "{0, 11}";
target = "{0, 10}";
},
{
horizontal = 1;
origin = "{0, 0}";
target = "{0, 1}";
},
{
horizontal = 1;
origin = "{0, 30}";
target = "{0, 27}";
},
{
origin = "{0, 6}";
target = "{0, 17}";
}
);
layerId = UUID0;
paths = (
{
closed = 1;
nodes = (
"45 432 LINE",
"45 414 LINE",
"92 414 LINE SMOOTH",
"100 414 OFFCURVE",
"106 408 OFFCURVE",
"106 400 CURVE SMOOTH",
"106 32 LINE SMOOTH",
"106 24 OFFCURVE",
"100 18 OFFCURVE",
"92 18 CURVE SMOOTH",
"45 18 LINE",
"45 0 LINE",
"259 0 LINE",
"259 18 LINE",
"194 18 LINE SMOOTH",
"185 18 OFFCURVE",
"178 24 OFFCURVE",
"178 30 CURVE",
"178 414 LINE",
"278 414 LINE",
"278 432 LINE",
"175 432 LINE",
"167 463 OFFCURVE",
"163 486 OFFCURVE",
"163 506 CURVE SMOOTH",
"163 570 OFFCURVE",
"201 591 OFFCURVE",
"316 591 CURVE",
"316 632 OFFCURVE",
"304 654 OFFCURVE",
"281 654 CURVE SMOOTH",
"206 654 OFFCURVE",
"138 565 OFFCURVE",
"111 432 CURVE"
);
}
);
width = 299;
}
);
leftKerningGroup = f;
leftMetricsKey = f;
rightKerningGroup = f;
},
{
glyphname = ordfeminine;
layers = (
{
hints = (
{
place = "{20, 51}";
},
{
place = "{37, 48}";
},
{
place = "{168, 51}";
},
{
horizontal = 1;
place = "{376, 19}";
},
{
horizontal = 1;
place = "{375, 21}";
target = up;
type = BottomGhost;
},
{
horizontal = 1;
place = "{441, -20}";
target = down;
type = TopGhost;
},
{
horizontal = 1;
place = "{440, -20}";
target = down;
type = TopGhost;
},
{
horizontal = 1;
place = "{648, -20}";
target = down;
type = TopGhost;
}
);
layerId = UUID0;
paths = (
{
closed = 1;
nodes = (
"85 618 OFFCURVE",
"98 634 OFFCURVE",
"122 634 CURVE SMOOTH",
"154 634 OFFCURVE",
"168 605 OFFCURVE",
"168 564 CURVE SMOOTH",
"168 517 LINE",
"161 518 OFFCURVE",
"148 519 OFFCURVE",
"133 519 CURVE SMOOTH",
"55 519 OFFCURVE",
"20 477 OFFCURVE",
"20 438 CURVE SMOOTH",
"20 397 OFFCURVE",
"51 376 OFFCURVE",
"85 376 CURVE SMOOTH",
"117 376 OFFCURVE",
"152 395 OFFCURVE",
"168 435 CURVE",
"172 395 OFFCURVE",
"193 375 OFFCURVE",
"220 375 CURVE SMOOTH",
"256 375 OFFCURVE",
"270 398 OFFCURVE",
"270 424 CURVE SMOOTH",
"270 429 OFFCURVE",
"269 435 OFFCURVE",
"268 441 CURVE",
"262 441 OFFCURVE",
"256 440 OFFCURVE",
"250 440 CURVE",
"251 435 OFFCURVE",
"252 429 OFFCURVE",
"252 423 CURVE SMOOTH",
"252 409 OFFCURVE",
"247 395 OFFCURVE",
"233 395 CURVE SMOOTH",
"226 395 OFFCURVE",
"219 402 OFFCURVE",
"219 422 CURVE SMOOTH",
"219 550 LINE SMOOTH",
"219 603 OFFCURVE",
"190 638 OFFCURVE",
"143 646 CURVE SMOOTH",
"136 647 OFFCURVE",
"129 648 OFFCURVE",
"122 648 CURVE SMOOTH",
"63 648 OFFCURVE",
"37 620 OFFCURVE",
"37 581 CURVE SMOOTH",
"37 564 OFFCURVE",
"44 549 OFFCURVE",
"62 549 CURVE SMOOTH",
"74 549 OFFCURVE",
"86 552 OFFCURVE",
"93 559 CURVE",
"88 570 OFFCURVE",
"85 583 OFFCURVE",
"85 593 CURVE SMOOTH"
);
},
{
closed = 1;
nodes = (
"82 398 OFFCURVE",
"71 419 OFFCURVE",
"71 441 CURVE SMOOTH",
"71 484 OFFCURVE",
"110 505 OFFCURVE",
"149 505 CURVE SMOOTH",
"154 505 OFFCURVE",
"160 505 OFFCURVE",
"167 504 CURVE",
"164 431 OFFCURVE",
"132 398 OFFCURVE",
"102 398 CURVE SMOOTH"
);
}
);
width = 275;
}
);
leftKerningGroup = ordfeminine;
rightKerningGroup = ordfeminine;
unicode = 00AA;
},
{
glyphname = ordmasculine;
layers = (
{
hints = (
{
place = "{20, 54}";
},
{
place = "{217, 54}";
},
{
horizontal = 1;
place = "{375, 21}";
target = up;
type = BottomGhost;
},
{
horizontal = 1;
place = "{648, -20}";
target = down;
type = TopGhost;
}
);
layerId = UUID0;
paths = (
{
closed = 1;
nodes = (
"20 425 OFFCURVE",
"73 375 OFFCURVE",
"145 375 CURVE SMOOTH",
"217 375 OFFCURVE",
"271 425 OFFCURVE",
"271 512 CURVE SMOOTH",
"271 599 OFFCURVE",
"217 648 OFFCURVE",
"145 648 CURVE SMOOTH",
"73 648 OFFCURVE",
"20 599 OFFCURVE",
"20 512 CURVE SMOOTH"
);
},
{
closed = 1;
nodes = (
"74 590 OFFCURVE",
"105 635 OFFCURVE",
"145 635 CURVE SMOOTH",
"185 635 OFFCURVE",
"217 590 OFFCURVE",
"217 512 CURVE SMOOTH",
"217 433 OFFCURVE",
"185 388 OFFCURVE",
"145 388 CURVE SMOOTH",
"105 388 OFFCURVE",
"74 433 OFFCURVE",
"74 512 CURVE SMOOTH"
);
}
);
width = 291;
}
);
leftKerningGroup = ordmasculine;
rightKerningGroup = ordmasculine;
unicode = 00BA;
},
{
glyphname = pi;
layers = (
{
hints = (
{
place = "{116, 71}";
},
{
place = "{350, 72}";
},
{
horizontal = 1;
place = "{0, 18}";
},
{
horizontal = 1;
place = "{399, 33}";
}
);
layerId = UUID0;
paths = (
{
closed = 1;
nodes = (
"350 0 LINE",
"483 0 LINE",
"483 18 LINE",
"436 18 LINE SMOOTH",
"428 18 OFFCURVE",
"422 24 OFFCURVE",
"422 32 CURVE SMOOTH",
"422 399 LINE",
"493 399 LINE",
"493 432 LINE",
"45 432 LINE",
"45 399 LINE",
"116 399 LINE",
"116 0 LINE",
"187 0 LINE",
"187 399 LINE",
"350 399 LINE"
);
}
);
width = 532;
}
);
leftKerningGroup = pi;
rightKerningGroup = pi;
unicode = 03C0;
},
{
glyphname = zero;
layers = (
{
hints = (
{
place = "{24, 77}";
},
{
place = "{362, 77}";
},
{
horizontal = 1;
place = "{-12, 21}";
},
{
horizontal = 1;
place = "{557, 22}";
}
);
layerId = UUID0;
paths = (
{
closed = 1;
nodes = (
"24 95 OFFCURVE",
"111 -12 OFFCURVE",
"231 -12 CURVE SMOOTH",
"351 -12 OFFCURVE",
"439 95 OFFCURVE",
"439 283 CURVE SMOOTH",
"439 472 OFFCURVE",
"351 579 OFFCURVE",
"231 579 CURVE SMOOTH",
"111 579 OFFCURVE",
"24 472 OFFCURVE",
"24 283 CURVE SMOOTH"
);
},
{
closed = 1;
nodes = (
"101 457 OFFCURVE",
"161 557 OFFCURVE",
"231 557 CURVE SMOOTH",
"301 557 OFFCURVE",
"362 457 OFFCURVE",
"362 283 CURVE SMOOTH",
"362 109 OFFCURVE",
"301 9 OFFCURVE",
"231 9 CURVE SMOOTH",
"161 9 OFFCURVE",
"101 109 OFFCURVE",
"101 283 CURVE SMOOTH"
);
}
);
width = 463;
}
);
leftKerningGroup = zero;
rightKerningGroup = zero;
unicode = 0030;
},
{
glyphname = one;
layers = (
{
hints = (
{
place = "{204, 74}";
},
{
horizontal = 1;
place = "{0, 19}";
},
{
horizontal = 1;
place = "{579, -20}";
target = down;
type = TopGhost;
}
);
layerId = UUID0;
paths = (
{
closed = 1;
nodes = (
"73 0 LINE",
"387 0 LINE",
"387 19 LINE",
"293 19 LINE SMOOTH",
"285 19 OFFCURVE",
"278 25 OFFCURVE",
"278 33 CURVE SMOOTH",
"278 465 LINE SMOOTH",
"278 522 OFFCURVE",
"283 560 OFFCURVE",
"288 579 CURVE",
"265 570 OFFCURVE",
"207 555 OFFCURVE",
"152 547 CURVE SMOOTH",
"61 534 LINE",
"63 510 LINE",
"174 516 LINE",
"194 516 OFFCURVE",
"204 509 OFFCURVE",
"204 491 CURVE SMOOTH",
"204 31 LINE",
"203 24 OFFCURVE",
"197 19 OFFCURVE",
"190 19 CURVE SMOOTH",
"73 19 LINE"
);
}
);
width = 463;
}
);
leftKerningGroup = one;
rightKerningGroup = one;
unicode = 0031;
},
{
glyphname = two;
layers = (
{
hints = (
{
horizontal = 1;
origin = "{0, 6}";
target = "{0, 21}";
},
{
horizontal = 1;
origin = "{0, 43}";
target = "{0, 28}";
},
{
origin = "{0, 31}";
target = "{0, 40}";
},
{
origin = "{0, 2}";
target = "{0, 25}";
},
{
origin = "{0, 15}";
target = "{0, 13}";
}
);
layerId = UUID0;
paths = (
{
closed = 1;
nodes = (
"284 557 OFFCURVE",
"319 510 OFFCURVE",
"319 434 CURVE SMOOTH",
"319 386 OFFCURVE",
"304 313 OFFCURVE",
"247 250 CURVE SMOOTH",
"20 0 LINE",
"305 0 LINE SMOOTH",
"363 0 OFFCURVE",
"401 -4 OFFCURVE",
"420 -9 CURVE",
"416 9 OFFCURVE",
"410 67 OFFCURVE",
"410 124 CURVE SMOOTH",
"410 172 LINE",
"387 172 LINE",
"374 85 LINE SMOOTH",
"371 67 OFFCURVE",
"362 63 OFFCURVE",
"346 63 CURVE SMOOTH",
"92 63 LINE",
"100 45 LINE",
"265 224 LINE SMOOTH",
"326 291 OFFCURVE",
"397 354 OFFCURVE",
"397 447 CURVE SMOOTH",
"397 513 OFFCURVE",
"346 579 OFFCURVE",
"238 579 CURVE SMOOTH",
"113 579 OFFCURVE",
"60 520 OFFCURVE",
"60 454 CURVE SMOOTH",
"60 424 OFFCURVE",
"71 399 OFFCURVE",
"96 399 CURVE SMOOTH",
"117 399 OFFCURVE",
"134 407 OFFCURVE",
"142 414 CURVE",
"133 433 OFFCURVE",
"129 455 OFFCURVE",
"129 475 CURVE SMOOTH",
"129 520 OFFCURVE",
"160 557 OFFCURVE",
"222 557 CURVE SMOOTH"
);
}
);
width = 463;
}
);
leftKerningGroup = two;
rightKerningGroup = two;
unicode = 0032;
},
{
glyphname = three;
layers = (
{
hints = (
{
horizontal = 1;
origin = "{0, 24}";
target = "{0, 9}";
},
{
horizontal = 1;
place = "{286, 19}";
},
{
horizontal = 1;
origin = "{0, 52}";
target = "{0, 37}";
},
{
origin = "{0, 21}";
target = "{0, 12}";
},
{
origin = "{0, 6}";
target = "{0, 27}";
},
{
origin = "{0, 40}";
target = "{0, 49}";
},
{
origin = "{0, 55}";
target = "{0, 34}";
}
);
layerId = UUID0;
paths = (
{
closed = 1;
nodes = (
"128 282 LINE",
"144 285 OFFCURVE",
"160 286 OFFCURVE",
"175 286 CURVE SMOOTH",
"264 286 OFFCURVE",
"334 243 OFFCURVE",
"334 149 CURVE SMOOTH",
"334 77 OFFCURVE",
"290 9 OFFCURVE",
"207 9 CURVE SMOOTH",
"150 9 OFFCURVE",
"123 46 OFFCURVE",
"123 92 CURVE SMOOTH",
"123 111 OFFCURVE",
"127 134 OFFCURVE",
"136 152 CURVE",
"128 160 OFFCURVE",
"110 168 OFFCURVE",
"90 168 CURVE SMOOTH",
"65 168 OFFCURVE",
"54 142 OFFCURVE",
"54 112 CURVE SMOOTH",
"54 46 OFFCURVE",
"101 -12 OFFCURVE",
"207 -12 CURVE SMOOTH",
"342 -12 OFFCURVE",
"410 73 OFFCURVE",
"410 160 CURVE SMOOTH",
"410 232 OFFCURVE",
"348 304 OFFCURVE",
"224 310 CURVE",
"226 303 LINE",
"323 323 OFFCURVE",
"376 392 OFFCURVE",
"376 455 CURVE SMOOTH",
"376 536 OFFCURVE",
"294 579 OFFCURVE",
"216 579 CURVE SMOOTH",
"144 579 OFFCURVE",
"76 543 OFFCURVE",
"76 463 CURVE SMOOTH",
"76 434 OFFCURVE",
"88 408 OFFCURVE",
"112 408 CURVE SMOOTH",
"130 408 OFFCURVE",
"148 413 OFFCURVE",
"159 423 CURVE",
"150 442 OFFCURVE",
"144 465 OFFCURVE",
"144 484 CURVE SMOOTH",
"144 526 OFFCURVE",
"171 557 OFFCURVE",
"216 557 CURVE SMOOTH",
"271 557 OFFCURVE",
"303 509 OFFCURVE",
"303 455 CURVE SMOOTH",
"303 393 OFFCURVE",
"260 326 OFFCURVE",
"168 309 CURVE SMOOTH",
"125 301 LINE"
);
}
);
width = 463;
}
);
leftKerningGroup = three;
rightKerningGroup = three;
unicode = 0033;
},
{
glyphname = four;
layers = (
{
hints = (
{
horizontal = 1;
origin = "{0, 14}";
target = "{0, 13}";
},
{
horizontal = 1;
origin = "{0, 2}";
target = "{0, 5}";
},
{
origin = "{0, 9}";
target = "{0, 20}";
}
);
layerId = UUID0;
paths = (
{
closed = 1;
nodes = (
"350 579 LINE",
"317 579 LINE",
"0 134 LINE",
"434 134 LINE",
"434 165 LINE",
"33 165 LINE",
"43 146 LINE",
"290 491 LINE",
"276 496 LINE",
"276 33 LINE SMOOTH",
"276 25 OFFCURVE",
"270 19 OFFCURVE",
"262 19 CURVE SMOOTH",
"193 19 LINE",
"193 0 LINE",
"434 0 LINE",
"434 19 LINE",
"365 19 LINE SMOOTH",
"357 19 OFFCURVE",
"350 24 OFFCURVE",
"350 31 CURVE SMOOTH"
);
}
);
width = 463;
}
);
leftKerningGroup = four;
rightKerningGroup = four;
unicode = 0034;
},
{
glyphname = five;
layers = (
{
hints = (
{
place = "{57, 69}";
},
{
place = "{337, 76}";
},
{
horizontal = 1;
place = "{-12, 21}";
},
{
horizontal = 1;
place = "{302, 29}";
},
{
horizontal = 1;
place = "{609, -20}";
target = down;
type = TopGhost;
},
{
horizontal = 1;
place = "{566, -65}";
}
);
layerId = UUID0;
paths = (
{
closed = 1;
nodes = (
"93 288 LINE",
"122 298 OFFCURVE",
"151 302 OFFCURVE",
"178 302 CURVE SMOOTH",
"267 302 OFFCURVE",
"337 253 OFFCURVE",
"337 149 CURVE SMOOTH",
"337 77 OFFCURVE",
"294 9 OFFCURVE",
"210 9 CURVE SMOOTH",
"153 9 OFFCURVE",
"126 46 OFFCURVE",
"126 92 CURVE SMOOTH",
"126 111 OFFCURVE",
"130 134 OFFCURVE",
"139 152 CURVE",
"131 160 OFFCURVE",
"113 168 OFFCURVE",
"93 168 CURVE SMOOTH",
"68 168 OFFCURVE",
"57 142 OFFCURVE",
"57 112 CURVE SMOOTH",
"57 46 OFFCURVE",
"104 -12 OFFCURVE",
"210 -12 CURVE SMOOTH",
"345 -12 OFFCURVE",
"413 73 OFFCURVE",
"413 160 CURVE SMOOTH",
"413 245 OFFCURVE",
"345 331 OFFCURVE",
"210 331 CURVE SMOOTH",
"184 331 OFFCURVE",
"156 328 OFFCURVE",
"125 321 CURVE",
"140 501 LINE",
"310 501 LINE SMOOTH",
"368 501 OFFCURVE",
"387 504 OFFCURVE",
"393 575 CURVE SMOOTH",
"396 609 LINE",
"375 609 LINE",
"373 589 LINE SMOOTH",
"371 571 OFFCURVE",
"360 566 OFFCURVE",
"344 566 CURVE SMOOTH",
"115 566 LINE"
);
}
);
width = 463;
}
);
leftKerningGroup = five;
rightKerningGroup = five;
unicode = 0035;
},
{
glyphname = six;
layers = (
{
hints = (
{
place = "{51, 81}";
},
{
place = "{347, 77}";
},
{
horizontal = 1;
place = "{-12, 21}";
},
{
horizontal = 1;
place = "{315, 29}";
},
{
horizontal = 1;
place = "{579, -20}";
target = down;
type = TopGhost;
}
);
layerId = UUID0;
paths = (
{
closed = 1;
nodes = (
"360 579 LINE",
"157 515 OFFCURVE",
"51 334 OFFCURVE",
"51 188 CURVE SMOOTH",
"51 77 OFFCURVE",
"113 -12 OFFCURVE",
"239 -12 CURVE SMOOTH",
"346 -12 OFFCURVE",
"424 54 OFFCURVE",
"424 166 CURVE SMOOTH",
"424 276 OFFCURVE",
"337 344 OFFCURVE",
"254 344 CURVE SMOOTH",
"206 344 OFFCURVE",
"159 320 OFFCURVE",
"133 271 CURVE",
"137 263 LINE",
"170 450 OFFCURVE",
"302 534 OFFCURVE",
"368 555 CURVE"
);
},
{
closed = 1;
nodes = (
"132 269 OFFCURVE",
"184 315 OFFCURVE",
"238 315 CURVE SMOOTH",
"293 315 OFFCURVE",
"347 264 OFFCURVE",
"347 163 CURVE SMOOTH",
"347 66 OFFCURVE",
"298 9 OFFCURVE",
"239 9 CURVE SMOOTH",
"181 9 OFFCURVE",
"132 71 OFFCURVE",
"132 176 CURVE SMOOTH"
);
}
);
width = 463;
}
);
leftKerningGroup = six;
rightKerningGroup = six;
unicode = 0036;
},
{
glyphname = seven;
layers = (
{
hints = (
{
place = "{176, 69}";
},
{
place = "{70, 24}";
},
{
horizontal = 1;
place = "{-12, 21}";
target = up;
type = BottomGhost;
},
{
horizontal = 1;
place = "{566, -62}";
}
);
layerId = UUID0;
paths = (
{
closed = 1;
nodes = (
"424 566 LINE",
"175 566 LINE SMOOTH",
"117 566 OFFCURVE",
"79 571 OFFCURVE",
"61 576 CURVE",
"65 557 OFFCURVE",
"70 500 OFFCURVE",
"70 443 CURVE SMOOTH",
"70 394 LINE",
"94 394 LINE",
"106 481 LINE SMOOTH",
"108 500 OFFCURVE",
"117 504 OFFCURVE",
"135 504 CURVE SMOOTH",
"390 504 LINE",
"375 526 LINE",
"230 188 LINE SMOOTH",
"204 127 OFFCURVE",
"176 62 OFFCURVE",
"176 27 CURVE SMOOTH",
"176 3 OFFCURVE",
"186 -12 OFFCURVE",
"215 -12 CURVE SMOOTH",
"233 -12 OFFCURVE",
"251 -7 OFFCURVE",
"262 3 CURVE",
"250 29 OFFCURVE",
"245 55 OFFCURVE",
"245 81 CURVE SMOOTH",
"245 114 OFFCURVE",
"254 148 OFFCURVE",
"270 188 CURVE SMOOTH"
);
}
);
width = 463;
}
);
leftKerningGroup = seven;
rightKerningGroup = seven;
unicode = 0037;
},
{
glyphname = eight;
layers = (
{
hints = (
{
place = "{46, 78}";
},
{
place = "{72, 70}";
},
{
place = "{320, 70}";
},
{
place = "{339, 51}";
},
{
place = "{339, 77}";
},
{
horizontal = 1;
place = "{-12, 21}";
},
{
horizontal = 1;
place = "{289, 22}";
},
{
horizontal = 1;
place = "{557, 22}";
}
);
layerId = UUID0;
paths = (
{
closed = 1;
nodes = (
"72 361 OFFCURVE",
"116 312 OFFCURVE",
"182 297 CURVE",
"183 305 LINE",
"102 289 OFFCURVE",
"46 234 OFFCURVE",
"46 148 CURVE SMOOTH",
"46 46 OFFCURVE",
"125 -12 OFFCURVE",
"231 -12 CURVE SMOOTH",
"338 -12 OFFCURVE",
"416 46 OFFCURVE",
"416 148 CURVE SMOOTH",
"416 234 OFFCURVE",
"361 289 OFFCURVE",
"278 305 CURVE",
"279 297 LINE",
"345 312 OFFCURVE",
"390 361 OFFCURVE",
"390 435 CURVE SMOOTH",
"390 526 OFFCURVE",
"323 579 OFFCURVE",
"231 579 CURVE SMOOTH",
"139 579 OFFCURVE",
"72 526 OFFCURVE",
"72 435 CURVE SMOOTH"
);
},
{
closed = 1;
nodes = (
"124 239 OFFCURVE",
"173 289 OFFCURVE",
"231 289 CURVE SMOOTH",
"288 289 OFFCURVE",
"339 239 OFFCURVE",
"339 149 CURVE SMOOTH",
"339 60 OFFCURVE",
"288 9 OFFCURVE",
"231 9 CURVE SMOOTH",
"173 9 OFFCURVE",
"124 60 OFFCURVE",
"124 149 CURVE SMOOTH"
);
},
{
closed = 1;
nodes = (
"142 513 OFFCURVE",
"183 557 OFFCURVE",
"231 557 CURVE SMOOTH",
"279 557 OFFCURVE",
"320 513 OFFCURVE",
"320 434 CURVE SMOOTH",
"320 355 OFFCURVE",
"279 311 OFFCURVE",
"231 311 CURVE SMOOTH",
"183 311 OFFCURVE",
"142 355 OFFCURVE",
"142 434 CURVE SMOOTH"
);
}
);
width = 463;
}
);
leftKerningGroup = eight;
rightKerningGroup = eight;
unicode = 0038;
},
{
glyphname = nine;
layers = (
{
hints = (
{
place = "{55, 77}";
},
{
place = "{340, 79}";
},
{
horizontal = 1;
place = "{217, 29}";
},
{
horizontal = 1;
place = "{557, 22}";
},
{
horizontal = 1;
place = "{-12, 21}";
target = up;
type = BottomGhost;
}
);
layerId = UUID0;
paths = (
{
closed = 1;
nodes = (
"120 -12 LINE",
"325 54 OFFCURVE",
"419 234 OFFCURVE",
"419 380 CURVE SMOOTH",
"419 490 OFFCURVE",
"355 579 OFFCURVE",
"232 579 CURVE SMOOTH",
"125 579 OFFCURVE",
"55 512 OFFCURVE",
"55 398 CURVE SMOOTH",
"55 286 OFFCURVE",
"144 217 OFFCURVE",
"225 217 CURVE SMOOTH",
"271 217 OFFCURVE",
"316 240 OFFCURVE",
"340 290 CURVE",
"336 297 LINE",
"304 113 OFFCURVE",
"176 33 OFFCURVE",
"112 11 CURVE"
);
},
{
closed = 1;
nodes = (
"340 295 OFFCURVE",
"294 246 OFFCURVE",
"240 246 CURVE SMOOTH",
"186 246 OFFCURVE",
"132 301 OFFCURVE",
"132 407 CURVE SMOOTH",
"132 502 OFFCURVE",
"177 557 OFFCURVE",
"233 557 CURVE SMOOTH",
"290 557 OFFCURVE",
"340 495 OFFCURVE",
"340 390 CURVE SMOOTH"
);
}
);
width = 463;
}
);
leftKerningGroup = nine;
rightKerningGroup = nine;
unicode = 0039;
},
{
glyphname = zero.lf;
layers = (
{
hints = (
{
horizontal = 1;
origin = "{0, 2}";
target = "{1, 8}";
},
{
horizontal = 1;
origin = "{0, 8}";
target = "{1, 2}";
},
{
origin = "{0, 11}";
target = "{1, 11}";
},
{
origin = "{1, 5}";
target = "{0, 5}";
}
);
layerId = UUID0;
paths = (
{
closed = 1;
nodes = (
"50 116 OFFCURVE",
"147 -12 OFFCURVE",
"296 -12 CURVE SMOOTH",
"446 -12 OFFCURVE",
"544 117 OFFCURVE",
"544 314 CURVE SMOOTH",
"544 513 OFFCURVE",
"446 642 OFFCURVE",
"296 642 CURVE SMOOTH",
"147 642 OFFCURVE",
"50 513 OFFCURVE",
"50 314 CURVE SMOOTH"
);
},
{
closed = 1;
nodes = (
"133 491 OFFCURVE",
"201 618 OFFCURVE",
"296 618 CURVE SMOOTH",
"392 618 OFFCURVE",
"461 490 OFFCURVE",
"461 314 CURVE SMOOTH",
"461 139 OFFCURVE",
"392 12 OFFCURVE",
"296 12 CURVE SMOOTH",
"201 12 OFFCURVE",
"133 138 OFFCURVE",
"133 314 CURVE SMOOTH"
);
}
);
userData = {
RMXScaler = {
adjustSpace = 21;
height = 110.8;
weight = 5;
width = 120;
};
};
width = 594;
},
{
associatedMasterId = UUID0;
hints = (
{
place = "{23, 112}";
},
{
place = "{342, 112}";
},
{
horizontal = 1;
place = "{-12, 28}";
},
{
horizontal = 1;
place = "{550, 29}";
}
);
layerId = UUID1;
name = "new Layer";
paths = (
{
closed = 1;
nodes = (
"49 106 OFFCURVE",
"156 -13 OFFCURVE",
"304 -13 CURVE SMOOTH",
"453 -13 OFFCURVE",
"561 106 OFFCURVE",
"561 314 CURVE SMOOTH",
"561 523 OFFCURVE",
"452 642 OFFCURVE",
"304 642 CURVE SMOOTH",
"156 642 OFFCURVE",
"49 522 OFFCURVE",
"49 314 CURVE SMOOTH"
);
},
{
closed = 1;
nodes = (
"172 501 OFFCURVE",
"229 610 OFFCURVE",
"304 610 CURVE SMOOTH",
"380 610 OFFCURVE",
"438 501 OFFCURVE",
"438 314 CURVE SMOOTH",
"438 126 OFFCURVE",
"380 17 OFFCURVE",
"304 17 CURVE SMOOTH",
"229 17 OFFCURVE",
"172 126 OFFCURVE",
"172 314 CURVE SMOOTH"
);
}
);
userData = {
RMXScaler = {
adjustSpace = 21;
height = 110.8;
weight = 10;
width = 120;
};
};
width = 610;
}
);
leftKerningGroup = zero.lf;
rightKerningGroup = zero.lf;
},
{
glyphname = one.lf;
layers = (
{
hints = (
{
horizontal = 1;
origin = "{0, 0}";
target = "{0, 24}";
},
{
horizontal = 1;
origin = "{0, 10}";
target = down;
type = TopGhost;
},
{
origin = "{0, 20}";
target = "{0, 6}";
}
);
layerId = UUID0;
paths = (
{
closed = 1;
nodes = (
"110 0 LINE",
"478 0 LINE",
"478 20 LINE",
"365 20 LINE SMOOTH",
"356 20 OFFCURVE",
"347 27 OFFCURVE",
"347 36 CURVE SMOOTH",
"347 515 LINE SMOOTH",
"347 572 OFFCURVE",
"352 617 OFFCURVE",
"359 642 CURVE",
"331 631 OFFCURVE",
"266 614 OFFCURVE",
"205 606 CURVE SMOOTH",
"96 592 LINE",
"98 566 LINE",
"231 572 LINE SMOOTH",
"256 573 OFFCURVE",
"267 562 OFFCURVE",
"267 545 CURVE SMOOTH",
"267 34 LINE SMOOTH",
"267 26 OFFCURVE",
"259 20 OFFCURVE",
"250 20 CURVE SMOOTH",
"110 20 LINE"
);
}
);
userData = {
RMXScaler = {
adjustSpace = 21;
height = 110.8;
weight = 5;
width = 120;
};
};
width = 594;
},
{
associatedMasterId = UUID0;
hints = (
{
place = "{197, 109}";
},
{
horizontal = 1;
place = "{0, 26}";
},
{
horizontal = 1;
place = "{579, -20}";
target = down;
type = TopGhost;
}
);
layerId = UUID1;
name = "new Layer";
paths = (
{
closed = 1;
nodes = (
"102 0 LINE",
"510 0 LINE",
"510 28 LINE",
"397 28 LINE SMOOTH",
"388 28 OFFCURVE",
"379 34 OFFCURVE",
"379 42 CURVE SMOOTH",
"379 515 LINE SMOOTH",
"379 579 OFFCURVE",
"385 620 OFFCURVE",
"391 642 CURVE",
"359 630 OFFCURVE",
"256 614 OFFCURVE",
"197 606 CURVE SMOOTH",
"88 592 LINE",
"90 558 LINE",
"224 564 LINE",
"256 566 OFFCURVE",
"260 551 OFFCURVE",
"260 537 CURVE SMOOTH",
"260 44 LINE",
"259 35 OFFCURVE",
"252 28 OFFCURVE",
"243 28 CURVE SMOOTH",
"102 28 LINE"
);
}
);
userData = {
RMXScaler = {
adjustSpace = 21;
height = 110.8;
weight = 10;
width = 120;
};
};
width = 610;
}
);
leftKerningGroup = one.lf;
rightKerningGroup = one.lf;
},
{
glyphname = two.lf;
layers = (
{
hints = (
{
horizontal = 1;
origin = "{0, 7}";
target = "{0, 20}";
},
{
horizontal = 1;
origin = "{0, 28}";
target = "{0, 43}";
},
{
horizontal = 1;
origin = "{0, 6}";
target = up;
type = BottomGhost;
},
{
origin = "{0, 31}";
target = "{0, 40}";
},
{
origin = "{0, 15}";
target = "{0, 13}";
},
{
origin = "{0, 2}";
target = "{0, 25}";
}
);
layerId = UUID0;
paths = (
{
closed = 1;
nodes = (
"361 618 OFFCURVE",
"404 565 OFFCURVE",
"404 481 CURVE SMOOTH",
"404 413 OFFCURVE",
"397 357 OFFCURVE",
"324 282 CURVE SMOOTH",
"46 -3 LINE",
"384 0 LINE SMOOTH",
"449 0 OFFCURVE",
"496 -4 OFFCURVE",
"521 -10 CURVE",
"516 10 OFFCURVE",
"509 74 OFFCURVE",
"509 137 CURVE SMOOTH",
"509 190 LINE",
"485 190 LINE",
"470 94 LINE SMOOTH",
"466 74 OFFCURVE",
"455 70 OFFCURVE",
"436 70 CURVE SMOOTH",
"133 70 LINE",
"146 53 LINE",
"342 253 LINE SMOOTH",
"409 322 OFFCURVE",
"491 393 OFFCURVE",
"491 495 CURVE SMOOTH",
"491 568 OFFCURVE",
"430 642 OFFCURVE",
"301 642 CURVE SMOOTH",
"156 642 OFFCURVE",
"95 576 OFFCURVE",
"95 503 CURVE SMOOTH",
"95 470 OFFCURVE",
"107 443 OFFCURVE",
"134 443 CURVE SMOOTH",
"159 443 OFFCURVE",
"178 453 OFFCURVE",
"185 459 CURVE",
"174 480 OFFCURVE",
"169 507 OFFCURVE",
"169 527 CURVE SMOOTH",
"169 577 OFFCURVE",
"208 618 OFFCURVE",
"285 618 CURVE SMOOTH"
);
}
);
userData = {
RMXScaler = {
adjustSpace = 21;
height = 110.8;
weight = 5;
width = 120;
};
};
width = 594;
},
{
associatedMasterId = UUID0;
hints = (
{
place = "{53, 99}";
},
{
place = "{317, 103}";
},
{
horizontal = 1;
place = "{550, 29}";
},
{
horizontal = 1;
place = "{0, -20}";
target = down;
type = TopGhost;
},
{
horizontal = 1;
place = "{11, 21}";
target = up;
type = BottomGhost;
}
);
layerId = UUID1;
name = "new Layer";
paths = (
{
closed = 1;
nodes = (
"363 610 OFFCURVE",
"402 560 OFFCURVE",
"402 481 CURVE SMOOTH",
"402 410 OFFCURVE",
"388 339 OFFCURVE",
"286 237 CURVE SMOOTH",
"48 0 LINE",
"397 0 LINE SMOOTH",
"475 0 OFFCURVE",
"517 -5 OFFCURVE",
"538 -11 CURVE",
"534 10 OFFCURVE",
"526 73 OFFCURVE",
"526 142 CURVE SMOOTH",
"526 197 LINE",
"486 197 LINE",
"470 97 LINE",
"465 76 OFFCURVE",
"454 73 OFFCURVE",
"436 73 CURVE SMOOTH",
"172 73 LINE",
"318 215 LINE SMOOTH",
"427 321 OFFCURVE",
"518 392 OFFCURVE",
"518 495 CURVE SMOOTH",
"518 568 OFFCURVE",
"445 642 OFFCURVE",
"289 642 CURVE SMOOTH",
"147 642 OFFCURVE",
"87 576 OFFCURVE",
"87 503 CURVE SMOOTH",
"87 464 OFFCURVE",
"104 430 OFFCURVE",
"143 430 CURVE SMOOTH",
"174 430 OFFCURVE",
"199 442 OFFCURVE",
"212 451 CURVE",
"201 472 OFFCURVE",
"196 498 OFFCURVE",
"196 519 CURVE SMOOTH",
"196 568 OFFCURVE",
"231 610 OFFCURVE",
"294 610 CURVE SMOOTH"
);
}
);
userData = {
RMXScaler = {
adjustSpace = 21;
height = 110.8;
weight = 10;
width = 120;
};
};
width = 610;
}
);
leftKerningGroup = two.lf;
rightKerningGroup = two.lf;
},
{
glyphname = three.lf;
layers = (
{
hints = (
{
horizontal = 1;
origin = "{0, 24}";
target = "{0, 9}";
},
{
horizontal = 1;
place = "{317, 24}";
},
{
horizontal = 1;
origin = "{0, 37}";
target = "{0, 52}";
},
{
origin = "{0, 21}";
target = "{0, 12}";
},
{
origin = "{0, 6}";
target = "{0, 27}";
},
{
origin = "{0, 40}";
target = "{0, 49}";
},
{
origin = "{0, 55}";
target = "{0, 34}";
}
);
layerId = UUID0;
paths = (
{
closed = 1;
nodes = (
"174 313 LINE",
"188 316 OFFCURVE",
"205 317 OFFCURVE",
"231 317 CURVE SMOOTH",
"352 317 OFFCURVE",
"424 260 OFFCURVE",
"424 166 CURVE SMOOTH",
"424 76 OFFCURVE",
"358 12 OFFCURVE",
"265 12 CURVE SMOOTH",
"203 12 OFFCURVE",
"163 47 OFFCURVE",
"163 102 CURVE SMOOTH",
"163 125 OFFCURVE",
"169 151 OFFCURVE",
"179 169 CURVE",
"169 179 OFFCURVE",
"147 186 OFFCURVE",
"127 186 CURVE SMOOTH",
"103 186 OFFCURVE",
"88 162 OFFCURVE",
"88 125 CURVE SMOOTH",
"88 41 OFFCURVE",
"157 -12 OFFCURVE",
"265 -12 CURVE SMOOTH",
"408 -12 OFFCURVE",
"511 67 OFFCURVE",
"511 178 CURVE SMOOTH",
"511 268 OFFCURVE",
"422 335 OFFCURVE",
"292 343 CURVE",
"294 336 LINE",
"395 361 OFFCURVE",
"466 434 OFFCURVE",
"466 514 CURVE SMOOTH",
"466 586 OFFCURVE",
"393 642 OFFCURVE",
"297 642 CURVE SMOOTH",
"188 642 OFFCURVE",
"114 590 OFFCURVE",
"114 513 CURVE SMOOTH",
"114 478 OFFCURVE",
"130 453 OFFCURVE",
"154 453 CURVE SMOOTH",
"174 453 OFFCURVE",
"197 460 OFFCURVE",
"207 469 CURVE",
"195 492 OFFCURVE",
"188 517 OFFCURVE",
"188 537 CURVE SMOOTH",
"188 585 OFFCURVE",
"224 618 OFFCURVE",
"276 618 CURVE SMOOTH",
"338 618 OFFCURVE",
"384 570 OFFCURVE",
"384 504 CURVE SMOOTH",
"384 415 OFFCURVE",
"330 360 OFFCURVE",
"224 342 CURVE SMOOTH",
"171 333 LINE"
);
}
);
userData = {
RMXScaler = {
adjustSpace = 21;
height = 110.8;
weight = 5;
width = 120;
};
};
width = 594;
},
{
associatedMasterId = UUID0;
hints = (
{
place = "{47, 97}";
},
{
place = "{69, 96}";
},
{
place = "{305, 97}";
},
{
place = "{327, 75}";
},
{
place = "{327, 100}";
},
{
horizontal = 1;
place = "{-12, 28}";
},
{
horizontal = 1;
place = "{550, 29}";
}
);
layerId = UUID1;
name = "new Layer";
paths = (
{
closed = 1;
nodes = (
"178 305 LINE",
"195 308 OFFCURVE",
"212 309 OFFCURVE",
"232 309 CURVE SMOOTH",
"334 309 OFFCURVE",
"416 264 OFFCURVE",
"416 165 CURVE SMOOTH",
"416 82 OFFCURVE",
"365 17 OFFCURVE",
"285 17 CURVE SMOOTH",
"218 17 OFFCURVE",
"187 60 OFFCURVE",
"187 112 CURVE SMOOTH",
"187 130 OFFCURVE",
"192 156 OFFCURVE",
"202 175 CURVE",
"191 186 OFFCURVE",
"163 197 OFFCURVE",
"135 197 CURVE SMOOTH",
"97 197 OFFCURVE",
"80 164 OFFCURVE",
"80 124 CURVE SMOOTH",
"80 51 OFFCURVE",
"143 -13 OFFCURVE",
"284 -13 CURVE SMOOTH",
"448 -13 OFFCURVE",
"528 81 OFFCURVE",
"528 177 CURVE SMOOTH",
"528 252 OFFCURVE",
"462 327 OFFCURVE",
"331 341 CURVE",
"440 360 OFFCURVE",
"495 441 OFFCURVE",
"495 504 CURVE SMOOTH",
"495 594 OFFCURVE",
"390 642 OFFCURVE",
"292 642 CURVE SMOOTH",
"193 642 OFFCURVE",
"106 601 OFFCURVE",
"106 513 CURVE SMOOTH",
"106 475 OFFCURVE",
"125 440 OFFCURVE",
"162 440 CURVE SMOOTH",
"189 440 OFFCURVE",
"213 449 OFFCURVE",
"230 464 CURVE",
"219 484 OFFCURVE",
"212 509 OFFCURVE",
"212 529 CURVE SMOOTH",
"212 575 OFFCURVE",
"242 610 OFFCURVE",
"295 610 CURVE SMOOTH",
"354 610 OFFCURVE",
"387 560 OFFCURVE",
"387 504 CURVE SMOOTH",
"387 439 OFFCURVE",
"334 366 OFFCURVE",
"219 349 CURVE SMOOTH",
"171 342 LINE"
);
}
);
userData = {
RMXScaler = {
adjustSpace = 21;
height = 110.8;
weight = 10;
width = 120;
};
};
width = 610;
}
);
leftKerningGroup = three.lf;
rightKerningGroup = three.lf;
},
{
glyphname = four.lf;
layers = (
{
hints = (
{
horizontal = 1;
origin = "{0, 14}";
target = "{0, 13}";
},
{
horizontal = 1;
origin = "{0, 2}";
target = "{0, 5}";
},
{
horizontal = 1;
origin = "{0, 1}";
target = down;
type = TopGhost;
},
{
origin = "{0, 9}";
target = "{0, 20}";
}
);
layerId = UUID0;
paths = (
{
closed = 1;
nodes = (
"437 642 LINE",
"405 642 LINE",
"23 148 LINE",
"538 148 LINE",
"538 182 LINE",
"64 182 LINE",
"73 162 LINE",
"372 548 LINE",
"357 548 LINE",
"357 36 LINE SMOOTH",
"357 27 OFFCURVE",
"349 20 OFFCURVE",
"340 20 CURVE SMOOTH",
"257 20 LINE",
"257 0 LINE",
"538 0 LINE",
"538 20 LINE",
"455 20 LINE SMOOTH",
"446 20 OFFCURVE",
"437 26 OFFCURVE",
"437 34 CURVE SMOOTH"
);
}
);
userData = {
RMXScaler = {
adjustSpace = 21;
height = 110.8;
weight = 5;
width = 120;
};
};
width = 594;
},
{
associatedMasterId = UUID0;
hints = (
{
place = "{259, 105}";
},
{
horizontal = 1;
place = "{0, 26}";
},
{
horizontal = 1;
place = "{134, 38}";
},
{
horizontal = 1;
place = "{579, -20}";
target = down;
type = TopGhost;
}
);
layerId = UUID1;
name = "new Layer";
paths = (
{
closed = 1;
nodes = (
"389 642 LINE",
"15 148 LINE",
"337 148 LINE",
"337 44 LINE SMOOTH",
"337 35 OFFCURVE",
"330 28 OFFCURVE",
"321 28 CURVE SMOOTH",
"238 28 LINE",
"238 0 LINE",
"554 0 LINE",
"554 28 LINE",
"471 28 LINE SMOOTH",
"463 28 OFFCURVE",
"454 34 OFFCURVE",
"453 42 CURVE",
"453 148 LINE",
"554 148 LINE",
"554 190 LINE",
"453 190 LINE",
"453 642 LINE"
);
},
{
closed = 1;
nodes = (
"93 190 LINE",
"337 506 LINE",
"337 190 LINE"
);
}
);
userData = {
RMXScaler = {
adjustSpace = 21;
height = 110.8;
weight = 10;
width = 120;
};
};
width = 610;
}
);
leftKerningGroup = four.lf;
rightKerningGroup = four.lf;
},
{
glyphname = five.lf;
layers = (
{
hints = (
{
horizontal = 1;
origin = "{0, 24}";
target = "{0, 9}";
},
{
horizontal = 1;
origin = "{0, 3}";
target = "{0, 30}";
},
{
horizontal = 1;
origin = "{0, 34}";
target = "{0, 45}";
},
{
origin = "{0, 21}";
target = "{0, 12}";
},
{
origin = "{0, 6}";
target = "{0, 27}";
},
{
place = "{470, 23}";
}
);
layerId = UUID0;
paths = (
{
closed = 1;
nodes = (
"135 321 LINE",
"167 331 OFFCURVE",
"202 336 OFFCURVE",
"235 336 CURVE SMOOTH",
"355 336 OFFCURVE",
"430 271 OFFCURVE",
"430 166 CURVE SMOOTH",
"430 76 OFFCURVE",
"364 12 OFFCURVE",
"270 12 CURVE SMOOTH",
"208 12 OFFCURVE",
"167 47 OFFCURVE",
"167 102 CURVE SMOOTH",
"167 125 OFFCURVE",
"173 152 OFFCURVE",
"183 169 CURVE",
"173 179 OFFCURVE",
"151 186 OFFCURVE",
"131 186 CURVE SMOOTH",
"107 186 OFFCURVE",
"92 162 OFFCURVE",
"92 125 CURVE SMOOTH",
"92 41 OFFCURVE",
"161 -12 OFFCURVE",
"270 -12 CURVE SMOOTH",
"414 -12 OFFCURVE",
"517 67 OFFCURVE",
"517 178 CURVE SMOOTH",
"517 287 OFFCURVE",
"413 367 OFFCURVE",
"270 367 CURVE SMOOTH",
"238 367 OFFCURVE",
"209 364 OFFCURVE",
"171 356 CURVE",
"189 555 LINE",
"392 555 LINE SMOOTH",
"470 555 OFFCURVE",
"484 567 OFFCURVE",
"491 637 CURVE SMOOTH",
"495 675 LINE",
"471 675 LINE",
"469 653 LINE SMOOTH",
"467 635 OFFCURVE",
"457 627 OFFCURVE",
"434 627 CURVE SMOOTH",
"161 627 LINE"
);
}
);
userData = {
RMXScaler = {
adjustSpace = 21;
height = 110.8;
weight = 5;
width = 120;
};
};
width = 594;
},
{
associatedMasterId = UUID0;
hints = (
{
place = "{49, 97}";
},
{
place = "{323, 100}";
},
{
horizontal = 1;
place = "{-12, 28}";
},
{
horizontal = 1;
place = "{295, 42}";
},
{
horizontal = 1;
place = "{609, -20}";
target = down;
type = TopGhost;
}
);
layerId = UUID1;
name = "new Layer";
paths = (
{
closed = 1;
nodes = (
"125 312 LINE",
"153 319 OFFCURVE",
"195 327 OFFCURVE",
"233 327 CURVE SMOOTH",
"337 327 OFFCURVE",
"413 272 OFFCURVE",
"413 165 CURVE SMOOTH",
"413 83 OFFCURVE",
"369 17 OFFCURVE",
"283 17 CURVE SMOOTH",
"218 17 OFFCURVE",
"189 60 OFFCURVE",
"189 112 CURVE SMOOTH",
"189 130 OFFCURVE",
"193 156 OFFCURVE",
"204 175 CURVE",
"193 186 OFFCURVE",
"165 197 OFFCURVE",
"137 197 CURVE SMOOTH",
"99 197 OFFCURVE",
"82 164 OFFCURVE",
"82 124 CURVE SMOOTH",
"82 51 OFFCURVE",
"145 -13 OFFCURVE",
"283 -13 CURVE SMOOTH",
"446 -13 OFFCURVE",
"525 81 OFFCURVE",
"525 177 CURVE SMOOTH",
"525 264 OFFCURVE",
"456 371 OFFCURVE",
"284 373 CURVE SMOOTH",
"239 373 OFFCURVE",
"201 365 OFFCURVE",
"171 359 CURVE",
"189 554 LINE",
"397 554 LINE SMOOTH",
"476 554 OFFCURVE",
"491 565 OFFCURVE",
"498 635 CURVE SMOOTH",
"502 675 LINE",
"471 675 LINE",
"468 653 LINE SMOOTH",
"465 632 OFFCURVE",
"452 627 OFFCURVE",
"433 627 CURVE SMOOTH",
"152 627 LINE"
);
}
);
userData = {
RMXScaler = {
adjustSpace = 21;
height = 110.8;
weight = 10;
width = 120;
};
};
width = 609;
}
);
leftKerningGroup = five.lf;
rightKerningGroup = five.lf;
},
{
glyphname = six.lf;
layers = (
{
hints = (
{
horizontal = 1;
origin = "{0, 6}";
target = "{1, 8}";
},
{
horizontal = 1;
origin = "{1, 2}";
target = "{0, 12}";
},
{
horizontal = 1;
origin = "{0, 0}";
target = down;
type = TopGhost;
},
{
origin = "{0, 3}";
target = "{1, 11}";
},
{
origin = "{1, 5}";
target = "{0, 9}";
}
);
layerId = UUID0;
paths = (
{
closed = 1;
nodes = (
"452 642 LINE",
"239 579 OFFCURVE",
"84 397 OFFCURVE",
"84 209 CURVE SMOOTH",
"84 73 OFFCURVE",
"169 -12 OFFCURVE",
"307 -12 CURVE SMOOTH",
"438 -12 OFFCURVE",
"525 67 OFFCURVE",
"525 185 CURVE SMOOTH",
"525 305 OFFCURVE",
"449 382 OFFCURVE",
"331 382 CURVE SMOOTH",
"267 382 OFFCURVE",
"210 353 OFFCURVE",
"176 304 CURVE",
"181 296 LINE",
"211 438 OFFCURVE",
"329 572 OFFCURVE",
"461 616 CURVE"
);
},
{
closed = 1;
nodes = (
"171 286 OFFCURVE",
"226 350 OFFCURVE",
"303 350 CURVE SMOOTH",
"381 350 OFFCURVE",
"438 279 OFFCURVE",
"438 182 CURVE SMOOTH",
"438 82 OFFCURVE",
"382 12 OFFCURVE",
"304 12 CURVE SMOOTH",
"227 12 OFFCURVE",
"171 89 OFFCURVE",
"171 196 CURVE SMOOTH"
);
}
);
userData = {
RMXScaler = {
adjustSpace = 21;
height = 110.8;
weight = 5;
width = 120;
};
};
width = 594;
},
{
associatedMasterId = UUID0;
hints = (
{
place = "{46, 109}";
},
{
place = "{334, 108}";
},
{
horizontal = 1;
place = "{-12, 28}";
},
{
horizontal = 1;
place = "{311, 36}";
},
{
horizontal = 1;
place = "{586, -20}";
target = down;
type = TopGhost;
}
);
layerId = UUID1;
name = "new Layer";
paths = (
{
closed = 1;
nodes = (
"459 649 LINE",
"213 583 OFFCURVE",
"78 395 OFFCURVE",
"78 208 CURVE SMOOTH",
"78 73 OFFCURVE",
"166 -13 OFFCURVE",
"312 -13 CURVE SMOOTH",
"451 -13 OFFCURVE",
"546 65 OFFCURVE",
"546 184 CURVE SMOOTH",
"546 303 OFFCURVE",
"451 384 OFFCURVE",
"343 384 CURVE SMOOTH",
"288 384 OFFCURVE",
"239 361 OFFCURVE",
"209 320 CURVE",
"244 454 OFFCURVE",
"361 573 OFFCURVE",
"471 615 CURVE"
);
},
{
closed = 1;
nodes = (
"200 284 OFFCURVE",
"249 345 OFFCURVE",
"311 345 CURVE SMOOTH",
"375 345 OFFCURVE",
"426 278 OFFCURVE",
"426 181 CURVE SMOOTH",
"426 84 OFFCURVE",
"378 17 OFFCURVE",
"312 17 CURVE SMOOTH",
"248 17 OFFCURVE",
"200 91 OFFCURVE",
"200 195 CURVE SMOOTH"
);
}
);
userData = {
RMXScaler = {
adjustSpace = 21;
height = 110.8;
weight = 10;
width = 120;
};
};
width = 610;
}
);
leftKerningGroup = six.lf;
rightKerningGroup = six.lf;
},
{
glyphname = seven.lf;
layers = (
{
hints = (
{
horizontal = 1;
origin = "{0, 21}";
target = up;
type = BottomGhost;
},
{
horizontal = 1;
origin = "{0, 1}";
target = "{0, 13}";
},
{
origin = "{0, 8}";
target = "{0, 9}";
},
{
origin = "{0, 18}";
target = "{0, 27}";
}
);
layerId = UUID0;
paths = (
{
closed = 1;
nodes = (
"525 630 LINE",
"230 630 LINE SMOOTH",
"175 630 OFFCURVE",
"125 634 OFFCURVE",
"96 641 CURVE",
"101 619 OFFCURVE",
"106 550 OFFCURVE",
"106 494 CURVE SMOOTH",
"106 440 LINE",
"131 440 LINE",
"145 536 LINE SMOOTH",
"148 556 OFFCURVE",
"156 562 OFFCURVE",
"180 562 CURVE SMOOTH",
"458 562 LINE",
"292 204 LINE SMOOTH",
"252 118 OFFCURVE",
"232 61 OFFCURVE",
"232 31 CURVE SMOOTH",
"232 2 OFFCURVE",
"246 -12 OFFCURVE",
"277 -12 CURVE SMOOTH",
"298 -12 OFFCURVE",
"319 -6 OFFCURVE",
"330 4 CURVE",
"316 30 OFFCURVE",
"309 59 OFFCURVE",
"309 89 CURVE SMOOTH",
"309 125 OFFCURVE",
"318 162 OFFCURVE",
"337 204 CURVE SMOOTH"
);
}
);
userData = {
RMXScaler = {
adjustSpace = 21;
height = 110.8;
weight = 5;
width = 120;
};
};
width = 594;
},
{
associatedMasterId = UUID0;
hints = (
{
place = "{178, 91}";
},
{
horizontal = 1;
place = "{576, -20}";
target = down;
type = TopGhost;
},
{
horizontal = 1;
place = "{9, 21}";
target = up;
type = BottomGhost;
}
);
layerId = UUID1;
name = "new Layer";
paths = (
{
closed = 1;
nodes = (
"547 627 LINE",
"235 627 LINE SMOOTH",
"165 627 OFFCURVE",
"115 631 OFFCURVE",
"89 638 CURVE",
"94 617 OFFCURVE",
"102 548 OFFCURVE",
"102 486 CURVE SMOOTH",
"102 430 LINE",
"143 430 LINE",
"158 530 LINE SMOOTH",
"161 550 OFFCURVE",
"173 554 OFFCURVE",
"194 554 CURVE SMOOTH",
"468 554 LINE",
"326 268 LINE SMOOTH",
"266 147 OFFCURVE",
"234 69 OFFCURVE",
"234 30 CURVE SMOOTH",
"234 -2 OFFCURVE",
"251 -13 OFFCURVE",
"286 -13 CURVE SMOOTH",
"314 -13 OFFCURVE",
"339 -8 OFFCURVE",
"355 1 CURVE",
"343 31 OFFCURVE",
"336 58 OFFCURVE",
"336 110 CURVE SMOOTH",
"336 154 OFFCURVE",
"347 209 OFFCURVE",
"376 270 CURVE SMOOTH"
);
}
);
userData = {
RMXScaler = {
adjustSpace = 21;
height = 110.8;
weight = 10;
width = 120;
};
};
width = 610;
}
);
leftKerningGroup = seven.lf;
rightKerningGroup = seven.lf;
},
{
glyphname = eight.lf;
layers = (
{
hints = (
{
horizontal = 1;
origin = "{0, 9}";
target = "{1, 8}";
},
{
horizontal = 1;
origin = "{1, 2}";
target = "{2, 8}";
},
{
horizontal = 1;
origin = "{0, 22}";
target = "{2, 2}";
},
{
origin = "{0, 6}";
target = "{1, 11}";
},
{
origin = "{1, 5}";
target = "{0, 12}";
},
{
origin = "{0, 25}";
target = "{2, 11}";
},
{
origin = "{2, 5}";
target = "{0, 19}";
}
);
layerId = UUID0;
paths = (
{
closed = 1;
nodes = (
"103 404 OFFCURVE",
"153 348 OFFCURVE",
"237 330 CURVE",
"237 338 LINE",
"138 318 OFFCURVE",
"79 253 OFFCURVE",
"79 164 CURVE SMOOTH",
"79 57 OFFCURVE",
"165 -13 OFFCURVE",
"296 -13 CURVE SMOOTH",
"428 -13 OFFCURVE",
"513 57 OFFCURVE",
"513 164 CURVE SMOOTH",
"513 254 OFFCURVE",
"455 318 OFFCURVE",
"353 338 CURVE",
"354 330 LINE",
"439 348 OFFCURVE",
"489 405 OFFCURVE",
"489 482 CURVE SMOOTH",
"489 579 OFFCURVE",
"412 642 OFFCURVE",
"296 642 CURVE SMOOTH",
"180 642 OFFCURVE",
"103 579 OFFCURVE",
"103 482 CURVE SMOOTH"
);
},
{
closed = 1;
nodes = (
"166 257 OFFCURVE",
"220 322 OFFCURVE",
"296 322 CURVE SMOOTH",
"371 322 OFFCURVE",
"426 256 OFFCURVE",
"426 165 CURVE SMOOTH",
"426 76 OFFCURVE",
"371 11 OFFCURVE",
"296 11 CURVE SMOOTH",
"220 11 OFFCURVE",
"166 75 OFFCURVE",
"166 165 CURVE SMOOTH"
);
},
{
closed = 1;
nodes = (
"185 561 OFFCURVE",
"231 618 OFFCURVE",
"296 618 CURVE SMOOTH",
"361 618 OFFCURVE",
"407 561 OFFCURVE",
"407 481 CURVE SMOOTH",
"407 401 OFFCURVE",
"361 344 OFFCURVE",
"296 344 CURVE SMOOTH",
"231 344 OFFCURVE",
"185 401 OFFCURVE",
"185 481 CURVE SMOOTH"
);
}
);
userData = {
RMXScaler = {
adjustSpace = 21;
height = 110.8;
weight = 5;
width = 120;
};
};
width = 594;
},
{
associatedMasterId = UUID0;
hints = (
{
place = "{34, 113}";
},
{
place = "{60, 105}";
},
{
place = "{311, 105}";
},
{
place = "{330, 86}";
},
{
place = "{330, 112}";
},
{
horizontal = 1;
place = "{-12, 28}";
},
{
horizontal = 1;
place = "{285, 29}";
},
{
horizontal = 1;
place = "{550, 29}";
}
);
layerId = UUID1;
name = "new Layer";
paths = (
{
closed = 1;
nodes = (
"97 406 OFFCURVE",
"145 354 OFFCURVE",
"220 332 CURVE",
"128 311 OFFCURVE",
"66 253 OFFCURVE",
"66 164 CURVE SMOOTH",
"66 51 OFFCURVE",
"168 -13 OFFCURVE",
"305 -13 CURVE SMOOTH",
"442 -13 OFFCURVE",
"543 51 OFFCURVE",
"543 164 CURVE SMOOTH",
"543 252 OFFCURVE",
"481 311 OFFCURVE",
"388 332 CURVE",
"463 355 OFFCURVE",
"512 407 OFFCURVE",
"512 482 CURVE SMOOTH",
"512 583 OFFCURVE",
"424 642 OFFCURVE",
"305 642 CURVE SMOOTH",
"185 642 OFFCURVE",
"97 583 OFFCURVE",
"97 482 CURVE SMOOTH"
);
},
{
closed = 1;
nodes = (
"190 262 OFFCURVE",
"240 316 OFFCURVE",
"305 316 CURVE SMOOTH",
"368 316 OFFCURVE",
"420 262 OFFCURVE",
"420 165 CURVE SMOOTH",
"420 72 OFFCURVE",
"368 17 OFFCURVE",
"305 17 CURVE SMOOTH",
"240 17 OFFCURVE",
"190 72 OFFCURVE",
"190 165 CURVE SMOOTH"
);
},
{
closed = 1;
nodes = (
"212 563 OFFCURVE",
"252 610 OFFCURVE",
"305 610 CURVE SMOOTH",
"357 610 OFFCURVE",
"397 564 OFFCURVE",
"397 481 CURVE SMOOTH",
"397 396 OFFCURVE",
"357 348 OFFCURVE",
"305 348 CURVE SMOOTH",
"252 348 OFFCURVE",
"212 396 OFFCURVE",
"212 481 CURVE SMOOTH"
);
}
);
userData = {
RMXScaler = {
adjustSpace = 21;
height = 110.8;
weight = 10;
width = 120;
};
};
width = 610;
}
);
leftKerningGroup = eight.lf;
rightKerningGroup = eight.lf;
},
{
glyphname = nine.lf;
layers = (
{
hints = (
{
horizontal = 1;
origin = "{0, 0}";
target = up;
type = BottomGhost;
},
{
horizontal = 1;
origin = "{0, 12}";
target = "{1, 2}";
},
{
horizontal = 1;
origin = "{0, 6}";
target = "{1, 8}";
},
{
origin = "{0, 9}";
target = "{1, 5}";
},
{
origin = "{1, 11}";
target = "{0, 3}";
}
);
layerId = UUID0;
paths = (
{
closed = 1;
nodes = (
"166 -12 LINE",
"375 51 OFFCURVE",
"518 226 OFFCURVE",
"518 421 CURVE SMOOTH",
"518 555 OFFCURVE",
"431 642 OFFCURVE",
"295 642 CURVE SMOOTH",
"166 642 OFFCURVE",
"86 565 OFFCURVE",
"86 441 CURVE SMOOTH",
"86 323 OFFCURVE",
"163 241 OFFCURVE",
"274 241 CURVE SMOOTH",
"340 241 OFFCURVE",
"399 271 OFFCURVE",
"429 319 CURVE",
"425 327 LINE",
"407 199 OFFCURVE",
"287 59 OFFCURVE",
"157 13 CURVE"
);
},
{
closed = 1;
nodes = (
"431 337 OFFCURVE",
"382 273 OFFCURVE",
"308 273 CURVE SMOOTH",
"231 273 OFFCURVE",
"173 349 OFFCURVE",
"173 452 CURVE SMOOTH",
"173 550 OFFCURVE",
"224 618 OFFCURVE",
"297 618 CURVE SMOOTH",
"374 618 OFFCURVE",
"431 538 OFFCURVE",
"431 432 CURVE SMOOTH"
);
}
);
userData = {
RMXScaler = {
adjustSpace = 21;
height = 110.8;
weight = 5;
width = 120;
};
};
width = 593;
},
{
associatedMasterId = UUID0;
hints = (
{
place = "{47, 107}";
},
{
place = "{333, 109}";
},
{
horizontal = 1;
place = "{209, 36}";
},
{
horizontal = 1;
place = "{551, 28}";
},
{
horizontal = 1;
place = "{-9, 21}";
target = up;
type = BottomGhost;
}
);
layerId = UUID1;
name = "new Layer";
paths = (
{
closed = 1;
nodes = (
"160 -32 LINE",
"409 36 OFFCURVE",
"544 231 OFFCURVE",
"544 424 CURVE SMOOTH",
"544 558 OFFCURVE",
"456 642 OFFCURVE",
"313 642 CURVE SMOOTH",
"172 642 OFFCURVE",
"80 562 OFFCURVE",
"80 441 CURVE SMOOTH",
"80 316 OFFCURVE",
"173 232 OFFCURVE",
"280 232 CURVE SMOOTH",
"336 232 OFFCURVE",
"382 255 OFFCURVE",
"412 296 CURVE",
"375 159 OFFCURVE",
"255 43 OFFCURVE",
"148 2 CURVE"
);
},
{
closed = 1;
nodes = (
"423 341 OFFCURVE",
"375 272 OFFCURVE",
"311 272 CURVE SMOOTH",
"249 272 OFFCURVE",
"199 342 OFFCURVE",
"199 442 CURVE SMOOTH",
"199 541 OFFCURVE",
"247 611 OFFCURVE",
"313 611 CURVE SMOOTH",
"376 611 OFFCURVE",
"423 539 OFFCURVE",
"423 439 CURVE SMOOTH"
);
}
);
userData = {
RMXScaler = {
adjustSpace = 21;
height = 110.8;
weight = 10;
width = 120;
};
};
width = 610;
}
);
leftKerningGroup = nine.lf;
rightKerningGroup = nine.lf;
},
{
glyphname = zero.dnom;
layers = (
{
hints = (
{
horizontal = 1;
origin = "{0, 2}";
target = "{1, 8}";
},
{
horizontal = 1;
origin = "{1, 2}";
target = "{0, 8}";
},
{
origin = "{0, 11}";
target = "{1, 11}";
},
{
origin = "{1, 5}";
target = "{0, 5}";
}
);
layerId = UUID0;
paths = (
{
closed = 1;
nodes = (
"25 65 OFFCURVE",
"80 -7 OFFCURVE",
"164 -7 CURVE SMOOTH",
"249 -7 OFFCURVE",
"304 65 OFFCURVE",
"304 176 CURVE SMOOTH",
"304 288 OFFCURVE",
"249 360 OFFCURVE",
"164 360 CURVE SMOOTH",
"79 360 OFFCURVE",
"25 288 OFFCURVE",
"25 176 CURVE SMOOTH"
);
},
{
closed = 1;
nodes = (
"95 276 OFFCURVE",
"122 342 OFFCURVE",
"164 342 CURVE SMOOTH",
"206 342 OFFCURVE",
"234 276 OFFCURVE",
"234 176 CURVE SMOOTH",
"234 76 OFFCURVE",
"206 10 OFFCURVE",
"164 10 CURVE SMOOTH",
"122 10 OFFCURVE",
"95 76 OFFCURVE",
"95 176 CURVE SMOOTH"
);
}
);
userData = {
RMXScaler = {
adjustSpace = 10;
height = 62.2;
weight = -5;
width = 65;
};
};
width = 329;
},
{
associatedMasterId = UUID0;
hints = (
{
place = "{197, 109}";
},
{
horizontal = 1;
place = "{0, 26}";
},
{
horizontal = 1;
place = "{579, -20}";
target = down;
type = TopGhost;
}
);
layerId = UUID1;
name = "new Layer";
paths = (
{
closed = 1;
nodes = (
"47 0 LINE",
"303 0 LINE",
"303 23 LINE",
"242 23 LINE SMOOTH",
"236 23 OFFCURVE",
"233 26 OFFCURVE",
"233 28 CURVE SMOOTH",
"233 291 LINE SMOOTH",
"233 322 OFFCURVE",
"235 348 OFFCURVE",
"239 362 CURVE",
"226 357 OFFCURVE",
"138 347 OFFCURVE",
"98 342 CURVE SMOOTH",
"39 334 LINE",
"40 308 LINE",
"112 312 LINE",
"132 313 OFFCURVE",
"132 305 OFFCURVE",
"132 296 CURVE SMOOTH",
"132 33 LINE",
"133 27 OFFCURVE",
"128 23 OFFCURVE",
"123 23 CURVE SMOOTH",
"47 23 LINE"
);
}
);
userData = {
RMXScaler = {
adjustSpace = 10;
height = 62.5;
weight = -8;
width = 65;
};
};
width = 342;
}
);
},
{
glyphname = one.dnom;
layers = (
{
hints = (
{
horizontal = 1;
origin = "{0, 0}";
target = "{0, 24}";
},
{
horizontal = 1;
place = "{317, 19}";
},
{
origin = "{0, 20}";
target = "{0, 6}";
}
);
layerId = UUID0;
paths = (
{
closed = 1;
nodes = (
"54 0 LINE",
"269 0 LINE",
"269 16 LINE",
"212 16 LINE SMOOTH",
"203 16 OFFCURVE",
"199 20 OFFCURVE",
"199 28 CURVE SMOOTH",
"199 289 LINE SMOOTH",
"199 321 OFFCURVE",
"201 347 OFFCURVE",
"205 360 CURVE",
"195 356 OFFCURVE",
"148 347 OFFCURVE",
"105 340 CURVE SMOOTH",
"46 332 LINE",
"47 313 LINE",
"115 317 LINE SMOOTH",
"129 318 OFFCURVE",
"135 312 OFFCURVE",
"135 301 CURVE SMOOTH",
"135 29 LINE SMOOTH",
"135 21 OFFCURVE",
"131 16 OFFCURVE",
"122 16 CURVE SMOOTH",
"54 16 LINE"
);
}
);
userData = {
RMXScaler = {
adjustSpace = 10;
height = 62.2;
weight = -5;
width = 65;
};
};
width = 329;
},
{
associatedMasterId = UUID0;
hints = (
{
place = "{197, 109}";
},
{
horizontal = 1;
place = "{0, 26}";
},
{
horizontal = 1;
place = "{579, -20}";
target = down;
type = TopGhost;
}
);
layerId = UUID1;
name = "new Layer";
paths = (
{
closed = 1;
nodes = (
"47 0 LINE",
"303 0 LINE",
"303 23 LINE",
"242 23 LINE SMOOTH",
"236 23 OFFCURVE",
"233 26 OFFCURVE",
"233 28 CURVE SMOOTH",
"233 291 LINE SMOOTH",
"233 322 OFFCURVE",
"235 348 OFFCURVE",
"239 362 CURVE",
"226 357 OFFCURVE",
"138 347 OFFCURVE",
"98 342 CURVE SMOOTH",
"39 334 LINE",
"40 308 LINE",
"112 312 LINE",
"132 313 OFFCURVE",
"132 305 OFFCURVE",
"132 296 CURVE SMOOTH",
"132 33 LINE",
"133 27 OFFCURVE",
"128 23 OFFCURVE",
"123 23 CURVE SMOOTH",
"47 23 LINE"
);
}
);
userData = {
RMXScaler = {
adjustSpace = 10;
height = 62.5;
weight = -8;
width = 65;
};
};
width = 342;
}
);
},
{
glyphname = two.dnom;
layers = (
{
hints = (
{
horizontal = 1;
origin = "{0, 7}";
target = "{0, 21}";
},
{
horizontal = 1;
origin = "{0, 43}";
target = "{0, 28}";
},
{
origin = "{0, 31}";
target = "{0, 40}";
},
{
origin = "{0, 22}";
target = "{0, 25}";
},
{
place = "{257.5, 27.5}";
}
);
layerId = UUID0;
paths = (
{
closed = 1;
nodes = (
"196 342 OFFCURVE",
"216 315 OFFCURVE",
"216 267 CURVE SMOOTH",
"216 214 OFFCURVE",
"201 182 OFFCURVE",
"151 131 CURVE SMOOTH",
"25 0 LINE",
"215 0 LINE SMOOTH",
"252 0 OFFCURVE",
"278 -2 OFFCURVE",
"292 -6 CURVE",
"288 9 OFFCURVE",
"285 49 OFFCURVE",
"285 80 CURVE SMOOTH",
"285 111 LINE",
"262 111 LINE",
"253 55 LINE SMOOTH",
"251 45 OFFCURVE",
"246 41 OFFCURVE",
"235 41 CURVE SMOOTH",
"69 41 LINE",
"77 24 LINE",
"216 170 LINE SMOOTH",
"263 218 OFFCURVE",
"282 251 OFFCURVE",
"282 284 CURVE SMOOTH",
"282 330 OFFCURVE",
"237 360 OFFCURVE",
"168 360 CURVE SMOOTH",
"92 360 OFFCURVE",
"45 330 OFFCURVE",
"45 282 CURVE SMOOTH",
"45 256 OFFCURVE",
"58 241 OFFCURVE",
"79 241 CURVE SMOOTH",
"91 241 OFFCURVE",
"108 246 OFFCURVE",
"116 253 CURVE",
"110 263 OFFCURVE",
"107 277 OFFCURVE",
"107 290 CURVE SMOOTH",
"107 321 OFFCURVE",
"128 342 OFFCURVE",
"159 342 CURVE SMOOTH"
);
}
);
userData = {
RMXScaler = {
adjustSpace = 10;
height = 62.2;
weight = -5;
width = 65;
};
};
width = 329;
},
{
associatedMasterId = UUID0;
hints = (
{
place = "{53, 99}";
},
{
place = "{317, 103}";
},
{
horizontal = 1;
place = "{550, 29}";
},
{
horizontal = 1;
place = "{0, -20}";
target = down;
type = TopGhost;
},
{
horizontal = 1;
place = "{11, 21}";
target = up;
type = BottomGhost;
}
);
layerId = UUID1;
name = "new Layer";
paths = (
{
closed = 1;
nodes = (
"196 337 OFFCURVE",
"214 312 OFFCURVE",
"214 271 CURVE SMOOTH",
"214 217 OFFCURVE",
"206 187 OFFCURVE",
"119 96 CURVE SMOOTH",
"27 0 LINE",
"224 0 LINE SMOOTH",
"265 0 OFFCURVE",
"290 -2 OFFCURVE",
"305 -7 CURVE",
"302 7 OFFCURVE",
"298 48 OFFCURVE",
"298 84 CURVE SMOOTH",
"298 117 LINE",
"261 117 LINE",
"253 58 LINE",
"249 46 OFFCURVE",
"243 44 OFFCURVE",
"233 44 CURVE SMOOTH",
"104 44 LINE",
"149 89 LINE SMOOTH",
"243 183 OFFCURVE",
"302 221 OFFCURVE",
"302 279 CURVE SMOOTH",
"302 321 OFFCURVE",
"256 362 OFFCURVE",
"162 362 CURVE SMOOTH",
"75 362 OFFCURVE",
"38 325 OFFCURVE",
"38 284 CURVE SMOOTH",
"38 257 OFFCURVE",
"51 232 OFFCURVE",
"82 232 CURVE SMOOTH",
"109 232 OFFCURVE",
"128 243 OFFCURVE",
"136 248 CURVE",
"130 260 OFFCURVE",
"128 276 OFFCURVE",
"128 286 CURVE SMOOTH",
"128 313 OFFCURVE",
"143 337 OFFCURVE",
"164 337 CURVE SMOOTH"
);
}
);
userData = {
RMXScaler = {
adjustSpace = 10;
height = 62.5;
weight = -8;
width = 65;
};
};
width = 341;
}
);
},
{
glyphname = three.dnom;
layers = (
{
hints = (
{
horizontal = 1;
origin = "{0, 24}";
target = "{0, 9}";
},
{
horizontal = 1;
place = "{176, 17}";
},
{
horizontal = 1;
origin = "{0, 52}";
target = "{0, 37}";
},
{
origin = "{0, 21}";
target = "{0, 12}";
},
{
origin = "{0, 6}";
target = "{0, 27}";
},
{
origin = "{0, 40}";
target = "{0, 49}";
},
{
origin = "{0, 55}";
target = "{0, 34}";
}
);
layerId = UUID0;
paths = (
{
closed = 1;
nodes = (
"95 171 LINE",
"107 174 OFFCURVE",
"124 176 OFFCURVE",
"136 176 CURVE SMOOTH",
"190 176 OFFCURVE",
"223 145 OFFCURVE",
"223 93 CURVE SMOOTH",
"223 44 OFFCURVE",
"194 10 OFFCURVE",
"154 10 CURVE SMOOTH",
"122 10 OFFCURVE",
"102 31 OFFCURVE",
"102 63 CURVE SMOOTH",
"102 75 OFFCURVE",
"105 88 OFFCURVE",
"110 98 CURVE",
"103 105 OFFCURVE",
"87 111 OFFCURVE",
"75 111 CURVE SMOOTH",
"54 111 OFFCURVE",
"41 96 OFFCURVE",
"41 70 CURVE SMOOTH",
"41 23 OFFCURVE",
"85 -7 OFFCURVE",
"152 -7 CURVE SMOOTH",
"233 -7 OFFCURVE",
"290 36 OFFCURVE",
"290 97 CURVE SMOOTH",
"290 154 OFFCURVE",
"239 191 OFFCURVE",
"156 194 CURVE",
"140 190 LINE",
"212 191 OFFCURVE",
"272 234 OFFCURVE",
"272 284 CURVE SMOOTH",
"272 329 OFFCURVE",
"227 360 OFFCURVE",
"163 360 CURVE SMOOTH",
"100 360 OFFCURVE",
"55 330 OFFCURVE",
"55 288 CURVE SMOOTH",
"55 263 OFFCURVE",
"69 247 OFFCURVE",
"90 247 CURVE SMOOTH",
"102 247 OFFCURVE",
"117 253 OFFCURVE",
"125 261 CURVE",
"119 272 OFFCURVE",
"116 285 OFFCURVE",
"116 297 CURVE SMOOTH",
"116 324 OFFCURVE",
"133 342 OFFCURVE",
"159 342 CURVE SMOOTH",
"188 342 OFFCURVE",
"208 318 OFFCURVE",
"208 285 CURVE SMOOTH",
"208 240 OFFCURVE",
"171 204 OFFCURVE",
"117 195 CURVE SMOOTH",
"92 191 LINE"
);
}
);
userData = {
RMXScaler = {
adjustSpace = 10;
height = 62.2;
weight = -5;
width = 65;
};
};
width = 329;
},
{
associatedMasterId = UUID0;
hints = (
{
place = "{47, 97}";
},
{
place = "{69, 96}";
},
{
place = "{305, 97}";
},
{
place = "{327, 75}";
},
{
place = "{327, 100}";
},
{
horizontal = 1;
place = "{-12, 28}";
},
{
horizontal = 1;
place = "{550, 29}";
}
);
layerId = UUID1;
name = "new Layer";
paths = (
{
closed = 1;
nodes = (
"98 165 LINE",
"105 167 OFFCURVE",
"116 168 OFFCURVE",
"126 168 CURVE SMOOTH",
"176 168 OFFCURVE",
"217 144 OFFCURVE",
"217 93 CURVE SMOOTH",
"217 42 OFFCURVE",
"191 16 OFFCURVE",
"170 16 CURVE SMOOTH",
"137 16 OFFCURVE",
"122 41 OFFCURVE",
"122 71 CURVE SMOOTH",
"122 81 OFFCURVE",
"124 94 OFFCURVE",
"129 104 CURVE",
"122 111 OFFCURVE",
"103 120 OFFCURVE",
"79 120 CURVE SMOOTH",
"48 120 OFFCURVE",
"35 97 OFFCURVE",
"35 70 CURVE SMOOTH",
"35 29 OFFCURVE",
"76 -7 OFFCURVE",
"169 -7 CURVE SMOOTH",
"261 -7 OFFCURVE",
"302 46 OFFCURVE",
"302 100 CURVE SMOOTH",
"302 143 OFFCURVE",
"265 185 OFFCURVE",
"196 192 CURVE",
"259 194 OFFCURVE",
"294 248 OFFCURVE",
"294 284 CURVE SMOOTH",
"294 335 OFFCURVE",
"229 362 OFFCURVE",
"170 362 CURVE SMOOTH",
"102 362 OFFCURVE",
"49 339 OFFCURVE",
"49 289 CURVE SMOOTH",
"49 262 OFFCURVE",
"65 238 OFFCURVE",
"94 238 CURVE SMOOTH",
"118 238 OFFCURVE",
"132 247 OFFCURVE",
"144 258 CURVE",
"137 270 OFFCURVE",
"135 283 OFFCURVE",
"135 292 CURVE SMOOTH",
"135 318 OFFCURVE",
"147 337 OFFCURVE",
"175 337 CURVE SMOOTH",
"200 337 OFFCURVE",
"210 311 OFFCURVE",
"210 284 CURVE SMOOTH",
"210 251 OFFCURVE",
"181 208 OFFCURVE",
"114 202 CURVE SMOOTH",
"92 200 LINE"
);
}
);
userData = {
RMXScaler = {
adjustSpace = 10;
height = 62.5;
weight = -8;
width = 65;
};
};
width = 342;
}
);
},
{
glyphname = four.dnom;
layers = (
{
hints = (
{
horizontal = 1;
origin = "{0, 12}";
target = "{0, 11}";
},
{
horizontal = 1;
origin = "{0, 0}";
target = "{0, 3}";
},
{
origin = "{0, 7}";
target = "{0, 18}";
}
);
layerId = UUID0;
paths = (
{
closed = 1;
nodes = (
"25 83 LINE",
"300 83 LINE",
"300 107 LINE",
"31 107 LINE",
"35 88 LINE",
"206 302 LINE",
"189 307 LINE",
"189 25 LINE SMOOTH",
"189 21 OFFCURVE",
"185 16 OFFCURVE",
"180 16 CURVE SMOOTH",
"126 16 LINE",
"126 0 LINE",
"300 0 LINE",
"300 16 LINE",
"262 16 LINE SMOOTH",
"257 16 OFFCURVE",
"253 20 OFFCURVE",
"253 24 CURVE SMOOTH",
"253 360 LINE",
"220 360 LINE",
"21 102 LINE"
);
}
);
userData = {
RMXScaler = {
adjustSpace = 10;
height = 62.2;
weight = -5;
width = 65;
};
};
width = 329;
},
{
associatedMasterId = UUID0;
hints = (
{
place = "{259, 105}";
},
{
horizontal = 1;
place = "{0, 26}";
},
{
horizontal = 1;
place = "{134, 38}";
},
{
horizontal = 1;
place = "{579, -20}";
target = down;
type = TopGhost;
}
);
layerId = UUID1;
name = "new Layer";
paths = (
{
closed = 1;
nodes = (
"196 362 LINE",
"0 84 LINE",
"164 84 LINE",
"164 31 LINE SMOOTH",
"164 27 OFFCURVE",
"161 23 OFFCURVE",
"155 23 CURVE SMOOTH",
"111 23 LINE",
"111 0 LINE",
"313 0 LINE",
"313 23 LINE",
"269 23 LINE SMOOTH",
"263 23 OFFCURVE",
"260 26 OFFCURVE",
"259 30 CURVE",
"259 84 LINE",
"313 84 LINE",
"313 114 LINE",
"259 114 LINE",
"259 362 LINE"
);
},
{
closed = 1;
nodes = (
"53 114 LINE",
"164 270 LINE",
"164 114 LINE"
);
}
);
userData = {
RMXScaler = {
adjustSpace = 10;
height = 62.5;
weight = -8;
width = 65;
};
};
width = 342;
}
);
},
{
glyphname = five.dnom;
layers = (
{
hints = (
{
horizontal = 1;
origin = "{0, 24}";
target = "{0, 9}";
},
{
horizontal = 1;
origin = "{0, 3}";
target = "{0, 30}";
},
{
horizontal = 1;
origin = "{0, 34}";
target = "{0, 45}";
},
{
place = "{72.5, 23.5}";
},
{
origin = "{0, 6}";
target = "{0, 27}";
},
{
origin = "{0, 21}";
target = "{0, 12}";
},
{
place = "{253, 17}";
}
);
layerId = UUID0;
paths = (
{
closed = 1;
nodes = (
"65 175 LINE",
"83 180 OFFCURVE",
"107 183 OFFCURVE",
"125 183 CURVE SMOOTH",
"184 183 OFFCURVE",
"221 149 OFFCURVE",
"221 93 CURVE SMOOTH",
"221 43 OFFCURVE",
"194 10 OFFCURVE",
"153 10 CURVE SMOOTH",
"122 10 OFFCURVE",
"103 30 OFFCURVE",
"103 63 CURVE SMOOTH",
"103 76 OFFCURVE",
"106 89 OFFCURVE",
"111 98 CURVE",
"103 106 OFFCURVE",
"88 111 OFFCURVE",
"73 111 CURVE SMOOTH",
"54 111 OFFCURVE",
"42 95 OFFCURVE",
"42 70 CURVE SMOOTH",
"42 23 OFFCURVE",
"85 -7 OFFCURVE",
"153 -7 CURVE SMOOTH",
"232 -7 OFFCURVE",
"288 37 OFFCURVE",
"288 100 CURVE SMOOTH",
"288 164 OFFCURVE",
"231 210 OFFCURVE",
"151 210 CURVE SMOOTH",
"135 210 OFFCURVE",
"110 207 OFFCURVE",
"91 202 CURVE",
"101 311 LINE",
"214 311 LINE SMOOTH",
"257 311 OFFCURVE",
"266 318 OFFCURVE",
"269 356 CURVE SMOOTH",
"271 379 LINE",
"254 379 LINE",
"252 366 LINE SMOOTH",
"251 357 OFFCURVE",
"245 352 OFFCURVE",
"233 352 CURVE SMOOTH",
"80 352 LINE"
);
}
);
userData = {
RMXScaler = {
adjustSpace = 10;
height = 62.2;
weight = -5;
width = 65;
};
};
width = 329;
},
{
associatedMasterId = UUID0;
hints = (
{
place = "{49, 97}";
},
{
place = "{323, 100}";
},
{
horizontal = 1;
place = "{-12, 28}";
},
{
horizontal = 1;
place = "{295, 42}";
},
{
horizontal = 1;
place = "{609, -20}";
target = down;
type = TopGhost;
}
);
layerId = UUID1;
name = "new Layer";
paths = (
{
closed = 1;
nodes = (
"58 169 LINE",
"70 171 OFFCURVE",
"99 178 OFFCURVE",
"124 178 CURVE SMOOTH",
"177 178 OFFCURVE",
"208 146 OFFCURVE",
"208 93 CURVE SMOOTH",
"208 43 OFFCURVE",
"193 16 OFFCURVE",
"164 16 CURVE SMOOTH",
"133 16 OFFCURVE",
"122 42 OFFCURVE",
"122 71 CURVE SMOOTH",
"122 83 OFFCURVE",
"123 95 OFFCURVE",
"129 104 CURVE",
"122 111 OFFCURVE",
"103 120 OFFCURVE",
"79 120 CURVE SMOOTH",
"48 120 OFFCURVE",
"35 97 OFFCURVE",
"35 70 CURVE SMOOTH",
"35 29 OFFCURVE",
"76 -7 OFFCURVE",
"164 -7 CURVE SMOOTH",
"253 -7 OFFCURVE",
"293 46 OFFCURVE",
"293 100 CURVE SMOOTH",
"293 147 OFFCURVE",
"265 214 OFFCURVE",
"166 216 CURVE SMOOTH",
"136 217 OFFCURVE",
"104 208 OFFCURVE",
"91 205 CURVE",
"101 312 LINE",
"219 312 LINE SMOOTH",
"262 312 OFFCURVE",
"273 317 OFFCURVE",
"276 356 CURVE SMOOTH",
"278 381 LINE",
"254 381 LINE",
"252 368 LINE SMOOTH",
"250 357 OFFCURVE",
"244 354 OFFCURVE",
"233 354 CURVE SMOOTH",
"74 354 LINE"
);
}
);
userData = {
RMXScaler = {
adjustSpace = 10;
height = 62.5;
weight = -8;
width = 65;
};
};
width = 341;
}
);
},
{
glyphname = six.dnom;
layers = (
{
hints = (
{
horizontal = 1;
origin = "{0, 6}";
target = "{1, 8}";
},
{
horizontal = 1;
origin = "{1, 2}";
target = "{0, 12}";
},
{
origin = "{0, 3}";
target = "{1, 11}";
},
{
origin = "{1, 5}";
target = "{0, 9}";
}
);
layerId = UUID0;
paths = (
{
closed = 1;
nodes = (
"248 375 LINE",
"125 330 OFFCURVE",
"40 226 OFFCURVE",
"40 120 CURVE SMOOTH",
"40 41 OFFCURVE",
"88 -7 OFFCURVE",
"168 -7 CURVE SMOOTH",
"244 -7 OFFCURVE",
"295 37 OFFCURVE",
"295 103 CURVE SMOOTH",
"295 167 OFFCURVE",
"247 216 OFFCURVE",
"186 216 CURVE SMOOTH",
"150 216 OFFCURVE",
"119 197 OFFCURVE",
"107 167 CURVE",
"111 163 LINE",
"122 244 OFFCURVE",
"185 327 OFFCURVE",
"257 356 CURVE"
);
},
{
closed = 1;
nodes = (
"107 157 OFFCURVE",
"131 193 OFFCURVE",
"166 193 CURVE SMOOTH",
"202 193 OFFCURVE",
"228 155 OFFCURVE",
"228 101 CURVE SMOOTH",
"228 48 OFFCURVE",
"203 10 OFFCURVE",
"168 10 CURVE SMOOTH",
"133 10 OFFCURVE",
"107 51 OFFCURVE",
"107 106 CURVE SMOOTH"
);
}
);
userData = {
RMXScaler = {
adjustSpace = 10;
height = 62.2;
weight = -5;
width = 65;
};
};
width = 329;
},
{
associatedMasterId = UUID0;
hints = (
{
place = "{46, 109}";
},
{
place = "{334, 108}";
},
{
horizontal = 1;
place = "{-12, 28}";
},
{
horizontal = 1;
place = "{311, 36}";
},
{
horizontal = 1;
place = "{586, -20}";
target = down;
type = TopGhost;
}
);
layerId = UUID1;
name = "new Layer";
paths = (
{
closed = 1;
nodes = (
"255 373 LINE",
"124 342 OFFCURVE",
"36 248 OFFCURVE",
"36 118 CURVE SMOOTH",
"36 30 OFFCURVE",
"99 -7 OFFCURVE",
"173 -7 CURVE SMOOTH",
"262 -7 OFFCURVE",
"313 42 OFFCURVE",
"313 104 CURVE SMOOTH",
"313 168 OFFCURVE",
"273 220 OFFCURVE",
"204 220 CURVE SMOOTH",
"168 220 OFFCURVE",
"144 202 OFFCURVE",
"132 183 CURVE",
"138 215 OFFCURVE",
"172 309 OFFCURVE",
"263 347 CURVE"
);
},
{
closed = 1;
nodes = (
"130 148 OFFCURVE",
"142 191 OFFCURVE",
"172 191 CURVE SMOOTH",
"205 191 OFFCURVE",
"216 143 OFFCURVE",
"216 102 CURVE SMOOTH",
"216 58 OFFCURVE",
"203 16 OFFCURVE",
"173 16 CURVE SMOOTH",
"144 16 OFFCURVE",
"130 63 OFFCURVE",
"130 110 CURVE SMOOTH"
);
}
);
userData = {
RMXScaler = {
adjustSpace = 10;
height = 62.5;
weight = -8;
width = 65;
};
};
width = 342;
}
);
},
{
glyphname = seven.dnom;
layers = (
{
hints = (
{
horizontal = 1;
origin = "{0, 21}";
target = up;
type = BottomGhost;
},
{
horizontal = 1;
origin = "{0, 13}";
target = "{0, 1}";
},
{
place = "{53, 28}";
},
{
origin = "{0, 18}";
target = "{0, 27}";
}
);
layerId = UUID0;
paths = (
{
closed = 1;
nodes = (
"297 352 LINE",
"126 352 LINE SMOOTH",
"89 352 OFFCURVE",
"62 354 OFFCURVE",
"46 358 CURVE",
"50 342 OFFCURVE",
"53 301 OFFCURVE",
"53 272 CURVE SMOOTH",
"53 241 LINE",
"77 241 LINE",
"85 297 LINE SMOOTH",
"87 307 OFFCURVE",
"92 311 OFFCURVE",
"104 311 CURVE SMOOTH",
"253 311 LINE",
"177 153 LINE SMOOTH",
"139 73 OFFCURVE",
"125 37 OFFCURVE",
"125 17 CURVE SMOOTH",
"125 0 OFFCURVE",
"134 -7 OFFCURVE",
"154 -7 CURVE SMOOTH",
"171 -7 OFFCURVE",
"183 -4 OFFCURVE",
"193 1 CURVE",
"186 20 OFFCURVE",
"183 37 OFFCURVE",
"183 62 CURVE SMOOTH",
"183 91 OFFCURVE",
"190 122 OFFCURVE",
"205 154 CURVE SMOOTH"
);
}
);
userData = {
RMXScaler = {
adjustSpace = 10;
height = 62.2;
weight = -5;
width = 65;
};
};
width = 329;
},
{
associatedMasterId = UUID0;
hints = (
{
place = "{178, 91}";
},
{
horizontal = 1;
place = "{576, -20}";
target = down;
type = TopGhost;
},
{
horizontal = 1;
place = "{9, 21}";
target = up;
type = BottomGhost;
}
);
layerId = UUID1;
name = "new Layer";
paths = (
{
closed = 1;
nodes = (
"316 354 LINE",
"130 354 LINE SMOOTH",
"89 354 OFFCURVE",
"57 355 OFFCURVE",
"41 360 CURVE",
"44 348 OFFCURVE",
"50 304 OFFCURVE",
"50 269 CURVE SMOOTH",
"50 237 LINE",
"86 237 LINE",
"96 296 LINE SMOOTH",
"98 307 OFFCURVE",
"106 309 OFFCURVE",
"116 309 CURVE SMOOTH",
"262 309 LINE",
"207 205 LINE SMOOTH",
"141 81 OFFCURVE",
"128 35 OFFCURVE",
"128 17 CURVE SMOOTH",
"128 -6 OFFCURVE",
"142 -7 OFFCURVE",
"162 -7 CURVE SMOOTH",
"187 -7 OFFCURVE",
"203 -4 OFFCURVE",
"213 -1 CURVE",
"210 17 OFFCURVE",
"205 30 OFFCURVE",
"205 80 CURVE SMOOTH",
"205 108 OFFCURVE",
"211 158 OFFCURVE",
"238 208 CURVE SMOOTH"
);
}
);
userData = {
RMXScaler = {
adjustSpace = 10;
height = 62.5;
weight = -8;
width = 65;
};
};
width = 342;
}
);
},
{
glyphname = eight.dnom;
layers = (
{
hints = (
{
place = "{46, 78}";
},
{
place = "{72, 70}";
},
{
place = "{320, 70}";
},
{
place = "{339, 51}";
},
{
place = "{339, 77}";
},
{
horizontal = 1;
place = "{-12, 21}";
},
{
horizontal = 1;
place = "{289, 22}";
},
{
horizontal = 1;
place = "{557, 22}";
}
);
layerId = UUID0;
paths = (
{
closed = 1;
nodes = (
"50 224 OFFCURVE",
"83 190 OFFCURVE",
"135 184 CURVE",
"136 190 LINE",
"73 183 OFFCURVE",
"33 145 OFFCURVE",
"33 92 CURVE SMOOTH",
"33 32 OFFCURVE",
"85 -7 OFFCURVE",
"164 -7 CURVE SMOOTH",
"244 -7 OFFCURVE",
"295 32 OFFCURVE",
"295 92 CURVE SMOOTH",
"295 145 OFFCURVE",
"255 183 OFFCURVE",
"192 190 CURVE",
"192 183 LINE",
"246 191 OFFCURVE",
"279 225 OFFCURVE",
"279 271 CURVE SMOOTH",
"279 325 OFFCURVE",
"233 360 OFFCURVE",
"164 360 CURVE SMOOTH",
"95 360 OFFCURVE",
"50 325 OFFCURVE",
"50 271 CURVE SMOOTH"
);
},
{
closed = 1;
nodes = (
"100 144 OFFCURVE",
"125 177 OFFCURVE",
"164 177 CURVE SMOOTH",
"203 177 OFFCURVE",
"228 144 OFFCURVE",
"228 93 CURVE SMOOTH",
"228 44 OFFCURVE",
"202 10 OFFCURVE",
"164 10 CURVE SMOOTH",
"126 10 OFFCURVE",
"100 43 OFFCURVE",
"100 93 CURVE SMOOTH"
);
},
{
closed = 1;
nodes = (
"114 314 OFFCURVE",
"134 342 OFFCURVE",
"164 342 CURVE SMOOTH",
"195 342 OFFCURVE",
"215 313 OFFCURVE",
"215 270 CURVE SMOOTH",
"215 225 OFFCURVE",
"194 195 OFFCURVE",
"164 195 CURVE SMOOTH",
"134 195 OFFCURVE",
"114 225 OFFCURVE",
"114 270 CURVE SMOOTH"
);
}
);
userData = {
RMXScaler = {
adjustSpace = 10;
height = 62.2;
weight = -5;
width = 65;
};
};
width = 329;
},
{
associatedMasterId = UUID0;
hints = (
{
place = "{34, 113}";
},
{
place = "{60, 105}";
},
{
place = "{311, 105}";
},
{
place = "{330, 86}";
},
{
place = "{330, 112}";
},
{
horizontal = 1;
place = "{-12, 28}";
},
{
horizontal = 1;
place = "{285, 29}";
},
{
horizontal = 1;
place = "{550, 29}";
}
);
layerId = UUID1;
name = "new Layer";
paths = (
{
closed = 1;
nodes = (
"39 230 OFFCURVE",
"68 199 OFFCURVE",
"118 187 CURVE",
"62 176 OFFCURVE",
"22 143 OFFCURVE",
"22 93 CURVE SMOOTH",
"22 29 OFFCURVE",
"85 -7 OFFCURVE",
"171 -7 CURVE SMOOTH",
"256 -7 OFFCURVE",
"319 29 OFFCURVE",
"319 93 CURVE SMOOTH",
"319 142 OFFCURVE",
"279 176 OFFCURVE",
"224 187 CURVE",
"272 200 OFFCURVE",
"302 230 OFFCURVE",
"302 272 CURVE SMOOTH",
"302 328 OFFCURVE",
"247 362 OFFCURVE",
"171 362 CURVE SMOOTH",
"95 362 OFFCURVE",
"39 329 OFFCURVE",
"39 272 CURVE SMOOTH"
);
},
{
closed = 1;
nodes = (
"125 146 OFFCURVE",
"142 174 OFFCURVE",
"171 174 CURVE SMOOTH",
"199 174 OFFCURVE",
"217 145 OFFCURVE",
"217 93 CURVE SMOOTH",
"217 45 OFFCURVE",
"199 16 OFFCURVE",
"171 16 CURVE SMOOTH",
"142 16 OFFCURVE",
"125 44 OFFCURVE",
"125 93 CURVE SMOOTH"
);
},
{
closed = 1;
nodes = (
"137 313 OFFCURVE",
"148 337 OFFCURVE",
"171 337 CURVE SMOOTH",
"193 337 OFFCURVE",
"205 314 OFFCURVE",
"205 271 CURVE SMOOTH",
"205 226 OFFCURVE",
"193 199 OFFCURVE",
"171 199 CURVE SMOOTH",
"148 199 OFFCURVE",
"137 226 OFFCURVE",
"137 271 CURVE SMOOTH"
);
}
);
userData = {
RMXScaler = {
adjustSpace = 10;
height = 62.5;
weight = -8;
width = 65;
};
};
width = 342;
}
);
},
{
glyphname = nine.dnom;
layers = (
{
hints = (
{
horizontal = 1;
origin = "{0, 19}";
target = up;
type = BottomGhost;
},
{
horizontal = 1;
origin = "{0, 12}";
target = "{1, 2}";
},
{
horizontal = 1;
origin = "{1, 8}";
target = "{0, 6}";
},
{
origin = "{0, 9}";
target = "{1, 5}";
},
{
origin = "{0, 15}";
target = "{0, 3}";
}
);
layerId = UUID0;
paths = (
{
closed = 1;
nodes = (
"89 -22 LINE",
"212 23 OFFCURVE",
"297 127 OFFCURVE",
"297 233 CURVE SMOOTH",
"297 312 OFFCURVE",
"249 360 OFFCURVE",
"169 360 CURVE SMOOTH",
"93 360 OFFCURVE",
"42 316 OFFCURVE",
"42 250 CURVE SMOOTH",
"42 186 OFFCURVE",
"90 137 OFFCURVE",
"151 137 CURVE SMOOTH",
"187 137 OFFCURVE",
"218 156 OFFCURVE",
"230 186 CURVE",
"226 190 LINE",
"215 109 OFFCURVE",
"152 26 OFFCURVE",
"80 -3 CURVE"
);
},
{
closed = 1;
nodes = (
"230 196 OFFCURVE",
"206 160 OFFCURVE",
"171 160 CURVE SMOOTH",
"135 160 OFFCURVE",
"109 198 OFFCURVE",
"109 252 CURVE SMOOTH",
"109 305 OFFCURVE",
"134 343 OFFCURVE",
"169 343 CURVE SMOOTH",
"204 343 OFFCURVE",
"230 302 OFFCURVE",
"230 247 CURVE SMOOTH"
);
}
);
userData = {
RMXScaler = {
adjustSpace = 10;
height = 62.2;
weight = -5;
width = 65;
};
};
width = 329;
},
{
associatedMasterId = UUID0;
hints = (
{
place = "{47, 107}";
},
{
place = "{333, 109}";
},
{
horizontal = 1;
place = "{209, 36}";
},
{
horizontal = 1;
place = "{551, 28}";
},
{
horizontal = 1;
place = "{-9, 21}";
target = up;
type = BottomGhost;
}
);
layerId = UUID1;
name = "new Layer";
paths = (
{
closed = 1;
nodes = (
"79 -35 LINE",
"214 -2 OFFCURVE",
"317 102 OFFCURVE",
"317 242 CURVE SMOOTH",
"317 328 OFFCURVE",
"257 362 OFFCURVE",
"183 362 CURVE SMOOTH",
"93 362 OFFCURVE",
"34 312 OFFCURVE",
"34 249 CURVE SMOOTH",
"34 178 OFFCURVE",
"68 123 OFFCURVE",
"137 123 CURVE SMOOTH",
"176 123 OFFCURVE",
"199 139 OFFCURVE",
"215 160 CURVE",
"205 126 OFFCURVE",
"167 30 OFFCURVE",
"71 -9 CURVE"
);
},
{
closed = 1;
nodes = (
"221 204 OFFCURVE",
"203 152 OFFCURVE",
"169 152 CURVE SMOOTH",
"139 152 OFFCURVE",
"129 200 OFFCURVE",
"129 242 CURVE SMOOTH",
"129 293 OFFCURVE",
"149 339 OFFCURVE",
"183 339 CURVE SMOOTH",
"211 339 OFFCURVE",
"221 296 OFFCURVE",
"221 253 CURVE SMOOTH"
);
}
);
userData = {
RMXScaler = {
adjustSpace = 10;
height = 62.5;
weight = -8;
width = 65;
};
};
width = 342;
}
);
},
{
glyphname = fraction;
layers = (
{
hints = (
{
horizontal = 1;
origin = "{0, 2}";
target = down;
type = TopGhost;
}
);
layerId = UUID0;
paths = (
{
closed = 1;
nodes = (
"-65 -74 LINE",
"186 648 LINE",
"150 648 LINE",
"-100 -74 LINE"
);
}
);
width = 86;
}
);
leftKerningGroup = fraction;
rightKerningGroup = fraction;
unicode = 2044;
},
{
glyphname = period;
layers = (
{
hints = (
{
horizontal = 1;
place = "{-12, 21}";
target = up;
type = BottomGhost;
},
{
horizontal = 1;
place = "{100, -20}";
target = down;
type = TopGhost;
}
);
layerId = UUID0;
paths = (
{
closed = 1;
nodes = (
"40 13 OFFCURVE",
"65 -12 OFFCURVE",
"96 -12 CURVE SMOOTH",
"127 -12 OFFCURVE",
"152 13 OFFCURVE",
"152 44 CURVE SMOOTH",
"152 75 OFFCURVE",
"127 100 OFFCURVE",
"96 100 CURVE SMOOTH",
"65 100 OFFCURVE",
"40 75 OFFCURVE",
"40 44 CURVE SMOOTH"
);
}
);
width = 192;
}
);
leftKerningGroup = comma;
rightKerningGroup = period;
unicode = 002E;
},
{
glyphname = comma;
layers = (
{
hints = (
{
place = "{78, 73}";
},
{
horizontal = 1;
place = "{-125, 21}";
target = up;
type = BottomGhost;
},
{
horizontal = 1;
place = "{100, -20}";
target = down;
type = TopGhost;
}
);
layerId = UUID0;
paths = (
{
closed = 1;
nodes = (
"78 -50 OFFCURVE",
"66 -80 OFFCURVE",
"31 -111 CURVE",
"42 -125 LINE",
"109 -88 OFFCURVE",
"151 -12 OFFCURVE",
"151 40 CURVE SMOOTH",
"151 74 OFFCURVE",
"135 100 OFFCURVE",
"96 100 CURVE SMOOTH",
"66 100 OFFCURVE",
"43 74 OFFCURVE",
"42 43 CURVE",
"62 29 OFFCURVE",
"78 5 OFFCURVE",
"78 -24 CURVE SMOOTH"
);
}
);
width = 192;
}
);
leftKerningGroup = comma;
rightKerningGroup = period;
unicode = 002C;
},
{
glyphname = exclam;
layers = (
{
hints = (
{
horizontal = 1;
origin = "{0, 6}";
target = down;
type = TopGhost;
},
{
origin = "{0, 9}";
target = "{0, 3}";
}
);
layerId = UUID0;
paths = (
{
closed = 1;
nodes = (
"150 170 LINE",
"160 320 OFFCURVE",
"183 553 OFFCURVE",
"183 583 CURVE SMOOTH",
"183 621 OFFCURVE",
"166 642 OFFCURVE",
"137 642 CURVE SMOOTH",
"107 642 OFFCURVE",
"90 620 OFFCURVE",
"90 583 CURVE SMOOTH",
"90 553 OFFCURVE",
"114 320 OFFCURVE",
"124 170 CURVE"
);
},
{
closed = 1;
nodes = (
"185 62 OFFCURVE",
"163 84 OFFCURVE",
"137 84 CURVE SMOOTH",
"111 84 OFFCURVE",
"89 62 OFFCURVE",
"89 36 CURVE SMOOTH",
"89 10 OFFCURVE",
"111 -12 OFFCURVE",
"137 -12 CURVE SMOOTH",
"163 -12 OFFCURVE",
"185 10 OFFCURVE",
"185 36 CURVE SMOOTH"
);
}
);
width = 274;
}
);
leftKerningGroup = exclam;
rightKerningGroup = exclam;
unicode = 0021;
},
{
glyphname = question;
layers = (
{
hints = (
{
horizontal = 1;
origin = "{0, 17}";
target = "{0, 35}";
},
{
origin = "{0, 2}";
target = "{0, 14}";
},
{
place = "{142, 31}";
},
{
origin = "{0, 20}";
target = "{0, 32}";
},
{
origin = "{1, 5}";
target = "{1, 11}";
}
);
layerId = UUID0;
paths = (
{
closed = 1;
nodes = (
"81 621 OFFCURVE",
"35 564 OFFCURVE",
"35 500 CURVE SMOOTH",
"35 471 OFFCURVE",
"46 446 OFFCURVE",
"70 446 CURVE SMOOTH",
"80 446 OFFCURVE",
"89 448 OFFCURVE",
"97 451 CURVE SMOOTH",
"105 454 OFFCURVE",
"111 457 OFFCURVE",
"115 461 CURVE",
"106 479 OFFCURVE",
"102 501 OFFCURVE",
"102 520 CURVE SMOOTH",
"102 564 OFFCURVE",
"129 600 OFFCURVE",
"184 600 CURVE SMOOTH",
"223 600 OFFCURVE",
"266 570 OFFCURVE",
"266 510 CURVE SMOOTH",
"266 399 OFFCURVE",
"136 389 OFFCURVE",
"136 264 CURVE SMOOTH",
"136 261 OFFCURVE",
"136 258 OFFCURVE",
"139 231 CURVE SMOOTH",
"145 170 LINE",
"173 170 LINE",
"173 235 LINE SMOOTH",
"173 309 OFFCURVE",
"335 371 OFFCURVE",
"335 485 CURVE SMOOTH",
"335 576 OFFCURVE",
"256 621 OFFCURVE",
"184 621 CURVE SMOOTH"
);
},
{
closed = 1;
nodes = (
"207 62 OFFCURVE",
"185 84 OFFCURVE",
"159 84 CURVE SMOOTH",
"133 84 OFFCURVE",
"111 62 OFFCURVE",
"111 36 CURVE SMOOTH",
"111 10 OFFCURVE",
"133 -12 OFFCURVE",
"159 -12 CURVE SMOOTH",
"185 -12 OFFCURVE",
"207 10 OFFCURVE",
"207 36 CURVE SMOOTH"
);
}
);
width = 355;
}
);
leftKerningGroup = question;
rightKerningGroup = question;
unicode = 003F;
},
{
glyphname = asterisk;
layers = (
{
hints = (
{
place = "{172, 74}";
},
{
horizontal = 1;
place = "{660, -20}";
target = down;
type = TopGhost;
},
{
horizontal = 1;
place = "{341, 21}";
target = up;
type = BottomGhost;
}
);
layerId = UUID0;
paths = (
{
closed = 1;
nodes = (
"246 646 OFFCURVE",
"230 660 OFFCURVE",
"209 660 CURVE SMOOTH",
"188 660 OFFCURVE",
"172 646 OFFCURVE",
"172 620 CURVE SMOOTH",
"172 596 OFFCURVE",
"190 554 OFFCURVE",
"201 499 CURVE",
"139 534 OFFCURVE",
"105 567 OFFCURVE",
"79 567 CURVE SMOOTH",
"59 567 OFFCURVE",
"43 550 OFFCURVE",
"43 529 CURVE SMOOTH",
"43 503 OFFCURVE",
"63 491 OFFCURVE",
"107 489 CURVE SMOOTH",
"128 488 OFFCURVE",
"165 487 OFFCURVE",
"196 483 CURVE",
"137 429 OFFCURVE",
"92 410 OFFCURVE",
"92 378 CURVE SMOOTH",
"92 359 OFFCURVE",
"109 341 OFFCURVE",
"129 341 CURVE SMOOTH",
"169 341 OFFCURVE",
"170 391 OFFCURVE",
"209 474 CURVE",
"248 391 OFFCURVE",
"249 341 OFFCURVE",
"289 341 CURVE SMOOTH",
"309 341 OFFCURVE",
"326 359 OFFCURVE",
"326 378 CURVE SMOOTH",
"326 410 OFFCURVE",
"281 429 OFFCURVE",
"222 483 CURVE",
"253 487 OFFCURVE",
"289 488 OFFCURVE",
"311 489 CURVE SMOOTH",
"355 491 OFFCURVE",
"375 503 OFFCURVE",
"375 529 CURVE SMOOTH",
"375 550 OFFCURVE",
"359 567 OFFCURVE",
"339 567 CURVE SMOOTH",
"312 567 OFFCURVE",
"279 534 OFFCURVE",
"217 499 CURVE",
"228 554 OFFCURVE",
"246 596 OFFCURVE",
"246 620 CURVE SMOOTH"
);
}
);
width = 418;
}
);
leftKerningGroup = asterisk;
rightKerningGroup = asterisk;
unicode = 002A;
},
{
glyphname = numbersign;
layers = (
{
hints = (
{
horizontal = 1;
place = "{202, 31}";
},
{
horizontal = 1;
place = "{369, 31}";
},
{
horizontal = 1;
place = "{-101, 21}";
target = up;
type = BottomGhost;
},
{
horizontal = 1;
place = "{667, -20}";
target = down;
type = TopGhost;
}
);
layerId = UUID0;
paths = (
{
closed = 1;
nodes = (
"105 -51 LINE",
"330 617 LINE",
"297 617 LINE",
"72 -51 LINE"
);
},
{
closed = 1;
nodes = (
"499 213 LINE",
"61 213 LINE",
"50 182 LINE",
"489 182 LINE"
);
},
{
closed = 1;
nodes = (
"310 -51 LINE",
"535 617 LINE",
"502 617 LINE",
"277 -51 LINE"
);
},
{
closed = 1;
nodes = (
"555 380 LINE",
"117 380 LINE",
"107 349 LINE",
"544 349 LINE"
);
}
);
width = 605;
}
);
leftKerningGroup = numbersign;
rightKerningGroup = numbersign;
unicode = 0023;
},
{
glyphname = slash;
layers = (
{
hints = (
{
horizontal = 1;
place = "{-74, 21}";
target = up;
type = BottomGhost;
},
{
horizontal = 1;
place = "{648, -20}";
target = down;
type = TopGhost;
}
);
layerId = UUID0;
paths = (
{
closed = 1;
nodes = (
"54 -74 LINE",
"304 648 LINE",
"264 648 LINE",
"15 -74 LINE"
);
}
);
width = 319;
}
);
leftKerningGroup = slash;
rightKerningGroup = slash;
unicode = 002F;
},
{
glyphname = parenleft;
layers = (
{
hints = (
{
horizontal = 1;
origin = "{0, 3}";
target = down;
type = TopGhost;
},
{
origin = "{0, 6}";
target = "{0, 13}";
}
);
layerId = UUID0;
paths = (
{
closed = 1;
nodes = (
"132 400 OFFCURVE",
"177 547 OFFCURVE",
"267 620 CURVE",
"257 635 LINE",
"120 564 OFFCURVE",
"50 413 OFFCURVE",
"50 261 CURVE SMOOTH",
"50 109 OFFCURVE",
"120 -42 OFFCURVE",
"257 -113 CURVE",
"267 -98 LINE",
"177 -25 OFFCURVE",
"132 122 OFFCURVE",
"132 261 CURVE SMOOTH"
);
}
);
width = 287;
}
);
leftKerningGroup = parenleft;
rightKerningGroup = parenleft;
unicode = 0028;
},
{
glyphname = braceleft;
layers = (
{
hints = (
{
place = "{102, 77}";
},
{
horizontal = 1;
place = "{635, -20}";
target = down;
type = TopGhost;
},
{
horizontal = 1;
place = "{-113, 21}";
target = up;
type = BottomGhost;
}
);
layerId = UUID0;
paths = (
{
closed = 1;
nodes = (
"111 263 LINE",
"159 278 OFFCURVE",
"179 310 OFFCURVE",
"179 372 CURVE SMOOTH",
"179 499 LINE SMOOTH",
"179 561 OFFCURVE",
"183 568 OFFCURVE",
"248 620 CURVE",
"238 635 LINE",
"109 568 OFFCURVE",
"102 559 OFFCURVE",
"102 442 CURVE SMOOTH",
"102 329 LINE SMOOTH",
"102 286 OFFCURVE",
"85 268 OFFCURVE",
"45 268 CURVE",
"45 254 LINE",
"85 254 OFFCURVE",
"102 236 OFFCURVE",
"102 193 CURVE SMOOTH",
"102 80 LINE SMOOTH",
"102 -37 OFFCURVE",
"109 -46 OFFCURVE",
"238 -113 CURVE",
"248 -98 LINE",
"183 -46 OFFCURVE",
"179 -39 OFFCURVE",
"179 23 CURVE SMOOTH",
"179 150 LINE SMOOTH",
"179 212 OFFCURVE",
"159 244 OFFCURVE",
"111 259 CURVE"
);
}
);
width = 288;
}
);
leftKerningGroup = braceleft;
rightKerningGroup = braceleft;
unicode = 007B;
},
{
glyphname = bracketleft;
layers = (
{
hints = (
{
place = "{70, 72}";
},
{
horizontal = 1;
place = "{-107, 18}";
},
{
horizontal = 1;
place = "{612, 18}";
},
{
horizontal = 1;
place = "{636, -20}";
target = down;
type = TopGhost;
},
{
horizontal = 1;
place = "{-113, 21}";
target = up;
type = BottomGhost;
}
);
layerId = UUID0;
paths = (
{
closed = 1;
nodes = (
"142 598 LINE SMOOTH",
"142 606 OFFCURVE",
"148 612 OFFCURVE",
"156 612 CURVE SMOOTH",
"233 612 LINE",
"233 630 LINE",
"154 630 LINE SMOOTH",
"118 630 OFFCURVE",
"82 633 OFFCURVE",
"70 636 CURVE",
"70 -113 LINE",
"82 -110 OFFCURVE",
"118 -107 OFFCURVE",
"154 -107 CURVE SMOOTH",
"233 -107 LINE",
"233 -89 LINE",
"156 -89 LINE SMOOTH",
"148 -89 OFFCURVE",
"142 -83 OFFCURVE",
"142 -75 CURVE SMOOTH"
);
}
);
width = 263;
}
);
leftKerningGroup = bracketleft;
rightKerningGroup = bracketleft;
unicode = 005B;
},
{
glyphname = hyphen;
layers = (
{
hints = (
{
horizontal = 1;
place = "{211, 40}";
}
);
layerId = UUID0;
paths = (
{
closed = 1;
nodes = (
"30 211 LINE",
"282 211 LINE",
"282 251 LINE",
"30 251 LINE"
);
}
);
width = 312;
}
);
leftKerningGroup = hyphen;
rightKerningGroup = hyphen;
unicode = 002D;
},
{
glyphname = endash;
layers = (
{
hints = (
{
horizontal = 1;
place = "{211, 40}";
}
);
layerId = UUID0;
paths = (
{
closed = 1;
nodes = (
"30 211 LINE",
"376 211 LINE",
"376 251 LINE",
"30 251 LINE"
);
}
);
width = 406;
}
);
leftKerningGroup = hyphen;
rightKerningGroup = hyphen;
unicode = 2013;
},
{
glyphname = emdash;
layers = (
{
hints = (
{
horizontal = 1;
place = "{211, 40}";
}
);
layerId = UUID0;
paths = (
{
closed = 1;
nodes = (
"30 211 LINE",
"630 211 LINE",
"630 251 LINE",
"30 251 LINE"
);
}
);
width = 660;
}
);
leftKerningGroup = hyphen;
rightKerningGroup = hyphen;
unicode = 2014;
},
{
glyphname = underscore;
layers = (
{
hints = (
{
horizontal = 1;
place = "{-51, 39}";
}
);
layerId = UUID0;
paths = (
{
closed = 1;
nodes = (
"30 -51 LINE",
"376 -51 LINE",
"376 -12 LINE",
"30 -12 LINE"
);
}
);
width = 406;
}
);
leftKerningGroup = underscore;
rightKerningGroup = underscore;
unicode = 005F;
},
{
glyphname = quoteleft;
layers = (
{
hints = (
{
place = "{40, 73}";
},
{
horizontal = 1;
place = "{668, -20}";
target = down;
type = TopGhost;
},
{
horizontal = 1;
place = "{443, 21}";
target = up;
type = BottomGhost;
}
);
layerId = UUID0;
paths = (
{
closed = 1;
nodes = (
"113 597 OFFCURVE",
"129 627 OFFCURVE",
"160 654 CURVE",
"149 668 LINE",
"88 635 OFFCURVE",
"40 561 OFFCURVE",
"40 503 CURVE SMOOTH",
"40 465 OFFCURVE",
"60 443 OFFCURVE",
"95 443 CURVE SMOOTH",
"124 443 OFFCURVE",
"148 468 OFFCURVE",
"149 500 CURVE",
"127 516 OFFCURVE",
"113 541 OFFCURVE",
"113 567 CURVE SMOOTH"
);
}
);
width = 190;
}
);
leftKerningGroup = quotedbl;
rightKerningGroup = quotedbl;
unicode = 2018;
},
{
glyphname = guilsinglleft;
layers = (
{
hints = (
{
horizontal = 1;
place = "{54, 21}";
target = up;
type = BottomGhost;
},
{
horizontal = 1;
place = "{408, -20}";
target = down;
type = TopGhost;
}
);
layerId = UUID0;
paths = (
{
closed = 1;
nodes = (
"30 225 LINE",
"190 54 LINE",
"206 68 LINE",
"112 231 LINE",
"206 394 LINE",
"190 408 LINE",
"30 237 LINE"
);
}
);
width = 246;
}
);
leftKerningGroup = guillemotleft;
rightKerningGroup = guillemotleft;
unicode = 2039;
},
{
glyphname = quotesingle;
layers = (
{
hints = (
{
horizontal = 1;
place = "{444, 21}";
target = up;
type = BottomGhost;
},
{
horizontal = 1;
place = "{668, -20}";
target = down;
type = TopGhost;
}
);
layerId = UUID0;
paths = (
{
closed = 1;
nodes = (
"84 444 LINE",
"101 524 OFFCURVE",
"121 610 OFFCURVE",
"121 618 CURVE SMOOTH",
"121 652 OFFCURVE",
"101 668 OFFCURVE",
"76 668 CURVE SMOOTH",
"50 668 OFFCURVE",
"30 651 OFFCURVE",
"30 618 CURVE SMOOTH",
"30 610 OFFCURVE",
"50 524 OFFCURVE",
"67 444 CURVE"
);
}
);
width = 151;
}
);
leftKerningGroup = quotedbl;
rightKerningGroup = quotedbl;
unicode = 0027;
},
{
glyphname = "leftanglebracket-math";
layers = (
{
hints = (
{
horizontal = 1;
origin = "{0, 3}";
target = up;
type = BottomGhost;
},
{
horizontal = 1;
origin = "{0, 1}";
target = down;
type = TopGhost;
}
);
layerId = UUID0;
paths = (
{
closed = 1;
nodes = (
"267 630 LINE",
"251 635 LINE",
"50 261 LINE",
"251 -113 LINE",
"267 -108 LINE",
"132 261 LINE"
);
}
);
width = 287;
}
);
leftKerningGroup = "leftanglebracket-math";
rightKerningGroup = "leftanglebracket-math";
unicode = 27E8;
},
{
glyphname = cedi;
layers = (
{
background = {
paths = (
{
closed = 1;
nodes = (
"338 276 LINE",
"112 276 LINE",
"112 294 LINE SMOOTH",
"112 300 OFFCURVE",
"112 306 OFFCURVE",
"113 312 CURVE",
"344 312 LINE",
"353 342 LINE",
"117 342 LINE",
"132 453 OFFCURVE",
"183 551 OFFCURVE",
"266 551 CURVE SMOOTH",
"321 551 OFFCURVE",
"343 512 OFFCURVE",
"343 468 CURVE SMOOTH",
"343 450 OFFCURVE",
"338 432 OFFCURVE",
"329 414 CURVE",
"333 410 OFFCURVE",
"340 407 OFFCURVE",
"348 404 CURVE SMOOTH",
"356 401 OFFCURVE",
"365 399 OFFCURVE",
"376 399 CURVE SMOOTH",
"400 399 OFFCURVE",
"412 424 OFFCURVE",
"412 454 CURVE SMOOTH",
"412 520 OFFCURVE",
"368 579 OFFCURVE",
"266 579 CURVE SMOOTH",
"143 579 OFFCURVE",
"67 468 OFFCURVE",
"46 342 CURVE",
"0 342 LINE",
"-9 312 LINE",
"42 312 LINE",
"40 301 OFFCURVE",
"40 287 OFFCURVE",
"40 276 CURVE",
"-19 276 LINE",
"-28 246 LINE",
"40 246 LINE",
"46 118 OFFCURVE",
"102 -12 OFFCURVE",
"254 -12 CURVE SMOOTH",
"371 -12 OFFCURVE",
"424 55 OFFCURVE",
"424 125 CURVE SMOOTH",
"424 150 OFFCURVE",
"413 168 OFFCURVE",
"393 168 CURVE SMOOTH",
"372 168 OFFCURVE",
"354 160 OFFCURVE",
"345 153 CURVE",
"350 139 OFFCURVE",
"353 124 OFFCURVE",
"353 110 CURVE SMOOTH",
"353 62 OFFCURVE",
"317 16 OFFCURVE",
"253 16 CURVE SMOOTH",
"144 16 OFFCURVE",
"116 136 OFFCURVE",
"112 246 CURVE",
"329 246 LINE"
);
}
);
};
hints = (
{
horizontal = 1;
origin = "{1, 29}";
target = "{1, 36}";
},
{
horizontal = 1;
origin = "{1, 5}";
target = "{1, 23}";
},
{
origin = "{1, 26}";
target = "{1, 2}";
},
{
origin = "{0, 0}";
target = "{0, 1}";
},
{
origin = "{1, 8}";
target = "{1, 32}";
}
);
layerId = UUID0;
paths = (
{
closed = 1;
nodes = (
"222 -101 LINE",
"253 -101 LINE",
"253 667 LINE",
"222 667 LINE"
);
},
{
closed = 1;
nodes = (
"162 12 OFFCURVE",
"112 102 OFFCURVE",
"112 267 CURVE SMOOTH",
"112 437 OFFCURVE",
"176 555 OFFCURVE",
"269 555 CURVE SMOOTH",
"314 555 OFFCURVE",
"343 521 OFFCURVE",
"343 470 CURVE SMOOTH",
"343 451 OFFCURVE",
"338 433 OFFCURVE",
"329 414 CURVE",
"332 411 OFFCURVE",
"338 408 OFFCURVE",
"348 404 CURVE SMOOTH",
"356 401 OFFCURVE",
"366 399 OFFCURVE",
"374 399 CURVE SMOOTH",
"398 399 OFFCURVE",
"412 420 OFFCURVE",
"412 455 CURVE SMOOTH",
"412 529 OFFCURVE",
"355 579 OFFCURVE",
"273 579 CURVE SMOOTH",
"132 579 OFFCURVE",
"36 454 OFFCURVE",
"35 271 CURVE SMOOTH",
"35 94 OFFCURVE",
"114 -12 OFFCURVE",
"248 -12 CURVE SMOOTH",
"324 -12 OFFCURVE",
"394 31 OFFCURVE",
"412 116 CURVE",
"393 120 LINE",
"376 50 OFFCURVE",
"325 12 OFFCURVE",
"253 12 CURVE SMOOTH"
);
}
);
width = 454;
}
);
leftKerningGroup = cedi;
leftMetricsKey = O;
rightKerningGroup = cedi;
rightMetricsKey = "=H*1.2";
unicode = 20B5;
},
{
glyphname = cent;
layers = (
{
hints = (
{
place = "{41, 78}";
},
{
place = "{231, 31}";
},
{
place = "{317, 69}";
},
{
horizontal = 1;
place = "{64, 25}";
},
{
horizontal = 1;
place = "{478, 24}";
},
{
horizontal = 1;
place = "{-55, 21}";
target = up;
type = BottomGhost;
},
{
horizontal = 1;
place = "{621, -20}";
target = down;
type = TopGhost;
}
);
layerId = UUID0;
paths = (
{
closed = 1;
nodes = (
"262 -55 LINE",
"262 64 LINE",
"330 69 OFFCURVE",
"391 111 OFFCURVE",
"408 187 CURVE",
"388 192 LINE",
"371 125 OFFCURVE",
"316 89 OFFCURVE",
"248 89 CURVE SMOOTH",
"173 89 OFFCURVE",
"119 160 OFFCURVE",
"119 283 CURVE SMOOTH",
"119 407 OFFCURVE",
"174 478 OFFCURVE",
"251 478 CURVE SMOOTH",
"298 478 OFFCURVE",
"317 439 OFFCURVE",
"317 400 CURVE SMOOTH",
"317 382 OFFCURVE",
"312 364 OFFCURVE",
"304 346 CURVE",
"312 339 OFFCURVE",
"330 331 OFFCURVE",
"350 331 CURVE SMOOTH",
"375 331 OFFCURVE",
"386 356 OFFCURVE",
"386 386 CURVE SMOOTH",
"386 445 OFFCURVE",
"351 498 OFFCURVE",
"262 502 CURVE",
"262 621 LINE",
"231 621 LINE",
"231 502 LINE",
"124 493 OFFCURVE",
"41 413 OFFCURVE",
"41 283 CURVE SMOOTH",
"41 152 OFFCURVE",
"124 72 OFFCURVE",
"231 64 CURVE",
"231 -55 LINE"
);
}
);
width = 434;
}
);
leftKerningGroup = o;
rightKerningGroup = c;
unicode = 00A2;
},
{
glyphname = colonsign;
layers = (
{
layerId = UUID0;
paths = (
{
closed = 1;
nodes = (
"103 -101 LINE",
"134 -101 LINE",
"331 667 LINE",
"300 667 LINE"
);
},
{
closed = 1;
nodes = (
"162 12 OFFCURVE",
"112 102 OFFCURVE",
"112 267 CURVE SMOOTH",
"112 437 OFFCURVE",
"176 555 OFFCURVE",
"269 555 CURVE SMOOTH",
"314 555 OFFCURVE",
"343 521 OFFCURVE",
"361 470 CURVE",
"383 536 LINE",
"358 563 OFFCURVE",
"320 579 OFFCURVE",
"273 579 CURVE SMOOTH",
"132 579 OFFCURVE",
"36 454 OFFCURVE",
"35 271 CURVE SMOOTH",
"35 94 OFFCURVE",
"114 -12 OFFCURVE",
"248 -12 CURVE SMOOTH",
"324 -12 OFFCURVE",
"394 31 OFFCURVE",
"412 116 CURVE",
"393 120 LINE",
"376 50 OFFCURVE",
"325 12 OFFCURVE",
"253 12 CURVE SMOOTH"
);
},
{
closed = 1;
nodes = (
"202 -101 LINE",
"233 -101 LINE",
"430 667 LINE",
"399 667 LINE"
);
}
);
width = 448;
}
);
leftKerningGroup = colonsign;
leftMetricsKey = O;
rightKerningGroup = colonsign;
rightMetricsKey = "=H/2";
unicode = 20A1;
},
{
glyphname = currency;
layers = (
{
background = {
paths = (
{
closed = 1;
nodes = (
"112 212 LINE",
"26 126 LINE",
"64 89 LINE",
"149 174 LINE"
);
},
{
closed = 1;
nodes = (
"349 374 LINE",
"437 462 LINE",
"400 500 LINE",
"311 411 LINE"
);
},
{
closed = 1;
nodes = (
"102 366 OFFCURVE",
"160 424 OFFCURVE",
"232 424 CURVE SMOOTH",
"304 424 OFFCURVE",
"362 366 OFFCURVE",
"362 294 CURVE SMOOTH",
"362 222 OFFCURVE",
"304 164 OFFCURVE",
"232 164 CURVE SMOOTH",
"160 164 OFFCURVE",
"102 222 OFFCURVE",
"102 294 CURVE SMOOTH"
);
},
{
closed = 1;
nodes = (
"72 206 OFFCURVE",
"144 134 OFFCURVE",
"232 134 CURVE SMOOTH",
"320 134 OFFCURVE",
"392 206 OFFCURVE",
"392 294 CURVE SMOOTH",
"392 382 OFFCURVE",
"320 454 OFFCURVE",
"232 454 CURVE SMOOTH",
"144 454 OFFCURVE",
"72 382 OFFCURVE",
"72 294 CURVE SMOOTH"
);
},
{
closed = 1;
nodes = (
"314 175 LINE",
"400 89 LINE",
"437 127 LINE",
"352 212 LINE"
);
},
{
closed = 1;
nodes = (
"152 412 LINE",
"64 500 LINE",
"26 463 LINE",
"115 374 LINE"
);
}
);
};
hints = (
{
place = "{72, 30}";
},
{
place = "{362, 30}";
},
{
horizontal = 1;
place = "{134, 30}";
},
{
horizontal = 1;
place = "{424, 30}";
},
{
horizontal = 1;
place = "{89, 21}";
target = up;
type = BottomGhost;
},
{
horizontal = 1;
place = "{500, -20}";
target = down;
type = TopGhost;
}
);
layerId = UUID0;
paths = (
{
closed = 1;
nodes = (
"72 259 OFFCURVE",
"83 227 OFFCURVE",
"101 201 CURVE",
"26 126 LINE",
"64 89 LINE",
"139 164 LINE",
"165 145 OFFCURVE",
"197 134 OFFCURVE",
"232 134 CURVE SMOOTH",
"266 134 OFFCURVE",
"299 145 OFFCURVE",
"325 164 CURVE",
"400 89 LINE",
"437 127 LINE",
"362 201 LINE",
"381 227 OFFCURVE",
"392 259 OFFCURVE",
"392 294 CURVE SMOOTH",
"392 328 OFFCURVE",
"381 361 OFFCURVE",
"362 387 CURVE",
"437 462 LINE",
"400 500 LINE",
"324 424 LINE",
"298 443 OFFCURVE",
"266 454 OFFCURVE",
"232 454 CURVE SMOOTH",
"197 454 OFFCURVE",
"165 443 OFFCURVE",
"139 424 CURVE",
"64 500 LINE",
"26 463 LINE",
"102 387 LINE",
"83 361 OFFCURVE",
"72 328 OFFCURVE",
"72 294 CURVE SMOOTH"
);
},
{
closed = 1;
nodes = (
"102 366 OFFCURVE",
"160 424 OFFCURVE",
"232 424 CURVE SMOOTH",
"304 424 OFFCURVE",
"362 366 OFFCURVE",
"362 294 CURVE SMOOTH",
"362 222 OFFCURVE",
"304 164 OFFCURVE",
"232 164 CURVE SMOOTH",
"160 164 OFFCURVE",
"102 222 OFFCURVE",
"102 294 CURVE SMOOTH"
);
}
);
width = 463;
}
);
leftKerningGroup = currency;
rightKerningGroup = currency;
unicode = 00A4;
},
{
glyphname = dollar;
layers = (
{
hints = (
{
horizontal = 1;
place = "{-11, 24}";
},
{
horizontal = 1;
place = "{549, 30}";
},
{
horizontal = 1;
place = "{-12, 25}";
},
{
origin = "{1, 24}";
target = "{1, 3}";
},
{
origin = "{0, 0}";
target = "{0, 1}";
},
{
origin = "{1, 31}";
target = "{1, 52}";
},
{
origin = "{1, 9}";
target = "{1, 18}";
},
{
origin = "{1, 46}";
target = "{1, 37}";
}
);
layerId = UUID0;
paths = (
{
closed = 1;
nodes = (
"210 -101 LINE",
"241 -101 LINE",
"241 667 LINE",
"210 667 LINE"
);
},
{
closed = 1;
nodes = (
"222 328 LINE SMOOTH",
"150 361 OFFCURVE",
"121 394 OFFCURVE",
"121 446 CURVE SMOOTH",
"121 508 OFFCURVE",
"162 550 OFFCURVE",
"224 550 CURVE SMOOTH",
"280 550 OFFCURVE",
"318 517 OFFCURVE",
"318 468 CURVE SMOOTH",
"318 451 OFFCURVE",
"314 434 OFFCURVE",
"305 414 CURVE",
"313 406 OFFCURVE",
"335 399 OFFCURVE",
"351 399 CURVE SMOOTH",
"373 399 OFFCURVE",
"387 420 OFFCURVE",
"387 454 CURVE SMOOTH",
"387 529 OFFCURVE",
"327 579 OFFCURVE",
"235 579 CURVE SMOOTH",
"132 579 OFFCURVE",
"60 514 OFFCURVE",
"60 420 CURVE SMOOTH",
"60 357 OFFCURVE",
"95 306 OFFCURVE",
"157 278 CURVE SMOOTH",
"263 230 LINE SMOOTH",
"315 206 OFFCURVE",
"344 167 OFFCURVE",
"344 122 CURVE SMOOTH",
"344 59 OFFCURVE",
"293 12 OFFCURVE",
"226 12 CURVE SMOOTH",
"162 12 OFFCURVE",
"114 48 OFFCURVE",
"114 96 CURVE SMOOTH",
"114 114 OFFCURVE",
"120 137 OFFCURVE",
"128 152 CURVE",
"119 160 OFFCURVE",
"97 168 OFFCURVE",
"83 168 CURVE SMOOTH",
"60 168 OFFCURVE",
"45 147 OFFCURVE",
"45 114 CURVE SMOOTH",
"45 41 OFFCURVE",
"120 -12 OFFCURVE",
"222 -12 CURVE SMOOTH",
"334 -12 OFFCURVE",
"417 54 OFFCURVE",
"417 143 CURVE SMOOTH",
"417 205 OFFCURVE",
"377 258 OFFCURVE",
"306 290 CURVE SMOOTH"
);
}
);
width = 463;
}
);
leftKerningGroup = dollar;
rightKerningGroup = dollar;
unicode = 0024;
},
{
glyphname = dong;
layers = (
{
components = (
{
name = strokeshortcomb;
transform = "{1.34623, 0, 0, 1, 59, -428}";
},
{
name = strokeshortcomb;
transform = "{1, 0, 0, 1, 186, 131}";
}
);
hints = (
{
horizontal = 1;
origin = "{0, 29}";
target = "{1, 9}";
},
{
horizontal = 1;
origin = "{1, 2}";
target = "{0, 23}";
},
{
horizontal = 1;
origin = "{0, 15}";
target = "{0, 14}";
},
{
horizontal = 1;
origin = "{0, 0}";
target = up;
type = BottomGhost;
},
{
horizontal = 1;
origin = "{0, 3}";
target = "{0, 6}";
},
{
origin = "{0, 26}";
target = "{1, 12}";
},
{
origin = "{0, 0}";
target = "{0, 9}";
}
);
layerId = UUID0;
paths = (
{
closed = 1;
nodes = (
"327 -6 LINE",
"340 -3 OFFCURVE",
"378 0 OFFCURVE",
"411 0 CURVE SMOOTH",
"460 0 LINE",
"460 18 LINE",
"415 18 LINE SMOOTH",
"407 18 OFFCURVE",
"401 24 OFFCURVE",
"401 32 CURVE SMOOTH",
"401 579 LINE",
"388 576 OFFCURVE",
"348 573 OFFCURVE",
"315 573 CURVE SMOOTH",
"266 573 LINE",
"266 555 LINE",
"313 555 LINE SMOOTH",
"321 555 OFFCURVE",
"327 549 OFFCURVE",
"327 541 CURVE SMOOTH",
"327 347 LINE",
"297 365 OFFCURVE",
"263 374 OFFCURVE",
"227 374 CURVE SMOOTH",
"109 374 OFFCURVE",
"40 303 OFFCURVE",
"40 181 CURVE SMOOTH",
"40 64 OFFCURVE",
"93 -12 OFFCURVE",
"175 -12 CURVE SMOOTH",
"235 -12 OFFCURVE",
"275 8 OFFCURVE",
"322 55 CURVE",
"327 55 LINE"
);
},
{
closed = 1;
nodes = (
"117 284 OFFCURVE",
"160 344 OFFCURVE",
"235 344 CURVE SMOOTH",
"264 344 OFFCURVE",
"297 334 OFFCURVE",
"327 316 CURVE",
"327 92 LINE",
"293 48 OFFCURVE",
"252 26 OFFCURVE",
"210 26 CURVE SMOOTH",
"153 26 OFFCURVE",
"117 85 OFFCURVE",
"117 181 CURVE SMOOTH"
);
}
);
width = 503;
}
);
leftKerningGroup = dong;
leftMetricsKey = o;
rightKerningGroup = dong;
rightMetricsKey = H;
unicode = 20AB;
},
{
glyphname = euro;
layers = (
{
hints = (
{
horizontal = 1;
origin = "{1, 26}";
target = "{1, 41}";
},
{
horizontal = 1;
origin = "{0, 1}";
target = "{0, 0}";
},
{
horizontal = 1;
origin = "{2, 3}";
target = "{2, 2}";
},
{
horizontal = 1;
origin = "{1, 5}";
target = "{1, 20}";
},
{
origin = "{1, 23}";
target = "{1, 2}";
},
{
origin = "{1, 38}";
target = "{1, 29}";
},
{
origin = "{1, 8}";
target = "{1, 17}";
}
);
layerId = UUID0;
paths = (
{
closed = 1;
nodes = (
"-5 246 LINE",
"-14 216 LINE",
"343 216 LINE",
"352 246 LINE"
);
},
{
closed = 1;
nodes = (
"176 12 OFFCURVE",
"126 102 OFFCURVE",
"126 267 CURVE SMOOTH",
"126 437 OFFCURVE",
"190 555 OFFCURVE",
"283 555 CURVE SMOOTH",
"328 555 OFFCURVE",
"357 521 OFFCURVE",
"357 470 CURVE SMOOTH",
"357 451 OFFCURVE",
"352 433 OFFCURVE",
"343 414 CURVE",
"349 408 OFFCURVE",
"372 399 OFFCURVE",
"388 399 CURVE SMOOTH",
"412 399 OFFCURVE",
"426 420 OFFCURVE",
"426 455 CURVE SMOOTH",
"426 529 OFFCURVE",
"369 579 OFFCURVE",
"287 579 CURVE SMOOTH",
"146 579 OFFCURVE",
"50 454 OFFCURVE",
"49 271 CURVE SMOOTH",
"49 94 OFFCURVE",
"132 -12 OFFCURVE",
"272 -12 CURVE SMOOTH",
"369 -12 OFFCURVE",
"438 44 OFFCURVE",
"438 123 CURVE SMOOTH",
"438 153 OFFCURVE",
"427 168 OFFCURVE",
"404 168 CURVE SMOOTH",
"389 168 OFFCURVE",
"370 161 OFFCURVE",
"359 153 CURVE",
"364 138 OFFCURVE",
"367 123 OFFCURVE",
"367 110 CURVE SMOOTH",
"367 54 OFFCURVE",
"325 12 OFFCURVE",
"267 12 CURVE"
);
},
{
closed = 1;
nodes = (
"358 312 LINE",
"367 342 LINE",
"14 342 LINE",
"5 312 LINE"
);
}
);
width = 463;
}
);
leftKerningGroup = euro;
rightKerningGroup = euro;
unicode = 20AC;
},
{
glyphname = florin;
layers = (
{
hints = (
{
place = "{151, 71}";
},
{
place = "{355, 69}";
},
{
horizontal = 1;
place = "{247, 31}";
},
{
horizontal = 1;
place = "{554, 25}";
},
{
horizontal = 1;
place = "{-222, 21}";
target = up;
type = BottomGhost;
}
);
layerId = UUID0;
paths = (
{
closed = 1;
nodes = (
"222 484 OFFCURVE",
"239 554 OFFCURVE",
"305 554 CURVE SMOOTH",
"340 554 OFFCURVE",
"355 522 OFFCURVE",
"355 487 CURVE SMOOTH",
"355 465 OFFCURVE",
"350 444 OFFCURVE",
"340 422 CURVE",
"343 418 OFFCURVE",
"348 415 OFFCURVE",
"356 412 CURVE SMOOTH",
"363 409 OFFCURVE",
"373 407 OFFCURVE",
"383 407 CURVE SMOOTH",
"412 407 OFFCURVE",
"424 441 OFFCURVE",
"424 476 CURVE SMOOTH",
"424 533 OFFCURVE",
"388 579 OFFCURVE",
"304 579 CURVE SMOOTH",
"184 579 OFFCURVE",
"155 432 OFFCURVE",
"151 278 CURVE",
"59 278 LINE",
"59 247 LINE",
"151 247 LINE",
"151 -105 LINE SMOOTH",
"151 -149 OFFCURVE",
"130 -184 OFFCURVE",
"60 -198 CURVE",
"64 -222 LINE",
"186 -209 OFFCURVE",
"221 -170 OFFCURVE",
"221 -87 CURVE SMOOTH",
"221 24 OFFCURVE",
"221 136 OFFCURVE",
"221 247 CURVE",
"354 247 LINE",
"354 278 LINE",
"221 278 LINE",
"221 315 OFFCURVE",
"222 353 OFFCURVE",
"222 390 CURVE SMOOTH"
);
}
);
width = 463;
}
);
leftKerningGroup = florin;
rightKerningGroup = florin;
unicode = 0192;
},
{
glyphname = franc;
layers = (
{
hints = (
{
place = "{91, 81}";
},
{
horizontal = 1;
place = "{0, 18}";
},
{
horizontal = 1;
place = "{128, 31}";
},
{
horizontal = 1;
place = "{261, 28}";
},
{
horizontal = 1;
place = "{538, 28}";
},
{
horizontal = 1;
place = "{575, -20}";
target = down;
type = TopGhost;
}
);
layerId = UUID0;
paths = (
{
closed = 1;
nodes = (
"36 158 LINE",
"36 128 LINE",
"304 128 LINE",
"304 158 LINE"
);
},
{
closed = 1;
nodes = (
"35 548 LINE",
"78 548 LINE SMOOTH",
"85 548 OFFCURVE",
"91 543 OFFCURVE",
"91 536 CURVE SMOOTH",
"91 32 LINE SMOOTH",
"91 24 OFFCURVE",
"86 18 OFFCURVE",
"78 18 CURVE SMOOTH",
"35 18 LINE",
"35 0 LINE",
"258 0 LINE",
"258 18 LINE",
"178 18 LINE SMOOTH",
"171 18 OFFCURVE",
"165 24 OFFCURVE",
"165 32 CURVE SMOOTH",
"165 261 LINE",
"342 261 LINE",
"348 261 OFFCURVE",
"352 254 OFFCURVE",
"353 247 CURVE SMOOTH",
"358 185 LINE",
"376 185 LINE",
"376 365 LINE",
"358 365 LINE",
"353 303 LINE SMOOTH",
"352 296 OFFCURVE",
"348 289 OFFCURVE",
"342 289 CURVE",
"165 289 LINE",
"165 538 LINE",
"348 538 LINE SMOOTH",
"362 538 OFFCURVE",
"371 534 OFFCURVE",
"373 516 CURVE SMOOTH",
"387 414 LINE",
"411 414 LINE",
"411 461 LINE SMOOTH",
"411 516 OFFCURVE",
"416 557 OFFCURVE",
"420 575 CURVE",
"403 570 OFFCURVE",
"369 566 OFFCURVE",
"317 566 CURVE SMOOTH",
"35 566 LINE"
);
}
);
width = 430;
}
);
leftKerningGroup = franc;
leftMetricsKey = F;
rightKerningGroup = franc;
rightMetricsKey = F;
unicode = 20A3;
},
{
glyphname = guarani;
layers = (
{
background = {
paths = (
{
closed = 1;
nodes = (
"338 276 LINE",
"112 276 LINE",
"112 294 LINE SMOOTH",
"112 300 OFFCURVE",
"112 306 OFFCURVE",
"113 312 CURVE",
"344 312 LINE",
"353 342 LINE",
"117 342 LINE",
"132 453 OFFCURVE",
"183 551 OFFCURVE",
"266 551 CURVE SMOOTH",
"321 551 OFFCURVE",
"343 512 OFFCURVE",
"343 468 CURVE SMOOTH",
"343 450 OFFCURVE",
"338 432 OFFCURVE",
"329 414 CURVE",
"333 410 OFFCURVE",
"340 407 OFFCURVE",
"348 404 CURVE SMOOTH",
"356 401 OFFCURVE",
"365 399 OFFCURVE",
"376 399 CURVE SMOOTH",
"400 399 OFFCURVE",
"412 424 OFFCURVE",
"412 454 CURVE SMOOTH",
"412 520 OFFCURVE",
"368 579 OFFCURVE",
"266 579 CURVE SMOOTH",
"143 579 OFFCURVE",
"67 468 OFFCURVE",
"46 342 CURVE",
"0 342 LINE",
"-9 312 LINE",
"42 312 LINE",
"40 301 OFFCURVE",
"40 287 OFFCURVE",
"40 276 CURVE",
"-19 276 LINE",
"-28 246 LINE",
"40 246 LINE",
"46 118 OFFCURVE",
"102 -12 OFFCURVE",
"254 -12 CURVE SMOOTH",
"371 -12 OFFCURVE",
"424 55 OFFCURVE",
"424 125 CURVE SMOOTH",
"424 150 OFFCURVE",
"413 168 OFFCURVE",
"393 168 CURVE SMOOTH",
"372 168 OFFCURVE",
"354 160 OFFCURVE",
"345 153 CURVE",
"350 139 OFFCURVE",
"353 124 OFFCURVE",
"353 110 CURVE SMOOTH",
"353 62 OFFCURVE",
"317 16 OFFCURVE",
"253 16 CURVE SMOOTH",
"144 16 OFFCURVE",
"116 136 OFFCURVE",
"112 246 CURVE",
"329 246 LINE"
);
}
);
};
hints = (
{
horizontal = 1;
origin = "{1, 39}";
target = "{1, 9}";
},
{
horizontal = 1;
origin = "{1, 1}";
target = "{1, 0}";
},
{
horizontal = 1;
origin = "{1, 15}";
target = "{1, 33}";
},
{
origin = "{1, 36}";
target = "{1, 12}";
},
{
origin = "{0, 0}";
target = "{0, 1}";
},
{
origin = "{1, 6}";
target = "{1, 42}";
},
{
origin = "{1, 18}";
target = "{1, 30}";
}
);
layerId = UUID0;
paths = (
{
closed = 1;
nodes = (
"222 -101 LINE",
"253 -101 LINE",
"253 667 LINE",
"222 667 LINE"
);
},
{
closed = 1;
nodes = (
"241 276 LINE",
"241 258 LINE",
"334 258 LINE SMOOTH",
"350 258 OFFCURVE",
"354 251 OFFCURVE",
"354 242 CURVE SMOOTH",
"354 110 LINE SMOOTH",
"354 54 OFFCURVE",
"311 12 OFFCURVE",
"253 12 CURVE SMOOTH",
"162 12 OFFCURVE",
"112 102 OFFCURVE",
"112 267 CURVE SMOOTH",
"112 437 OFFCURVE",
"176 555 OFFCURVE",
"269 555 CURVE SMOOTH",
"314 555 OFFCURVE",
"343 521 OFFCURVE",
"343 470 CURVE SMOOTH",
"343 451 OFFCURVE",
"338 433 OFFCURVE",
"329 414 CURVE",
"332 411 OFFCURVE",
"338 408 OFFCURVE",
"348 404 CURVE SMOOTH",
"356 401 OFFCURVE",
"366 399 OFFCURVE",
"374 399 CURVE SMOOTH",
"398 399 OFFCURVE",
"412 420 OFFCURVE",
"412 455 CURVE SMOOTH",
"412 529 OFFCURVE",
"355 579 OFFCURVE",
"273 579 CURVE SMOOTH",
"132 579 OFFCURVE",
"36 454 OFFCURVE",
"35 271 CURVE SMOOTH",
"35 94 OFFCURVE",
"118 -12 OFFCURVE",
"258 -12 CURVE SMOOTH",
"355 -12 OFFCURVE",
"424 44 OFFCURVE",
"424 123 CURVE SMOOTH",
"424 276 LINE"
);
}
);
width = 474;
}
);
leftKerningGroup = guarani;
leftMetricsKey = O;
rightKerningGroup = guarani;
rightMetricsKey = "=H*1.44";
unicode = 20B2;
},
{
glyphname = kip;
layers = (
{
hints = (
{
horizontal = 1;
origin = "{0, 5}";
target = "{0, 4}";
},
{
horizontal = 1;
origin = "{2, 1}";
target = "{2, 0}";
},
{
horizontal = 1;
origin = "{0, 17}";
target = "{0, 16}";
},
{
horizontal = 1;
origin = "{1, 0}";
target = up;
type = BottomGhost;
},
{
origin = "{0, 0}";
target = "{0, 11}";
}
);
layerId = UUID0;
paths = (
{
closed = 1;
nodes = (
"96 32 LINE SMOOTH",
"96 24 OFFCURVE",
"90 18 OFFCURVE",
"82 18 CURVE SMOOTH",
"35 18 LINE",
"35 0 LINE",
"231 0 LINE",
"231 18 LINE",
"184 18 LINE SMOOTH",
"177 18 OFFCURVE",
"170 23 OFFCURVE",
"170 30 CURVE SMOOTH",
"170 572 LINE",
"158 569 OFFCURVE",
"121 566 OFFCURVE",
"84 566 CURVE SMOOTH",
"35 566 LINE",
"35 548 LINE",
"82 548 LINE SMOOTH",
"90 548 OFFCURVE",
"96 542 OFFCURVE",
"96 534 CURVE SMOOTH"
);
},
{
closed = 1;
nodes = (
"347 -6 LINE",
"359 -3 OFFCURVE",
"382 0 OFFCURVE",
"418 0 CURVE SMOOTH",
"475 0 LINE",
"475 18 LINE",
"424 18 LINE SMOOTH",
"416 18 OFFCURVE",
"414 21 OFFCURVE",
"410 26 CURVE SMOOTH",
"208 300 LINE",
"128 291 LINE"
);
},
{
closed = 1;
nodes = (
"36 299 LINE",
"36 269 LINE",
"454 269 LINE",
"454 299 LINE"
);
},
{
closed = 1;
nodes = (
"323 566 LINE",
"323 548 LINE",
"374 548 LINE",
"161 281 LINE",
"197 281 LINE",
"402 538 LINE SMOOTH",
"408 545 OFFCURVE",
"412 548 OFFCURVE",
"420 548 CURVE SMOOTH",
"447 548 LINE",
"447 566 LINE"
);
}
);
width = 475;
}
);
leftKerningGroup = kip;
leftMetricsKey = H;
rightKerningGroup = kip;
rightMetricsKey = K;
unicode = 20AD;
},
